<?xml version="1.0" standalone="no"?>
<!DOCTYPE svg PUBLIC "-//W3C//DTD SVG 1.1//EN" "http://www.w3.org/Graphics/SVG/1.1/DTD/svg11.dtd" >
<svg>
<metadata>
Created by FontForge 20090914 at Fri Oct 26 07:50:23 2018
 By www-data
Copyright (c) 2009 by neogrey creative, Ivan Filipov. All rights reserved.
</metadata>
<defs>
<font id="Arkitech-Medium" horiz-adv-x="1017" >
  <font-face 
    font-family="Arkitech"
    font-weight="500"
    font-stretch="normal"
    units-per-em="1000"
    panose-1="2 0 0 0 0 0 0 0 0 0"
    ascent="800"
    descent="-200"
    x-height="692"
    cap-height="693"
    bbox="-180 -258 2040 1030"
    underline-thickness="50"
    underline-position="-75"
    unicode-range="U+0020-U+FB02"
  />
<missing-glyph horiz-adv-x="375" 
 />
    <glyph glyph-name=".notdef" horiz-adv-x="375" 
 />
    <glyph glyph-name="space" unicode=" " horiz-adv-x="375" 
 />
    <glyph glyph-name="exclam" unicode="!" horiz-adv-x="389" 
d="M244 693v-499h-107v499h107zM244 152v-152h-107v152h107z" />
    <glyph glyph-name="quotedbl" unicode="&#x22;" horiz-adv-x="417" 
d="M99 486v207h109v-207h-109zM260 486v207h109v-207h-109z" />
    <glyph glyph-name="numbersign" unicode="#" horiz-adv-x="755" 
d="M629 277h-123v-128h-76v128h-137v-128h-76v128h-123v76h123v136h-123v76h123v128h76v-128h137v128h76v-128h123v-76h-123v-136h123v-76zM430 353v136h-137v-136h137z" />
    <glyph glyph-name="dollar" unicode="$" horiz-adv-x="1013" 
d="M706 394c26.667 0 52.001 -5.16797 76.001 -15.501s44.833 -24.333 62.5 -42s31.667 -38.5 42 -62.5s15.5 -49.667 15.5 -77s-5.16699 -53 -15.5 -77s-24.333 -44.833 -42 -62.5s-38.334 -31.667 -62.001 -42s-49.167 -15.5 -76.5 -15.5h-39v-79h-108v79h-78v-79h-108v79
h-270v107h270v179h-72c-26.667 0 -51.834 5.16699 -75.501 15.5s-44.5 24.333 -62.5 42s-32.167 38.334 -42.5 62.001s-15.5 49.167 -15.5 76.5c0 28 5.16699 54 15.5 78s24.333 44.833 42 62.5s38.334 31.5 62.001 41.5s49.167 15 76.5 15h72v77h108v-77h78v77h108v-77h228
v-108h-228v-177h39zM481.001 570.999v-177h78v177h-78zM373.001 393.999v177h-72c-25.333 0 -46 -8.33301 -62 -25s-25 -37 -27 -61c2 -26 11.333 -47.667 28 -65s37 -26 61 -26h72zM559.001 106.999v179h-78v-179h78zM706.001 106.999c24.667 0 45.667 8.66797 63 26.001
s26 38.333 26 63c0 25.333 -8.5 46.666 -25.5 63.999s-38.167 26 -63.5 26h-39v-179h39z" />
    <glyph glyph-name="percent" unicode="%" horiz-adv-x="1166" 
d="M299 -10l447 703h123l-447 -703h-123zM767 0c-21.333 0 -41.499 4 -60.499 12s-35.5 19 -49.5 33c-14.667 14.667 -26.167 31.5 -34.5 50.5s-12.5 39.167 -12.5 60.5v14c0 22 4.16699 42.5 12.5 61.5s19.666 35.667 33.999 50s31 25.666 50 33.999s39.167 12.5 60.5 12.5
h160c21.333 0 41.5 -4.16699 60.5 -12.5s35.5 -19.666 49.5 -33.999s25.167 -31 33.5 -50s12.5 -39.5 12.5 -61.5v-14c0 -21.333 -4 -41.5 -12 -60.5s-19 -35.5 -33 -49.5s-30.5 -25.167 -49.5 -33.5s-39.5 -12.5 -61.5 -12.5h-160zM728.001 210
c-5.33301 -5.33301 -9.50098 -11.333 -12.501 -18s-4.5 -14 -4.5 -22v-14c0 -15.333 5.5 -28.333 16.5 -39s24.167 -16 39.5 -16h160c15.333 0 28.333 5.33301 39 16s16 23.667 16 39v14c0 16 -5.33301 29.5 -16 40.5s-23.667 16.5 -39 16.5h-160
c-15.333 0 -28.666 -5.66699 -39.999 -17h1zM244 356c-43.333 0 -80 15 -110 45c-14 14.667 -25.167 31.5 -33.5 50.5s-12.5 39.167 -12.5 60.5v14c0 22 4.16699 42.5 12.5 61.5s19.5 35.5 33.5 49.5s30.5 25.167 49.5 33.5s39.167 12.5 60.5 12.5h161
c21.333 0 41.5 -4.16699 60.5 -12.5s35.5 -19.5 49.5 -33.5s25.167 -30.5 33.5 -49.5s12.5 -39.5 12.5 -61.5v-14c0 -21.333 -4 -41.5 -12 -60.5s-19 -35.5 -33 -49.5s-30.5 -25.167 -49.5 -33.5s-39.5 -12.5 -61.5 -12.5h-161zM206 566c-11.333 -10 -17 -23.333 -17 -40
v-14c0 -15.333 5.33301 -28.5 16 -39.5s23.667 -16.5 39 -16.5h161c15.333 0 28.333 5.5 39 16.5s16 24.167 16 39.5v14c0 15.333 -5.33301 28.5 -16 39.5s-23.667 16.5 -39 16.5h-161c-15.333 0 -28.333 -5.33301 -39 -16h1z" />
    <glyph glyph-name="ampersand" unicode="&#x26;" horiz-adv-x="1134" 
d="M1056 406l-0.000976562 -108.002h-93v-298h-663c-32 0 -61 5.33301 -87 16s-48.333 25.167 -67 43.5s-33.167 39.833 -43.5 64.5s-15.5 51 -15.5 79s5.83301 54.667 17.5 80s27.834 47.333 48.501 66c-21.333 16.667 -37.666 37.334 -48.999 62.001s-17 50.667 -17 78
c0 37.333 7.33301 68.166 22 92.499s33 43.833 55 58.5s45.5 24.834 70.5 30.501s47.833 8.5 68.5 8.5h655v-108h-655c-13.333 0 -26.333 -1.83301 -39 -5.5s-24.334 -9 -35.001 -16s-19.167 -15.667 -25.5 -26s-9.5 -22.166 -9.5 -35.499c0 -12.667 3.16699 -24 9.5 -34
s14.5 -18.5 24.5 -25.5s21.333 -12.5 34 -16.5s25 -6 37 -6h757zM854.999 296.998l-557 0.00390625c-14 0 -27.333 -2.5 -40 -7.5s-23.667 -11.833 -33 -20.5s-16.833 -18.834 -22.5 -30.501s-8.5 -23.834 -8.5 -36.501c0 -4.66699 1.5 -12.334 4.5 -23.001
s8.5 -21.334 16.5 -32.001s18.667 -20 32 -28s30.333 -12 51 -12h557v190z" />
    <glyph glyph-name="quotesingle" unicode="'" horiz-adv-x="258" 
d="M91 442v243h97v-243h-97z" />
    <glyph glyph-name="parenleft" unicode="(" horiz-adv-x="475" 
d="M231 -57c-28 0 -52.667 7.83203 -74 23.499s-38 34.834 -50 57.501c-6.66699 13.333 -11.834 27.5 -15.501 42.5s-5.5 31.167 -5.5 48.5v450c0 22.667 3.33301 43.834 10 63.501s15.667 37.167 27 52.5c12.667 17.333 28.334 31 47.001 41s39 15 61 15h118v-107h-118
c-11.333 -2 -20.333 -10 -27 -24c-6.66699 -11.333 -10 -25 -10 -41v-450c0 -22 5 -39 15 -51c7.33301 -8.66699 15 -13.334 23 -14.001h117v-107h-118v0z" />
    <glyph glyph-name="parenright" unicode=")" horiz-adv-x="479" 
d="M86 -57l-0.00195312 107.001h119c6.66699 0.666992 13.667 5.33398 21 14.001c4.66699 5.33301 8.5 12.5 11.5 21.5s4.5 18.833 4.5 29.5v450c0 8 -0.833008 15.333 -2.5 22s-4.16699 13 -7.5 19c-7.33301 14 -16.333 22 -27 24h-119v107h119c21.333 0 41.333 -5 60 -15
s34.334 -23.667 47.001 -41c11.333 -15.333 20.333 -32.833 27 -52.5s10 -40.834 10 -63.501v-450c0 -34 -7 -64.333 -21 -91c-11.333 -22.667 -27.666 -41.834 -48.999 -57.501s-46 -23.5 -74 -23.5h-119z" />
    <glyph glyph-name="asterisk" unicode="*" horiz-adv-x="479" 
d="M420 521h-112l78 -79l-40 -41l-79 80v-111h-58v112l-79 -78l-41 40l79 79h-110v58h112l-79 79l41 41l80 -79v110h57v-112l79 79l41 -41l-80 -80h111v-57z" />
    <glyph glyph-name="plus" unicode="+" horiz-adv-x="714" 
d="M598 293h-201v-201h-96v201h-202v96h202v202h96v-202h201v-96z" />
    <glyph glyph-name="comma" unicode="," horiz-adv-x="311" 
d="M88 -109l33 199h118l-34 -199h-117z" />
    <glyph glyph-name="hyphen" unicode="-" horiz-adv-x="675" 
d="M68 394h514v-92h-514v92z" />
    <glyph glyph-name="hyphen" unicode="&#xad;" horiz-adv-x="675" 
d="M68 394h514v-92h-514v92z" />
    <glyph glyph-name="period" unicode="." horiz-adv-x="313" 
d="M99 0v120h117v-120h-117z" />
    <glyph glyph-name="slash" unicode="/" horiz-adv-x="594" 
d="M73 -51l407 799h76l-407 -799h-76z" />
    <glyph glyph-name="zero" unicode="0" horiz-adv-x="1202" 
d="M383 0c-38.667 0 -75 7.33301 -109 22s-63.833 34.834 -89.5 60.501s-45.834 55.5 -60.501 89.5s-22 70.333 -22 109v118c0 38.667 7.33301 75.167 22 109.5s34.834 64.166 60.501 89.499s55.5 45.5 89.5 60.5s70.333 22.5 109 22.5h414
c38.667 0 75.167 -7.5 109.5 -22.5s64.333 -35.167 90 -60.5s45.834 -55.166 60.501 -89.499s22 -70.833 22 -109.5v-118c0 -38.667 -7.33301 -75 -22 -109s-34.834 -63.833 -60.501 -89.5s-55.667 -45.834 -90 -60.501s-70.833 -22 -109.5 -22h-414zM209 281
c0 -24 4.66699 -46.5 14 -67.5s21.833 -39.333 37.5 -55s34 -28.167 55 -37.5s43.5 -14 67.5 -14h414c24 0 46.667 4.66699 68 14s39.833 21.833 55.5 37.5s28.167 34 37.5 55s14 43.5 14 67.5v118c0 24 -4.66699 46.5 -14 67.5s-21.833 39.333 -37.5 55
s-34.167 28.167 -55.5 37.5s-44 14 -68 14h-414c-24 0 -46.5 -4.66699 -67.5 -14s-39.333 -21.833 -55 -37.5s-28.167 -34 -37.5 -55s-14 -43.5 -14 -67.5v-118z" />
    <glyph glyph-name="one" unicode="1" horiz-adv-x="422" 
d="M207 0v556.001c-2.66699 7.33301 -7.66699 13.833 -15 19.5s-15 9.16699 -23 10.5h-112v108h115c18 0 35.5 -3.83301 52.5 -11.5s32 -17.834 45 -30.501s23.5 -27 31.5 -43s12 -32 12 -48v-561h-106z" />
    <glyph glyph-name="two" unicode="2" horiz-adv-x="1134" 
d="M106 0l-0.00195312 185.003c0 22 4.16699 42.167 12.5 60.5s19.666 34.666 33.999 48.999s30.833 26.166 49.5 35.499s38.334 15.666 59.001 18.999l108 17.5l119 19l121.5 18.5l116 17.5c37 5.66699 71.167 10.667 102.5 15l81 11.5c9.33301 1.33301 18 5.33301 26 12
l0.5 2c0.333008 1.33301 0.666016 4.83301 0.999023 10.5s0.5 14.167 0.5 25.5v49c-1.33301 10 -8.16602 18.833 -20.499 26.5s-26.5 11.5 -42.5 11.5h-600c-5.33301 0 -12.166 -0.5 -20.499 -1.5s-15.833 -4.16699 -22.5 -9.5
c-5.33301 -4.66699 -9.33301 -9.83398 -12 -15.501s-4 -13.834 -4 -24.501v-100h-107v111c0 22 4.5 42 13.5 60s21 33.5 36 46.5s32 23.167 51 30.5s38.167 11 57.5 11h608c20.667 0 41.167 -3 61.5 -9s38.666 -14.833 54.999 -26.5s29.5 -25.834 39.5 -42.501
s15 -36 15 -58v-101c0 -20 -4.16699 -37 -12.5 -51s-19.166 -25.667 -32.499 -35s-28.166 -16.666 -44.499 -21.999s-32.833 -9 -49.5 -11c-17.333 -2 -35.166 -4.33301 -53.499 -7s-37.166 -5.66699 -56.499 -9l-133.5 -19.5l-138 -20.5l-131 -19.5
c-41.667 -6.33301 -78.834 -12.5 -111.501 -18.5c-16.667 -3.33301 -32.334 -10.166 -47.001 -20.499s-22 -22.166 -22 -35.499v-80h836v-107h-943z" />
    <glyph glyph-name="three" unicode="3" horiz-adv-x="1142" 
d="M1036 397c-1.33301 -15.333 -3.66504 -26.665 -6.99805 -33.998s-8.33301 -14.666 -15 -21.999c9.33301 -10 15.333 -20.667 18 -32s4 -23.333 4 -36v-139c-1.33301 -14 -4.83301 -28 -10.5 -42s-14.5 -27.667 -26.5 -41c-17.333 -18.667 -37 -31.834 -59 -39.501
s-47 -11.5 -75 -11.5h-593c-6 0 -13.833 0.5 -23.5 1.5s-19.667 2.83301 -30 5.5s-20.833 6 -31.5 10s-20 8.66699 -28 14c-40 30.667 -60 72.667 -60 126v54h107v-54v-5c0 -16.667 5.66699 -28.334 17 -35.001s24.333 -10 39 -10h603c19.333 0 33.666 2.66699 42.999 8
c4.66699 2.66699 9.16699 6.16699 13.5 10.5s6.5 9.16602 6.5 14.499v132c0 5.33301 -2.66699 8.83301 -8 10.5s-10.666 2.5 -15.999 2.5h-680v109h681c4.66699 0 9.66699 1 15 3s8 5 8 9v140c-3.33301 12 -10.333 21.5 -21 28.5s-22.334 10.5 -35.001 10.5h-610
c-6.66699 0 -14 -0.833008 -22 -2.5s-14.333 -4.5 -19 -8.5c-6 -4 -10 -9.16699 -12 -15.5s-3 -14.166 -3 -23.499v-53h-107v57c0 24 4.83301 46.833 14.5 68.5s23.5 39.167 41.5 52.5c16 11.333 34.667 19.666 56 24.999s41.666 8 60.999 8h594
c22 -0.666992 42.833 -4.5 62.5 -11.5s37.167 -16.5 52.5 -28.5s27.833 -26 37.5 -42s15.5 -33.333 17.5 -52v-162v0z" />
    <glyph glyph-name="four" unicode="4" horiz-adv-x="1106" 
d="M992 693v-692h-107v238h-732c-11.333 0 -21.5 2.83301 -30.5 8.5s-15.5 13.167 -19.5 22.5c-2 4 -3.16699 7.5 -3.5 10.5s-0.5 6.5 -0.5 10.5c0 15.333 5.33301 28.333 16 39l354 363h151l-338 -347h603v347h107z" />
    <glyph glyph-name="five" unicode="5" horiz-adv-x="1150" 
d="M1036 138c-2 -26 -9.33496 -49.0029 -22.002 -69.0029c-5.33301 -8.66699 -12.166 -17.167 -20.499 -25.5s-18.5 -15.666 -30.5 -21.999s-26.167 -11.5 -42.5 -15.5s-34.833 -6 -55.5 -6h-593l-13 1c-8.66699 0.666992 -19.5 2.5 -32.5 5.5s-26.833 7.83301 -41.5 14.5
s-28.5 16 -41.5 28s-23.667 27.167 -32 45.5s-12.5 40.5 -12.5 66.5v87h107v-87c0 -12 3.33301 -21.667 10 -29s14.334 -12.666 23.001 -15.999c9.33301 -4.66699 20.333 -7.66699 33 -9h593c6.66699 0 13.667 0.666992 21 2s14.166 3.33301 20.499 6
s11.5 6.16699 15.5 10.5s6 9.5 6 15.5v159c0 2 -0.166992 4.66699 -0.5 8s-1.16602 6.83301 -2.49902 10.5s-3.5 6.66699 -6.5 9s-7.16699 3.5 -12.5 3.5h-670c-26 3.33301 -49 11.666 -69 24.999c-17.333 11.333 -33 28.333 -47 51s-21 54.334 -21 95.001v191h936v-108
h-829v-83c0 -14.667 1.5 -26.167 4.5 -34.5s6.5 -14.666 10.5 -18.999s7.83301 -7 11.5 -8s6.16699 -1.5 7.5 -1.5h667c24 -1.33301 45.333 -7 64 -17c16 -8.66699 30.833 -22.5 44.5 -41.5s20.5 -45.833 20.5 -80.5v-162z" />
    <glyph glyph-name="six" unicode="6" horiz-adv-x="1144" 
d="M100 557c1.33301 13.333 4.82812 27.1699 10.4951 41.5029s14.5 28.166 26.5 41.499c17.333 19.333 36.833 32.833 58.5 40.5s46.5 11.5 74.5 11.5h606c16 0 32.667 -2.5 50 -7.5s34 -12.833 50 -23.5c40.667 -30.667 61 -73 61 -127v-53h-108v53
c0 7.33301 -0.833008 14.166 -2.5 20.499s-5.5 12.166 -11.5 17.499s-12.833 8.66602 -20.5 9.99902s-15.5 2 -23.5 2h-601c-19.333 0 -33.333 -2.66699 -42 -8c-5.33301 -3.33301 -9.83301 -7.16602 -13.5 -11.499s-6.16699 -8.5 -7.5 -12.5v-138
c4.66699 0.666992 8.83398 1.33398 12.501 2.00098s6.5 1 8.5 1h681c2 0 9.66699 -1.16699 23 -3.5s27.833 -8 43.5 -17s29.834 -22.333 42.501 -40s19 -41.5 19 -71.5v-131c0 -24 -5 -46.833 -15 -68.5s-24.333 -39.5 -43 -53.5c-16 -12 -33.333 -20.333 -52 -25
s-37.667 -7 -57 -7h-600c-35.333 0 -64.166 5.66699 -86.499 17s-39.666 24.666 -51.999 39.999s-20.666 31 -24.999 47s-6.5 28.667 -6.5 38v415zM206.995 145.004c5.33301 -10.667 14 -19.667 26 -27s24.667 -11 38 -11h617c12.667 0 22.667 4 30 12s11 17.333 11 28v138
c0 11.333 -2.83301 18 -8.5 20s-9.5 3 -11.5 3h-685c-1.33301 0 -4.5 -1 -9.5 -3s-7.5 -8.66699 -7.5 -20v-140z" />
    <glyph glyph-name="seven" unicode="7" horiz-adv-x="1054" 
d="M54 0l785.002 521.002c3.33301 1.33301 5.66602 4.66602 6.99902 9.99902s2 10.666 2 15.999c0 9.33301 -3 17.833 -9 25.5s-13.667 12.167 -23 13.5h-716v108h724c40 -5.33301 72 -21.833 96 -49.5s36 -60.5 36 -98.5c0 -21.333 -4.83301 -42 -14.5 -62
s-23.834 -37.667 -42.501 -53l-636 -431h-209z" />
    <glyph glyph-name="eight" unicode="8" horiz-adv-x="1142" 
d="M1033 403c-1.33301 -15.333 -3.66699 -26.668 -7 -34.001s-8.33301 -14.666 -15 -21.999c9.33301 -10 15.333 -20.667 18 -32s4 -23.333 4 -36v-146c-1.33301 -14 -4.83301 -28 -10.5 -42s-14.5 -27.667 -26.5 -41c-17.333 -18.667 -37 -31.834 -59 -39.501
s-47 -11.5 -75 -11.5h-596c-28 0 -52.833 3.83301 -74.5 11.5s-41.167 20.834 -58.5 39.501c-12 13.333 -20.833 27 -26.5 41s-9.16699 28 -10.5 42v146c0 12.667 1.16699 24.667 3.5 36s8.16602 22 17.499 32c-6 6.66699 -10.667 13.667 -14 21s-5.66602 19 -6.99902 35
v155c2 18.667 7.83301 36.167 17.5 52.5s22 30.5 37 42.5s32.333 21.5 52 28.5s40.5 10.5 62.5 10.5h598c22 -0.666992 42.833 -4.5 62.5 -11.5s37.167 -16.5 52.5 -28.5s27.833 -26 37.5 -42s15.5 -33.333 17.5 -52v-155zM904.999 113.998
c4.66699 2.66699 9 6.16602 13 10.499s6.33301 9.5 7 15.5v138c0 5.33301 -2.66699 8.83301 -8 10.5s-10.666 2.5 -15.999 2.5h-674c-5.33301 0 -10.666 -0.833008 -15.999 -2.5s-8 -5.16699 -8 -10.5v-139c0 -5.33301 2.16699 -10.166 6.5 -14.499
s9.16602 -7.83301 14.499 -10.5c4.66699 -2 10.5 -3.83301 17.5 -5.5s15.167 -2.5 24.5 -2.5h596c19.333 0 33.666 2.66699 42.999 8zM924.999 544.997c-3.33301 12 -10.333 21.499 -21 28.499s-22.334 10.5 -35.001 10.5h-609c-12.667 0 -24.5 -3.5 -35.5 -10.5
s-18.167 -16.5 -21.5 -28.5v-133c0 -4 2.5 -7 7.5 -9s10.167 -3 15.5 -3h678c4 0 8.33301 0.833008 13 2.5s7.33398 4.83398 8.00098 9.50098v133z" />
    <glyph glyph-name="nine" unicode="9" horiz-adv-x="1163" 
d="M1042 134c-1.33301 -14 -4.83203 -28.001 -10.499 -42.001s-14.5 -27.667 -26.5 -41c-17.333 -18.667 -37 -31.834 -59 -39.501s-47 -11.5 -75 -11.5h-605c-16.667 0 -33.834 2.33301 -51.501 7s-34.167 12.334 -49.5 23.001c-40 29.333 -60 71.666 -60 126.999v54h107
v-54c0 -7.33301 1 -14.166 3 -20.499s5.66699 -12.166 11 -17.499c5.33301 -4.66699 12.166 -7.83398 20.499 -9.50098s16.5 -2.5 24.5 -2.5h600c10.667 0 19.334 0.833008 26.001 2.5s12 3.83398 16 6.50098c5.33301 3.33301 10 7.16602 14 11.499s6.33301 8.5 7 12.5v137
c-2.66699 -0.666992 -5.5 -1.16699 -8.5 -1.5s-7.16699 -0.5 -12.5 -0.5h-680c-2 0 -9.83301 1.16699 -23.5 3.5s-28.167 8 -43.5 17s-29.333 22.167 -42 39.5s-19 41 -19 71v133c0 24 4.83301 46.833 14.5 68.5s23.834 39.167 42.501 52.5c16.667 12 34.167 20.5 52.5 25.5
s37.166 7.5 56.499 7.5h600c36 0 65 -5.66699 87 -17s39.333 -24.666 52 -39.999s21.167 -31 25.5 -47s6.5 -28.667 6.5 -38v-417zM934.001 546.999c-5.33301 11.333 -13.833 20.5 -25.5 27.5s-24.167 10.5 -37.5 10.5h-616c-12 0 -22.167 -3.83301 -30.5 -11.5
s-12.5 -17.167 -12.5 -28.5v-139c0 -11.333 3 -18 9 -20s10 -3 12 -3h685c1.33301 0 4.33301 1 9 3s7 8.66699 7 20v141z" />
    <glyph glyph-name="colon" unicode=":" horiz-adv-x="302" 
d="M211 152v-152h-111v152h111zM211 420v-151h-111v151h111z" />
    <glyph glyph-name="semicolon" unicode=";" horiz-adv-x="322" 
d="M111 269v120h122v-120h-122zM65 -106l61 225h99l-62 -225h-98z" />
    <glyph glyph-name="semicolon" unicode="&#x37e;" horiz-adv-x="322" 
d="M111 269v120h122v-120h-122zM65 -106l61 225h99l-62 -225h-98z" />
    <glyph glyph-name="less" unicode="&#x3c;" horiz-adv-x="625" 
 />
    <glyph glyph-name="equal" unicode="=" horiz-adv-x="675" 
d="M88 293h504v-102h-504v102zM88 478h504v-102h-504v102z" />
    <glyph glyph-name="greater" unicode="&#x3e;" horiz-adv-x="617" 
 />
    <glyph glyph-name="question" unicode="?" horiz-adv-x="1035" 
d="M828 523c0 2 -0.499023 5.66992 -1.49902 11.0029s-3.5 10.666 -7.5 15.999s-10.333 10.166 -19 14.499s-20.334 6.5 -35.001 6.5h-495c-15.333 0 -27.166 -2.16699 -35.499 -6.5s-14.5 -9.33301 -18.5 -15s-6.5 -11.167 -7.5 -16.5s-1.5 -9.33301 -1.5 -12v-101h-107
v101c0 36.667 6.83301 65.667 20.5 87s29.834 37.166 48.501 47.499s37 16.833 55 19.5s31.667 4 41 4h500c6 0 18.167 -1.16699 36.5 -3.5s37.5 -8.66602 57.5 -18.999s37.667 -26 53 -47s23 -50.5 23 -88.5v-73c0 -30 -6.66699 -53.167 -20 -69.5s-28 -28.5 -44 -36.5
c-18.667 -9.33301 -39.667 -15 -63 -17h-268c-14 0 -24.833 -2.5 -32.5 -7.5s-13.334 -10.667 -17.001 -17s-5.83398 -12.5 -6.50098 -18.5s-1 -10.333 -1 -13v-109h-107v109c0 39.333 7.33301 70 22 92s31.5 38.167 50.5 48.5s37.5 16.666 55.5 18.999s30.333 3.5 37 3.5
h262c4.66699 0.666992 8.66699 2 12 4c3.33301 1.33301 6.33301 3.5 9 6.5s4 7.16699 4 12.5v68zM376.001 -0.99707v106h107v-106h-107z" />
    <glyph glyph-name="at" unicode="@" horiz-adv-x="1102" 
d="M257 54c-21.333 0 -41.4951 4.16895 -60.4951 12.502s-35.5 19.5 -49.5 33.5c-14.667 14.667 -26.167 31.5 -34.5 50.5s-12.5 39.167 -12.5 60.5v302c0 22 4.16699 42.5 12.5 61.5s19.833 35.833 34.5 50.5c14 14 30.5 25.167 49.5 33.5s39.167 12.5 60.5 12.5h549
c20.667 0 40.5 -4.16699 59.5 -12.5s35.833 -19.833 50.5 -34.5c14.667 -14 26 -30.5 34 -49.5s12 -39.5 12 -61.5v-174c0 -30 -6 -57 -18 -81c-10.667 -20 -24.834 -37.5 -42.501 -52.5s-39.167 -22.5 -64.5 -22.5c-20 0 -38.5 4.5 -55.5 13.5s-31.167 21.833 -42.5 38.5
c-20 29.333 -30 64 -30 104v41c0 15.333 -5.66699 28.666 -17 39.999c-5.33301 4.66699 -11.5 8.5 -18.5 11.5s-14.167 4.5 -21.5 4.5h-264c-8 0 -15.333 -1.5 -22 -4.5s-12.667 -6.83301 -18 -11.5c-10.667 -10.667 -16 -24 -16 -40v-36c0 -16 5.33301 -29.333 16 -40
c5.33301 -4.66699 11.333 -8.5 18 -11.5s14 -4.5 22 -4.5h321v-102h-321c-21.333 0 -41.666 4.16699 -60.999 12.5s-36.333 19.833 -51 34.5c-14.667 14 -25.834 30.667 -33.501 50s-11.5 39.666 -11.5 60.999v36c0 44 15 81 45 111c14.667 14.667 31.667 26 51 34
s39.666 12 60.999 12h264c21.333 0 41.666 -4 60.999 -12s36 -19.333 50 -34s25.167 -31.5 33.5 -50.5s12.5 -39.167 12.5 -60.5v-41c0 -12 2 -23 6 -33s10.667 -17.667 20 -23c-0.666992 0.666992 -0.333984 1 0.999023 1s2.33301 0.333008 3 1
c13.333 12 20.666 30.333 21.999 55v173c0 15.333 -5.33301 28.333 -16 39c-11.333 11.333 -24.333 17 -39 17h-549c-14.667 0 -27.667 -5.66699 -39 -17c-5.33301 -5.33301 -9.5 -11.333 -12.5 -18s-4.5 -13.667 -4.5 -21v-302c0 -14.667 5.66699 -27.667 17 -39
c5.33301 -5.33301 11.333 -9.5 18 -12.5s13.667 -4.5 21 -4.5h698v-101h-698z" />
    <glyph glyph-name="A" unicode="A" horiz-adv-x="1071" 
d="M910 609c26 -26.667 46.666 -57.333 61.999 -92s23 -71.667 23 -111v-406h-110v301h-676v-301h-109v406c0 40 7.66699 77.333 23 112s36 65 62 91s56.333 46.5 91 61.5s71.667 22.5 111 22.5h320c39.333 0 76.333 -7.5 111 -22.5s65.334 -35.5 92.001 -61.5z
M384.999 584.001c-23.333 0 -45.498 -4.66699 -66.498 -14s-39.5 -21.833 -55.5 -37.5s-28.833 -34 -38.5 -55s-14.834 -43.167 -15.501 -66.5h676c-0.666992 23.333 -5.83398 45.5 -15.501 66.5s-22.5 39.333 -38.5 55s-34.667 28.167 -56 37.5s-44 14 -68 14h-322z" />
    <glyph glyph-name="B" unicode="B" horiz-adv-x="1062" 
d="M927 357c21.333 -19.333 38 -41.834 50 -67.501s18 -53.167 18 -82.5c0 -28.667 -5.83301 -55.667 -17.5 -81s-27.5 -47.333 -47.5 -66s-43.167 -33.334 -69.5 -44.001s-53.833 -16 -82.5 -16h-680v693h677c20.667 0 41.167 -2.5 61.5 -7.5s39.333 -12.333 57 -22
s33.667 -21.667 48 -36s25.833 -30.833 34.5 -49.5c12.667 -25.333 19 -51.666 19 -78.999c0 -26.667 -5.83301 -52.667 -17.5 -78s-28.5 -46.666 -50.5 -63.999zM207 413.999l571.998 0.00390625c12.667 0 25.334 2 38.001 6s24.167 9.66699 34.5 17
s18.666 16.166 24.999 26.499s9.5 22.166 9.5 35.499s-3.33301 25.166 -10 35.499s-15.167 19.166 -25.5 26.499s-22.166 13 -35.499 17s-26.666 6 -39.999 6h-568v-170zM877.998 170.003c5.33301 10.667 8 22.667 8 36c0 12.667 -2.83301 25 -8.5 37s-13.5 22.5 -23.5 31.5
s-21.333 16.167 -34 21.5s-26 8 -40 8h-573v-194h573c20.667 0 40.167 5.5 58.5 16.5s31.5 25.5 39.5 43.5z" />
    <glyph glyph-name="C" unicode="C" horiz-adv-x="1034" 
d="M154 84c-26.667 26.667 -47.499 57.3311 -62.499 91.998s-22.5 72 -22.5 112v118c0 39.333 7.66699 76.5 23 111.5s36 65.5 62 91.5s56.5 46.5 91.5 61.5s72.5 22.5 112.5 22.5h571v-109h-571c-24.667 0 -47.834 -4.66699 -69.501 -14s-40.5 -22.166 -56.5 -38.499
s-28.833 -35.333 -38.5 -57s-14.5 -44.5 -14.5 -68.5v-118c0 -24 4.66699 -46.833 14 -68.5s22 -40.667 38 -57s34.667 -29.166 56 -38.499s44.333 -14 69 -14h573v-110h-571c-40 0 -77.5 7.5 -112.5 22.5s-65.5 35.5 -91.5 61.5z" />
    <glyph glyph-name="D" unicode="D" horiz-adv-x="1068" 
d="M101 693h604c40 0 77.5 -7.66699 112.5 -23s65.5 -36 91.5 -62s46.5 -56.333 61.5 -91s22.5 -71.667 22.5 -111v-118c0 -40 -7.66699 -77.5 -23 -112.5s-36 -65.5 -62 -91.5s-56.5 -46.5 -91.5 -61.5s-72.167 -22.5 -111.5 -22.5h-604v693zM883 408
c0 24 -4.66797 46.666 -14.001 67.999s-22.166 40 -38.499 56s-35.333 28.667 -57 38s-44.5 14 -68.5 14h-495v-474h497c24 0 46.667 4.66699 68 14s40 22 56 38s28.667 34.833 38 56.5s14 44.834 14 69.501v120z" />
    <glyph glyph-name="E" unicode="E" horiz-adv-x="1062" 
d="M263 532c-16 -16.667 -28.667 -35.667 -38 -57s-14 -44.333 -14 -69v-5h750v-110h-750v-5c0 -24 4.66699 -46.667 14 -68s22.166 -40 38.499 -56s35.333 -28.667 57 -38s44.5 -14 68.5 -14h572v-110h-572c-40 0 -77.5 7.66699 -112.5 23s-65.5 36 -91.5 62
s-46.5 56.5 -61.5 91.5s-22.5 72.167 -22.5 111.5v118c0 40 7.66699 77.333 23 112s36 65 62 91s56.5 46.5 91.5 61.5s72.167 22.5 111.5 22.5h572v-109h-572c-25.333 0 -48.666 -4.66699 -69.999 -14s-40 -22 -56 -38z" />
    <glyph glyph-name="F" unicode="F" horiz-adv-x="1033" 
d="M263 531c-16 -16 -28.6689 -34.832 -38.002 -56.499s-14 -44.834 -14 -69.501v-7h707v-109h-707v-289h-110v405c0 40 7.5 77.333 22.5 112s35.5 65 61.5 91c26.667 26.667 57.334 47.5 92.001 62.5s72 22.5 112 22.5h571v-109h-571
c-25.333 0 -48.666 -4.83301 -69.999 -14.5s-40 -22.5 -56 -38.5z" />
    <glyph glyph-name="G" unicode="G" horiz-adv-x="1071" 
d="M388 0c-39.333 0 -76.333 7.49902 -111 22.499s-65 35.5 -91 61.5s-46.667 56.5 -62 91.5s-23 72.5 -23 112.5v118c0 39.333 7.5 76.333 22.5 111s35.5 65 61.5 91s56.333 46.667 91 62s72 23 112 23h416v-109h-416c-24 0 -46.833 -4.66699 -68.5 -14
s-40.5 -22 -56.5 -38s-28.833 -34.667 -38.5 -56s-14.5 -44 -14.5 -68v-120c0 -24 4.66699 -46.833 14 -68.5s22 -40.667 38 -57s34.667 -29.166 56 -38.499s44 -14 68 -14h322c24 0 46.833 4.66699 68.5 14s40.5 22 56.5 38s28.833 34.667 38.5 56s14.5 44 14.5 68v8h-299
v110h409v-116c0 -39.333 -7.5 -76.5 -22.5 -111.5s-35.5 -65.5 -61.5 -91.5s-56.5 -46.667 -91.5 -62s-72.5 -23 -112.5 -23h-320z" />
    <glyph glyph-name="H" unicode="H" horiz-adv-x="1015" 
d="M942 693v-693h-111v317h-621v-317h-110v693h110v-266h621v266h111z" />
    <glyph glyph-name="I" unicode="I" horiz-adv-x="260" 
d="M88 0v693h110v-693h-110z" />
    <glyph glyph-name="J" unicode="J" 
d="M185 84c-26.667 26.667 -47.499 57.333 -62.499 92s-22.5 72 -22.5 112v74h110v-74c0 -24 4.66699 -46.833 14 -68.5s22 -40.667 38 -57s34.667 -29.166 56 -38.499s44.333 -14 69 -14h269c24 0 46.833 4.66699 68.5 14s40.667 22 57 38s29.166 34.667 38.499 56
s14 44 14 68v407h110v-405c0 -40 -7.5 -77.333 -22.5 -112s-35.833 -65.334 -62.5 -92.001c-26 -26 -56.333 -46.5 -91 -61.5s-72 -22.5 -112 -22.5h-268c-40 0 -77.333 7.5 -112 22.5s-65 35.5 -91 61.5z" />
    <glyph glyph-name="K" unicode="K" horiz-adv-x="1078" 
d="M961 586c0 -48 -10.999 -92.335 -32.999 -133.002s-51 -74 -87 -100c36 -26.667 65 -60.5 87 -101.5s33 -85.167 33 -132.5v-119h-110v119c0 24.667 -4.83301 47.834 -14.5 69.501s-22.5 40.5 -38.5 56.5s-34.833 28.667 -56.5 38s-44.834 14 -69.501 14h-462v-297h-110
v701h110v-293h462c24.667 0 47.834 4.66699 69.501 14s40.667 22 57 38s29.166 34.833 38.499 56.5s14 44.834 14 69.501v115h110v-115v0z" />
    <glyph glyph-name="L" unicode="L" horiz-adv-x="1033" 
d="M210 693l0.00195312 -404.001c0 -25.333 4.66699 -48.666 14 -69.999s22 -40 38 -56s34.667 -28.833 56 -38.5s44.666 -14.5 69.999 -14.5h571v-110h-571c-40 0 -77.333 7.5 -112 22.5s-65.334 35.833 -92.001 62.5c-26 26 -46.5 56.5 -61.5 91.5s-22.5 72.5 -22.5 112.5
v404h110z" />
    <glyph glyph-name="M" unicode="M" horiz-adv-x="1217" 
d="M1032 1l0.000976562 551.001c0 10 -4.33301 17.833 -13 23.5s-16.334 8.5 -23.001 8.5h-9c-6.66699 0 -14 -2.66699 -22 -8s-13.667 -12.333 -17 -21l-28 -59l-27 -57.5l-40 -84.5l-56.5 -118l-75.5 -158c-4.66699 -9.33301 -10 -18.666 -16 -27.999
s-12.833 -17.666 -20.5 -24.999s-16.167 -13.333 -25.5 -18s-19 -7 -29 -7h-16c-25.333 1.33301 -44.666 8.16602 -57.999 20.499s-26.333 31.166 -39 56.499l-228 478c-4 8 -7.16699 13.667 -9.5 17s-6.16602 6.66602 -11.499 9.99902c-4 1.33301 -8.66699 2 -14 2h-11
c-8 0 -16 -3.5 -24 -10.5s-12 -14.167 -12 -21.5v-551h-110v555c0 17.333 3.83301 34 11.5 50s18 30.333 31 43s28 22.834 45 30.501s34.833 12.167 53.5 13.5l16 1c19.333 0 36.666 -3 51.999 -9c8 -2.66699 16.167 -6.83398 24.5 -12.501s16.166 -12.167 23.499 -19.5
s13.833 -14.833 19.5 -22.5s9.5 -14.5 11.5 -20.5l6 -13l113 -238l113 -238l2 -4l230 482c6.66699 14 15.834 28.5 27.501 43.5s25.5 26.833 41.5 35.5c9.33301 4.66699 19.833 8.5 31.5 11.5s23.167 4.5 34.5 4.5l15 -1c17.333 0 34.333 -4.16699 51 -12.5
s31.667 -19 45 -32s24.166 -27.5 32.499 -43.5s12.833 -31.667 13.5 -47v-557h-109z" />
    <glyph glyph-name="N" unicode="N" horiz-adv-x="1094" 
d="M785 8c-9.33301 4 -18.001 8.99902 -26.001 14.999s-16.333 14 -25 24l-110.5 129l-116 137l-116 136.5l-109.5 129.5c-8 8 -18 12 -30 12c-10.667 0 -20.167 -2.66699 -28.5 -8s-12.833 -13.666 -13.5 -24.999v-558h-109v566l1 3c1.33301 20.667 6.5 39.334 15.5 56.001
s20.667 30.667 35 42s30.333 20 48 26s35.5 9 53.5 9c21.333 0 41.833 -4.16699 61.5 -12.5s36.834 -22.166 51.501 -41.499l225 -265l226 -266c3.33301 -3.33301 7.83301 -6.33301 13.5 -9s11.167 -4 16.5 -4c9.33301 0 18 3 26 9s13 14 15 24v558h110v-566
c-2 -20.667 -7.66699 -39.334 -17 -56.001s-20.833 -31 -34.5 -43s-29.167 -21.167 -46.5 -27.5s-35.333 -9.5 -54 -9.5c-10 0 -20.5 1.16699 -31.5 3.5s-21.167 6.16602 -30.5 11.499z" />
    <glyph glyph-name="O" unicode="O" horiz-adv-x="1248" 
d="M391 0c-40 0 -77.5 7.5 -112.5 22.5s-65.5 35.5 -91.5 61.5s-46.5 56.5 -61.5 91.5s-22.5 72.5 -22.5 112.5v118c0 39.333 7.5 76.5 22.5 111.5s35.5 65.5 61.5 91.5s56.5 46.5 91.5 61.5s72.5 22.5 112.5 22.5h486c40 0 77.5 -7.5 112.5 -22.5s65.5 -35.5 91.5 -61.5
s46.5 -56.5 61.5 -91.5s22.5 -72.167 22.5 -111.5v-118c0 -40 -7.5 -77.5 -22.5 -112.5s-35.5 -65.5 -61.5 -91.5s-56.5 -46.5 -91.5 -61.5s-72.5 -22.5 -112.5 -22.5h-486zM213 288c0 -24.667 4.66699 -47.834 14 -69.501s22 -40.5 38 -56.5s34.833 -28.667 56.5 -38
s44.834 -14 69.501 -14h486c24.667 0 47.834 4.66699 69.501 14s40.667 22 57 38s29.166 34.833 38.499 56.5s14 44.834 14 69.501v118c0 24 -4.66699 46.833 -14 68.5s-22.166 40.667 -38.499 57s-35.333 29.166 -57 38.499s-44.834 14 -69.501 14h-486
c-24.667 0 -47.834 -4.66699 -69.501 -14s-40.5 -22.166 -56.5 -38.499s-28.667 -35.333 -38 -57s-14 -44.5 -14 -68.5v-118z" />
    <glyph glyph-name="P" unicode="P" horiz-adv-x="1111" 
d="M212 0h-109.001v692h693c29.333 0 57.333 -5.66699 84 -17s50 -26.833 70 -46.5s36 -42.5 48 -68.5s18 -53.667 18 -83c0 -30 -6.16699 -58 -18.5 -84s-28.833 -48.833 -49.5 -68.5s-44.667 -35 -72 -46s-55.666 -16.5 -84.999 -16.5h-579v-262zM792.999 369
c15.333 0 29.834 2.83105 43.501 8.49805s25.667 13.334 36 23.001s18.833 21 25.5 34s10.334 27.167 11.001 42.5c-0.666992 14.667 -4.33398 28.5 -11.001 41.5s-15.334 24.333 -26.001 34s-23 17.334 -37 23.001s-28.667 8.5 -44 8.5h-579v-215h581z" />
    <glyph glyph-name="Q" unicode="Q" horiz-adv-x="1248" 
d="M381 0c-39.333 0 -76.5 7.50195 -111.5 22.502s-65.5 35.5 -91.5 61.5s-46.5 56.5 -61.5 91.5s-22.5 72.5 -22.5 112.5v120c0 39.333 7.5 76.5 22.5 111.5s35.5 65.5 61.5 91.5s56.5 46.5 91.5 61.5s72.167 22.5 111.5 22.5h487c40 0 77.5 -7.5 112.5 -22.5
s65.5 -35.5 91.5 -61.5s46.5 -56.5 61.5 -91.5s22.5 -72.167 22.5 -111.5v-120c0 -34.667 -5.33301 -66.834 -16 -96.501s-25.667 -56.834 -45 -81.501h121v-110h-835zM875 110.002c24 0 46.334 4.83496 67.001 14.502s38.667 22.667 54 39s27.5 35.166 36.5 56.499
s13.5 44 13.5 68v120c0 24 -4.66699 46.833 -14 68.5s-22 40.667 -38 57s-34.833 29.166 -56.5 38.499s-44.834 14 -69.501 14h-487c-24 0 -46.833 -4.66699 -68.5 -14s-40.5 -22.166 -56.5 -38.499s-28.667 -35.333 -38 -57s-14 -44.5 -14 -68.5v-120
c0 -24.667 4.66699 -47.834 14 -69.501s22 -40.5 38 -56.5s34.833 -28.667 56.5 -38s44.5 -14 68.5 -14h494z" />
    <glyph glyph-name="R" unicode="R" horiz-adv-x="1073" 
d="M954 319c-12.667 -13.333 -27.333 -24.501 -44 -33.501s-34 -16.167 -52 -21.5l48.5 -65l51.5 -68.5l51 -68l47 -62.5h-138l-190 254h-527v-254h-109v693h702c46.667 0 88.667 -12 126 -36c31.333 -19.333 56.333 -45.166 75 -77.499s28 -67.5 28 -105.5
c0 -30.667 -6 -59.167 -18 -85.5s-29 -49.833 -51 -70.5v1zM201.001 363.999l596.001 0.00195312c15.333 0 30.166 2.83301 44.499 8.5s26.833 13.5 37.5 23.5s19.167 21.667 25.5 35s9.5 27.666 9.5 42.999s-3.33301 29.666 -10 42.999s-15.5 25 -26.5 35
s-23.667 17.833 -38 23.5s-29.5 8.5 -45.5 8.5h-593v-220z" />
    <glyph glyph-name="S" unicode="S" horiz-adv-x="1018" 
d="M89 0v110.003h645c12.667 0 24.5 2.33301 35.5 7s20.5 11.167 28.5 19.5s14.333 18 19 29s7 22.833 7 35.5c0 25.333 -8.66699 46.833 -26 64.5s-38.666 26.5 -63.999 26.5h-480c-27.333 0 -53.166 5.16699 -77.499 15.5s-45.666 24.666 -63.999 42.999
s-32.833 39.666 -43.5 63.999s-16 50.5 -16 78.5s5.16699 54.167 15.5 78.5s24.666 45.666 42.999 63.999s39.666 32.833 63.999 43.5s50.5 16 78.5 16h644v-109h-644c-26 0 -47.167 -8.83301 -63.5 -26.5s-25.5 -38.834 -27.5 -63.501c2 -26.667 11.5 -49 28.5 -67
s37.833 -27 62.5 -27h480c27.333 0 53.166 -5.33301 77.499 -16s45.5 -25 63.5 -43s32.333 -39.167 43 -63.5s16 -50.166 16 -77.499c0 -28 -5.16699 -54.333 -15.5 -79s-24.5 -46 -42.5 -64s-39.167 -32.333 -63.5 -43s-50.5 -16 -78.5 -16h-645z" />
    <glyph glyph-name="T" unicode="T" horiz-adv-x="1031" 
d="M947 584h-374v-584h-109v584h-374v109h857v-109z" />
    <glyph glyph-name="U" unicode="U" horiz-adv-x="1066" 
d="M185 84c-26.667 26.667 -47.499 57.333 -62.499 92s-22.5 72 -22.5 112v405h110v-405c0 -24 4.66699 -46.833 14 -68.5s22 -40.667 38 -57s34.667 -29.166 56 -38.499s44.333 -14 69 -14h309c24 0 46.833 4.66699 68.5 14s40.667 22 57 38s29.166 34.667 38.499 56
s14 44 14 68v407h110v-405c0 -40 -7.5 -77.333 -22.5 -112s-35.833 -65.334 -62.5 -92.001c-26 -26 -56.333 -46.5 -91 -61.5s-72 -22.5 -112 -22.5h-308c-40 0 -77.333 7.5 -112 22.5s-65 35.5 -91 61.5z" />
    <glyph glyph-name="V" unicode="V" horiz-adv-x="1172" 
d="M530 0l-513 692h134l407 -553l206.5 276.5l205.5 276.5h136l-519 -692h-57z" />
    <glyph glyph-name="W" unicode="W" horiz-adv-x="1658" 
d="M1544 693v-408.001c0 -39.333 -7.66699 -76.5 -23 -111.5s-36 -65.5 -62 -91.5s-56.5 -46.667 -91.5 -62s-72.5 -23 -112.5 -23h-201c-40 0 -77.167 7.5 -111.5 22.5s-64.833 35.5 -91.5 61.5l-15 16.5c-4.66699 5 -9.66699 10.833 -15 17.5
c-4 -5.33301 -8.66699 -10.833 -14 -16.5l-16 -17.5c-26 -26 -56.333 -46.5 -91 -61.5s-72 -22.5 -112 -22.5h-202c-40 0 -77.5 7.66699 -112.5 23s-65.5 36 -91.5 62s-46.5 56.5 -61.5 91.5s-22.5 72.167 -22.5 111.5v408h110v-410c0 -24 4.83301 -46.667 14.5 -68
s22.5 -40 38.5 -56s34.833 -28.667 56.5 -38s44.5 -14 68.5 -14h202c25.333 0 48.666 4.66699 69.999 14s40 22 56 38s28.667 34.833 38 56.5s14 44.834 14 69.501v408h110v-408c0 -24.667 4.66699 -47.834 14 -69.501s22 -40.5 38 -56.5s34.833 -28.667 56.5 -38
s44.834 -14 69.501 -14h203c24.667 0 47.667 4.66699 69 14s40 22 56 38s28.667 34.833 38 56.5s14 44.834 14 69.501v408h110z" />
    <glyph glyph-name="X" unicode="X" 
d="M849 320c26.667 -26.667 47.4971 -57.333 62.4971 -92s22.5 -72 22.5 -112v-116h-110v116c0 24 -4.66699 46.833 -14 68.5s-22 40.667 -38 57s-34.667 29.166 -56 38.499s-44.333 14 -69 14h-270c-24 0 -46.667 -4.66699 -68 -14s-40.166 -22 -56.499 -38
s-29.166 -34.667 -38.499 -56s-14 -44 -14 -68v-118h-110v116c0 40 7.5 77.333 22.5 112s35.833 65.334 62.5 92.001c5.33301 5.33301 10.833 10.5 16.5 15.5s11.167 9.5 16.5 13.5c-13.333 10 -24.666 19.667 -33.999 29h1c-26.667 26.667 -47.5 57.334 -62.5 92.001
s-22.5 72 -22.5 112v111h110v-111c0 -24 4.66699 -46.833 14 -68.5s22 -40.667 38 -57s34.667 -29.166 56 -38.499s44.333 -14 69 -14h277c23.333 0 45.333 4.83301 66 14.5s38.667 22.5 54 38.5s27.5 34.667 36.5 56s13.5 43.666 13.5 66.999v113h110v-111
c0 -40 -7.5 -77.333 -22.5 -112s-35.833 -65.334 -62.5 -92.001l-17 -15.5c-5.33301 -5 -11 -9.83301 -17 -14.5c7.33301 -4.66699 13.5 -9.16699 18.5 -13.5l15.5 -13.5v-1z" />
    <glyph glyph-name="Y" unicode="Y" 
d="M460 0l0.000976562 207.999h-82c-40 0 -77.333 7.5 -112 22.5s-65 35.5 -91 61.5c-26.667 26.667 -47.5 57.334 -62.5 92.001s-22.5 72 -22.5 112v197h110v-197c0 -24 4.66699 -46.833 14 -68.5s22 -40.667 38 -57s34.667 -29.166 56 -38.499s44.333 -14 69 -14h269
c24 0 46.833 4.66699 68.5 14s40.667 22 57 38s29.166 34.667 38.499 56s14 44 14 68v199h110v-197c0 -40 -7.5 -77.333 -22.5 -112s-35.833 -65.334 -62.5 -92.001c-26 -26 -56.333 -46.5 -91 -61.5s-72 -22.5 -112 -22.5h-76v-208h-110z" />
    <glyph glyph-name="Z" unicode="Z" horiz-adv-x="1049" 
d="M221 0c-23.333 0 -43.832 4.66504 -61.499 13.998s-32.334 21.333 -44.001 36s-20.5 31.167 -26.5 49.5s-9 36.5 -9 54.5c0 25.333 4.66699 46.333 14 63s19.666 30 30.999 40c12.667 12 27.667 21 45 27l158 54.5l165 58l165.5 58l158.5 54.5c2 2 4.66699 3.33301 8 4
l-1 -1c4.66699 2 10.334 5.33301 17.001 10s10 12.334 10 23.001c0 2 -0.333008 5 -1 9s-2 8.33301 -4 13s-5.16699 8.66699 -9.5 12s-10.5 5 -18.5 5h-732v109h738c30.667 0 55 -7 73 -21s31.667 -29.833 41 -47.5s15.333 -34.334 18 -50.001s4 -25.5 4 -29.5
c0 -24.667 -3.83301 -45.167 -11.5 -61.5s-16.167 -29.166 -25.5 -38.499c-10.667 -12 -22.667 -21 -36 -27l-339.5 -118.5l-339.5 -118.5l1 1c-8 -4 -13.5 -8.83301 -16.5 -14.5s-4.5 -11.5 -4.5 -17.5c0 -9.33301 3.16699 -18.166 9.5 -26.499s14.833 -12.833 25.5 -13.5
h731v-110h-733z" />
    <glyph glyph-name="bracketleft" unicode="[" horiz-adv-x="411" 
d="M83 -69v817h218v-107h-111v-603h120v-107h-227z" />
    <glyph glyph-name="backslash" unicode="\" horiz-adv-x="578" 
d="M528 -50h-66l-412 800h66z" />
    <glyph glyph-name="bracketright" unicode="]" horiz-adv-x="442" 
d="M83 -69v107h120v603h-121v107h228v-817h-227z" />
    <glyph glyph-name="asciicircum" unicode="^" horiz-adv-x="652" 
d="M364 700l248 -461h-68l-218 411l-218 -411h-68l248 461h76z" />
    <glyph glyph-name="underscore" unicode="_" horiz-adv-x="1000" 
d="M0 -70h1000v-60h-1000v60z" />
    <glyph glyph-name="grave" unicode="`" horiz-adv-x="521" 
d="M209 991l201 -200l-75 -76l-202 201z" />
    <glyph glyph-name="a" unicode="a" horiz-adv-x="1083" 
d="M322 0c-22 0 -43.332 3.33105 -63.999 9.99805s-40 15.667 -58 27s-34 25 -48 41s-25.333 33.333 -34 52c-6 13.333 -10.833 27 -14.5 41s-5.5 28.333 -5.5 43c0 30 6 58 18 84s28.167 48.833 48.5 68.5s43.833 35 70.5 46s54.667 16.5 84 16.5h533v25
c0 16 -3.33301 31.167 -10 45.5s-15.334 26.833 -26.001 37.5s-23.167 19 -37.5 25s-29.5 9 -45.5 9h-484v108h484c31.333 0 60.666 -5.83301 87.999 -17.5s51.333 -27.667 72 -48s36.834 -44.166 48.501 -71.499s17.5 -56.666 17.5 -87.999v-455zM257.001 301.998
c-16 -10 -28.499 -22.5 -37.499 -37.5s-13.5 -31.833 -13.5 -50.5c0 -15.333 3.16699 -29.5 9.5 -42.5s14.5 -24.167 24.5 -33.5s21.833 -16.833 35.5 -22.5s28.167 -8.5 43.5 -8.5h533v214h-530c-24.667 0 -46.334 -6.33301 -65.001 -19z" />
    <glyph glyph-name="b" unicode="b" horiz-adv-x="1105" 
d="M927 357c21.333 -19.333 38 -41.834 50 -67.501s18 -53.167 18 -82.5c0 -28.667 -5.83301 -55.667 -17.5 -81s-27.5 -47.333 -47.5 -66s-43.167 -33.334 -69.5 -44.001s-53.833 -16 -82.5 -16h-680v693h677c20.667 0 41.167 -2.5 61.5 -7.5s39.333 -12.333 57 -22
s33.667 -21.667 48 -36s25.833 -30.833 34.5 -49.5c12.667 -25.333 19 -51.666 19 -78.999c0 -26.667 -5.83301 -52.667 -17.5 -78s-28.5 -46.666 -50.5 -63.999zM207 413.999l571.998 0.00390625c12.667 0 25.334 2 38.001 6s24.167 9.66699 34.5 17
s18.666 16.166 24.999 26.499s9.5 22.166 9.5 35.499s-3.33301 25.166 -10 35.499s-15.167 19.166 -25.5 26.499s-22.166 13 -35.499 17s-26.666 6 -39.999 6h-568v-170zM877.998 170.003c5.33301 10.667 8 22.667 8 36c0 12.667 -2.83301 25 -8.5 37s-13.5 22.5 -23.5 31.5
s-21.333 16.167 -34 21.5s-26 8 -40 8h-573v-194h573c20.667 0 40.167 5.5 58.5 16.5s31.5 25.5 39.5 43.5z" />
    <glyph glyph-name="c" unicode="c" horiz-adv-x="1034" 
d="M185 84c-26.667 26.667 -47.499 57.3311 -62.499 91.998s-22.5 72 -22.5 112v118c0 39.333 7.66699 76.5 23 111.5s36 65.5 62 91.5s56.5 46.5 91.5 61.5s72.5 22.5 112.5 22.5h571v-109h-571c-24.667 0 -47.834 -4.66699 -69.501 -14s-40.5 -22.166 -56.5 -38.499
s-28.833 -35.333 -38.5 -57s-14.5 -44.5 -14.5 -68.5v-118c0 -24 4.66699 -46.833 14 -68.5s22 -40.667 38 -57s34.667 -29.166 56 -38.499s44.333 -14 69 -14h573v-110h-571c-40 0 -77.5 7.5 -112.5 22.5s-65.5 35.5 -91.5 61.5z" />
    <glyph glyph-name="d" unicode="d" horiz-adv-x="1047" 
d="M101 693h604c40 0 77.5 -7.66699 112.5 -23s65.5 -36 91.5 -62s46.5 -56.333 61.5 -91s22.5 -71.667 22.5 -111v-118c0 -40 -7.66699 -77.5 -23 -112.5s-36 -65.5 -62 -91.5s-56.5 -46.5 -91.5 -61.5s-72.167 -22.5 -111.5 -22.5h-604v693zM883 408
c0 24 -4.66797 46.666 -14.001 67.999s-22.166 40 -38.499 56s-35.333 28.667 -57 38s-44.5 14 -68.5 14h-495v-474h497c24 0 46.667 4.66699 68 14s40 22 56 38s28.667 34.833 38 56.5s14 44.834 14 69.501v120z" />
    <glyph glyph-name="e" unicode="e" horiz-adv-x="1088" 
d="M100 483c0 28.667 6.16895 55.832 18.502 81.499s28.666 47.834 48.999 66.501s44.166 33.5 71.499 44.5s56 16.5 86 16.5h433c29.333 0 57.333 -5.66699 84 -17s50.167 -26.833 70.5 -46.5s36.5 -42.5 48.5 -68.5s18 -53.667 18 -83c0 -30 -6 -58 -18 -84
s-28.333 -48.833 -49 -68.5s-44.667 -35 -72 -46s-56 -16.5 -86 -16.5h-547v-81c6 -22.667 20.5 -40.667 43.5 -54s47.833 -20 74.5 -20h635v-107h-640c-26 0 -51.833 4 -77.5 12s-49 19.667 -70 35s-38.167 34 -51.5 56s-20.333 47 -21 75v305zM325.002 583.998
c-12 0 -24.833 -2.66699 -38.5 -8s-26.5 -12.5 -38.5 -21.5s-21.833 -20 -29.5 -33s-11.5 -26.833 -11.5 -41.5v-110h551c14.667 0 29 2.83301 43 8.5s26.167 13.167 36.5 22.5s18.666 20.5 24.999 33.5s9.5 27.167 9.5 42.5s-3.16699 29.5 -9.5 42.5s-15 24.333 -26 34
s-23.667 17.167 -38 22.5s-29.166 8 -44.499 8h-429z" />
    <glyph glyph-name="f" unicode="f" horiz-adv-x="1033" 
d="M263 531c-16 -16 -28.6689 -34.832 -38.002 -56.499s-14 -44.834 -14 -69.501v-7h707v-109h-707v-289h-110v405c0 40 7.5 77.333 22.5 112s35.5 65 61.5 91c26.667 26.667 57.334 47.5 92.001 62.5s72 22.5 112 22.5h571v-109h-571
c-25.333 0 -48.666 -4.83301 -69.999 -14.5s-40 -22.5 -56 -38.5z" />
    <glyph glyph-name="g" unicode="g" horiz-adv-x="1062" 
d="M182 82c-26 26 -46.333 56.168 -61 90.501s-22 70.5 -22 108.5v129c0 38.667 7.5 75.167 22.5 109.5s35.167 64.166 60.5 89.499s55.166 45.5 89.499 60.5s70.833 22.5 109.5 22.5h560v-108h-560c-24 0 -46.667 -4.5 -68 -13.5s-39.833 -21.333 -55.5 -37
s-28.167 -34 -37.5 -55s-14 -43.5 -14 -67.5v-130c0 -23.333 4.5 -45.5 13.5 -66.5s21.333 -39.5 37 -55.5s34 -28.667 55 -38s43.5 -14 67.5 -14h454v181h-414v107h522v-395h-560c-38.667 -0 -75.167 7.33301 -109.5 22s-64.166 34.667 -89.499 60z" />
    <glyph glyph-name="h" unicode="h" 
d="M841 599c26 -25.333 46.334 -55.167 61.001 -89.5s22 -70.833 22 -109.5v-400h-107v400c0 25.333 -4.66699 48.666 -14 69.999s-21.833 39.833 -37.5 55.5s-34.167 27.834 -55.5 36.501s-44 13 -68 13h-262c-24.667 0 -47.667 -4.5 -69 -13.5
s-39.666 -21.5 -54.999 -37.5s-27.5 -34.667 -36.5 -56s-13.5 -44 -13.5 -68v-400h-107v832h107v-210c24 19.333 50.667 34.333 80 45s60.666 16 93.999 16h262c38.667 0 75.167 -7.5 109.5 -22.5s64.166 -35.5 89.499 -61.5z" />
    <glyph glyph-name="i" unicode="i" horiz-adv-x="265" 
d="M88 0v693h110v-693h-110z" />
    <glyph glyph-name="j" unicode="j" horiz-adv-x="1021" 
d="M214 692h711v-411c0 -38 -7.33301 -74.167 -22 -108.5s-35 -64.5 -61 -90.5c-25.333 -25.333 -55 -45.333 -89 -60s-70.333 -22 -109 -22h-262c-39.333 -0 -76 7.33301 -110 22s-63.667 34.667 -89 60c-26 26 -46.333 56.167 -61 90.5s-22 70.5 -22 108.5v74h107v-74
c0 -23.333 4.5 -45.5 13.5 -66.5s21.333 -39.5 37 -55.5s34 -28.667 55 -38s43.5 -14 67.5 -14h264c23.333 0 45.5 4.5 66.5 13.5s39.5 21.333 55.5 37s28.667 34 38 55s14 43.5 14 67.5v304h-604v108z" />
    <glyph glyph-name="k" unicode="k" horiz-adv-x="1087" 
d="M744 386c30 -8 57.6689 -20.667 83.002 -38s47.166 -38 65.499 -62s32.666 -50.667 42.999 -80s15.5 -60 15.5 -92v-114h-107v116c0 23.333 -4.66699 45.5 -14 66.5s-22 39.333 -38 55s-34.5 28 -55.5 37s-43.5 13.5 -67.5 13.5h-463v-288h-107v692h107v-296h404
l123.5 148l122.5 148h146z" />
    <glyph glyph-name="l" unicode="l" horiz-adv-x="969" 
d="M207 692v-409.999c0 -24 4.5 -46.667 13.5 -68s21.333 -39.833 37 -55.5s34.167 -28.167 55.5 -37.5s44 -14 68 -14h560v-107h-560c-38.667 0 -75 7.33301 -109 22s-64 35 -90 61c-25.333 25.333 -45.333 55.166 -60 89.499s-22 70.833 -22 109.5v410h107z" />
    <glyph glyph-name="m" unicode="m" horiz-adv-x="1508" 
d="M1106 692c38.667 0 75 -7.49902 109 -22.499s63.667 -35.167 89 -60.5s45.5 -55.333 60.5 -90s22.5 -71.334 22.5 -110.001v-409h-107v409c0 24 -4.5 46.5 -13.5 67.5s-21.333 39.5 -37 55.5s-34 28.667 -55 38s-43.167 14 -66.5 14h-337v-584h-108v584h-449v-584h-107
v692h999v0z" />
    <glyph glyph-name="n" unicode="n" 
d="M641 692c38.667 0 74.999 -7.49902 108.999 -22.499s63.833 -35.167 89.5 -60.5s45.834 -55.333 60.501 -90s22 -71.334 22 -110.001v-409h-107v409c0 24 -4.5 46.5 -13.5 67.5s-21.333 39.5 -37 55.5s-34 28.667 -55 38s-43.167 14 -66.5 14h-439v-584h-107v692h544z
" />
    <glyph glyph-name="o" unicode="o" horiz-adv-x="1248" 
d="M391 0c-40 0 -77.5 7.5 -112.5 22.5s-65.5 35.5 -91.5 61.5s-46.5 56.5 -61.5 91.5s-22.5 72.5 -22.5 112.5v118c0 39.333 7.5 76.5 22.5 111.5s35.5 65.5 61.5 91.5s56.5 46.5 91.5 61.5s72.5 22.5 112.5 22.5h486c40 0 77.5 -7.5 112.5 -22.5s65.5 -35.5 91.5 -61.5
s46.5 -56.5 61.5 -91.5s22.5 -72.167 22.5 -111.5v-118c0 -40 -7.5 -77.5 -22.5 -112.5s-35.5 -65.5 -61.5 -91.5s-56.5 -46.5 -91.5 -61.5s-72.5 -22.5 -112.5 -22.5h-486zM213 288c0 -24.667 4.66699 -47.834 14 -69.501s22 -40.5 38 -56.5s34.833 -28.667 56.5 -38
s44.834 -14 69.501 -14h486c24.667 0 47.834 4.66699 69.501 14s40.667 22 57 38s29.166 34.833 38.499 56.5s14 44.834 14 69.501v118c0 24 -4.66699 46.833 -14 68.5s-22.166 40.667 -38.499 57s-35.333 29.166 -57 38.499s-44.834 14 -69.501 14h-486
c-24.667 0 -47.834 -4.66699 -69.501 -14s-40.5 -22.166 -56.5 -38.499s-28.667 -35.333 -38 -57s-14 -44.5 -14 -68.5v-118z" />
    <glyph glyph-name="p" unicode="p" horiz-adv-x="1111" 
d="M212 0h-109.001v692h693c29.333 0 57.333 -5.66699 84 -17s50 -26.833 70 -46.5s36 -42.5 48 -68.5s18 -53.667 18 -83c0 -30 -6.16699 -58 -18.5 -84s-28.833 -48.833 -49.5 -68.5s-44.667 -35 -72 -46s-55.666 -16.5 -84.999 -16.5h-579v-262zM792.999 369
c15.333 0 29.834 2.83105 43.501 8.49805s25.667 13.334 36 23.001s18.833 21 25.5 34s10.334 27.167 11.001 42.5c-0.666992 14.667 -4.33398 28.5 -11.001 41.5s-15.334 24.333 -26.001 34s-23 17.334 -37 23.001s-28.667 8.5 -44 8.5h-579v-215h581z" />
    <glyph glyph-name="q" unicode="q" horiz-adv-x="1248" 
d="M561 -139v139h-182c-38.667 -0 -75 7.33301 -109 22s-63.833 34.834 -89.5 60.501s-45.834 55.5 -60.501 89.5s-22 70.333 -22 109v128c0 38.667 7.33301 75.167 22 109.5s34.834 64.166 60.501 89.499s55.5 45.5 89.5 60.5s70.333 22.5 109 22.5h476
c38.667 0 75.334 -7.5 110.001 -22.5s64.667 -35.167 90 -60.5s45.5 -55.166 60.5 -89.499s22.5 -70.833 22.5 -109.5v-128c0 -38.667 -7.5 -75 -22.5 -109s-35.167 -63.833 -60.5 -89.5s-55.333 -45.834 -90 -60.501s-71.334 -22 -110.001 -22h-187v-139h-107zM205 281
c0 -24 4.66699 -46.5 14 -67.5s21.833 -39.333 37.5 -55s34 -28.167 55 -37.5s43.5 -14 67.5 -14h182v127h107v-127h187c24 0 46.667 4.66699 68 14s40 21.833 56 37.5s28.5 34 37.5 55s13.5 43.5 13.5 67.5v128c0 24 -4.5 46.5 -13.5 67.5s-21.5 39.333 -37.5 55
s-34.667 28.167 -56 37.5s-44 14 -68 14h-476c-24 0 -46.5 -4.66699 -67.5 -14s-39.333 -21.833 -55 -37.5s-28.167 -34 -37.5 -55s-14 -43.5 -14 -67.5v-128z" />
    <glyph glyph-name="r" unicode="r" horiz-adv-x="890" 
d="M99 0v409.001c0 38.667 7.33301 75.167 22 109.5s34.667 64.166 60 89.499s55 45.5 89 60.5s70.667 22.5 110 22.5h494v-108h-494c-24 0 -46.5 -4.5 -67.5 -13.5s-39.333 -21.5 -55 -37.5s-28.167 -34.5 -37.5 -55.5s-14 -43.5 -14 -67.5v-409h-107z" />
    <glyph glyph-name="s" unicode="s" horiz-adv-x="1018" 
d="M89 0v110.003h645c12.667 0 24.5 2.33301 35.5 7s20.5 11.167 28.5 19.5s14.333 18 19 29s7 22.833 7 35.5c0 25.333 -8.66699 46.833 -26 64.5s-38.666 26.5 -63.999 26.5h-480c-27.333 0 -53.166 5.16699 -77.499 15.5s-45.666 24.666 -63.999 42.999
s-32.833 39.666 -43.5 63.999s-16 50.5 -16 78.5s5.16699 54.167 15.5 78.5s24.666 45.666 42.999 63.999s39.666 32.833 63.999 43.5s50.5 16 78.5 16h644v-109h-644c-26 0 -47.167 -8.83301 -63.5 -26.5s-25.5 -38.834 -27.5 -63.501c2 -26.667 11.5 -49 28.5 -67
s37.833 -27 62.5 -27h480c27.333 0 53.166 -5.33301 77.499 -16s45.5 -25 63.5 -43s32.333 -39.167 43 -63.5s16 -50.166 16 -77.499c0 -28 -5.16699 -54.333 -15.5 -79s-24.5 -46 -42.5 -64s-39.167 -32.333 -63.5 -43s-50.5 -16 -78.5 -16h-645z" />
    <glyph glyph-name="t" unicode="t" horiz-adv-x="1043" 
d="M820 477l-613 0.000976562v-195c0 -24 4.5 -46.667 13.5 -68s21.333 -39.833 37 -55.5s34 -28.167 55 -37.5s43.833 -14 68.5 -14h560v-107h-560c-38.667 0 -75 7.33301 -109 22s-64 35 -90 61c-25.333 25.333 -45.333 55.166 -60 89.499s-22 70.833 -22 109.5v410h107
v-107h613v-108z" />
    <glyph glyph-name="u" unicode="u" horiz-adv-x="1031" 
d="M382 0c-38.667 0 -74.999 7.5 -108.999 22.5s-63.833 35.167 -89.5 60.5s-45.834 55.166 -60.501 89.499s-22 70.833 -22 109.5v410h107v-410c0 -23.333 4.5 -45.666 13.5 -66.999s21.333 -40 37 -56s34 -28.667 55 -38s43.167 -14 66.5 -14h439v585h107v-692h-544z" />
    <glyph glyph-name="v" unicode="v" horiz-adv-x="1172" 
d="M530 0l-513 692h134l407 -553l206.5 276.5l205.5 276.5h136l-519 -692h-57z" />
    <glyph glyph-name="w" unicode="w" horiz-adv-x="1508" 
d="M384 0c-38.667 0 -74.999 7.5 -108.999 22.5s-63.833 35.167 -89.5 60.5s-45.834 55.166 -60.501 89.499s-22 70.833 -22 109.5v410h107v-410c0 -23.333 4.5 -45.666 13.5 -66.999s21.333 -40 37 -56s34 -28.667 55 -38s43.167 -14 66.5 -14h337v585h108v-585h449v585
h107v-692h-999v0z" />
    <glyph glyph-name="x" unicode="x" 
d="M859 320c26.667 -26.667 47.4971 -57.333 62.4971 -92s22.5 -72 22.5 -112v-116h-110v116c0 24 -4.66699 46.833 -14 68.5s-22 40.667 -38 57s-34.667 29.166 -56 38.499s-44.333 14 -69 14h-270c-24 0 -46.667 -4.66699 -68 -14s-40.166 -22 -56.499 -38
s-29.166 -34.667 -38.499 -56s-14 -44 -14 -68v-118h-110v116c0 40 7.5 77.333 22.5 112s35.833 65.334 62.5 92.001c5.33301 5.33301 10.833 10.5 16.5 15.5s11.167 9.5 16.5 13.5c-13.333 10 -24.666 19.667 -33.999 29h1c-26.667 26.667 -47.5 57.334 -62.5 92.001
s-22.5 72 -22.5 112v111h110v-111c0 -24 4.66699 -46.833 14 -68.5s22 -40.667 38 -57s34.667 -29.166 56 -38.499s44.333 -14 69 -14h277c23.333 0 45.333 4.83301 66 14.5s38.667 22.5 54 38.5s27.5 34.667 36.5 56s13.5 43.666 13.5 66.999v113h110v-111
c0 -40 -7.5 -77.333 -22.5 -112s-35.833 -65.334 -62.5 -92.001l-17 -15.5c-5.33301 -5 -11 -9.83301 -17 -14.5c7.33301 -4.66699 13.5 -9.16699 18.5 -13.5l15.5 -13.5v-1z" />
    <glyph glyph-name="y" unicode="y" 
d="M924 692v-410.999c0 -38.667 -7.33301 -75 -22 -109s-34.667 -63.833 -60 -89.5s-55.166 -45.834 -89.499 -60.501s-70.833 -22 -109.5 -22h-494v107h494c23.333 0 45.5 4.5 66.5 13.5s39.333 21.167 55 36.5s28.167 33.5 37.5 54.5s14.333 43.167 15 66.5h-437
c-38.667 0 -75 7.5 -109 22.5s-63.833 35.167 -89.5 60.5s-45.834 55.166 -60.501 89.499s-22 70.833 -22 109.5v132h107v-132c0 -23.333 4.5 -45.666 13.5 -66.999s21.333 -40 37 -56s34 -28.667 55 -38s43.167 -14 66.5 -14h439v307h107z" />
    <glyph glyph-name="z" unicode="z" horiz-adv-x="1131" 
d="M100 0v100l716 485h-714v108h931v-95l-726 -491h713v-107h-920z" />
    <glyph glyph-name="braceleft" unicode="{" horiz-adv-x="626" 
 />
    <glyph glyph-name="bar" unicode="|" horiz-adv-x="425" 
d="M156 731h97v-777h-97v777z" />
    <glyph glyph-name="braceright" unicode="}" horiz-adv-x="626" 
 />
    <glyph glyph-name="asciitilde" unicode="~" horiz-adv-x="705" 
d="M562 443c-14 0 -29.333 2.33398 -46 7.00098s-32.667 11 -48 19l-108 54.5l-109 55.5c-14.667 7.33301 -26.667 11 -36 11c-1.33301 0 -3 -1.16699 -5 -3.5s-3 -8.5 -3 -18.5v-109h-108v103c0 41.333 10.667 73.333 32 96c20 21.333 46.667 32 80 32
c14.667 0 30 -2.33301 46 -7s32 -10.667 48 -18l217 -110c14.667 -8.66699 26.667 -13 36 -13c2 0 3.83301 1.33301 5.5 4s2.5 8.66699 2.5 18v110h108v-104c0 -40.667 -10.667 -72.334 -32 -95.001c-19.333 -21.333 -46 -32 -80 -32z" />
    <glyph glyph-name="uni00A0" unicode="&#xa0;" horiz-adv-x="375" 
 />
    <glyph glyph-name="exclamdown" unicode="&#xa1;" horiz-adv-x="389" 
d="M160 0v490h69v-490h-69zM160 576v124h69v-124h-69z" />
    <glyph glyph-name="sterling" unicode="&#xa3;" horiz-adv-x="1126" 
d="M987 107l-0.000976562 -107.002h-870v107c22 0 39.833 1 53.5 3s24.334 6.16699 32.001 12.5s12.834 15.5 15.501 27.5s4.33398 27.667 5.00098 47h-90v108h90v13h-90v106h90c2 36.667 10.667 71.334 26 104.001s35.666 61 60.999 85s54.666 43 87.999 57s69 21 107 21
h459v-107h-459c-22.667 0 -44.167 -4.16699 -64.5 -12.5s-38.333 -19.666 -54 -33.999s-28.5 -31.333 -38.5 -51s-16 -40.5 -18 -62.5h498v-106h-498v-13h498v-108h-498c0 -36 -4 -66 -12 -90h669z" />
    <glyph glyph-name="dieresis" unicode="&#xa8;" horiz-adv-x="593" 
d="M98 731v121h116v-121h-116zM366 731v121h117v-121h-117z" />
    <glyph glyph-name="copyright" unicode="&#xa9;" horiz-adv-x="1220" 
 />
    <glyph glyph-name="guillemotleft" unicode="&#xab;" horiz-adv-x="0" 
 />
    <glyph glyph-name="registered" unicode="&#xae;" horiz-adv-x="0" 
 />
    <glyph glyph-name="macron" unicode="&#xaf;" horiz-adv-x="658" 
d="M100 837h463v-76h-463v76z" />
    <glyph glyph-name="macron" unicode="&#x2c9;" horiz-adv-x="658" 
d="M100 837h463v-76h-463v76z" />
    <glyph glyph-name="twosuperior" unicode="&#xb2;" horiz-adv-x="591" 
 />
    <glyph glyph-name="threesuperior" unicode="&#xb3;" horiz-adv-x="591" 
 />
    <glyph glyph-name="acute" unicode="&#xb4;" horiz-adv-x="521" 
d="M417 866l-202 -201l-76 76l202 200z" />
    <glyph glyph-name="periodcentered" unicode="&#xb7;" horiz-adv-x="292" 
d="M100 291v89h92v-89h-92z" />
    <glyph glyph-name="periodcentered" unicode="&#x2219;" horiz-adv-x="292" 
d="M100 291v89h92v-89h-92z" />
    <glyph glyph-name="cedilla" unicode="&#xb8;" horiz-adv-x="477" 
d="M98 -258v102.999h112c11.333 0 20.5 4.16699 27.5 12.5s10.5 17.833 10.5 28.5v115h103v-115c0 -18.667 -3.83301 -36.667 -11.5 -54s-18 -32.666 -31 -45.999s-28.167 -24 -45.5 -32s-36 -12 -56 -12h-109z" />
    <glyph glyph-name="guillemotright" unicode="&#xbb;" horiz-adv-x="0" 
 />
    <glyph glyph-name="onequarter" unicode="&#xbc;" horiz-adv-x="1108" 
 />
    <glyph glyph-name="onehalf" unicode="&#xbd;" horiz-adv-x="1120" 
 />
    <glyph glyph-name="threequarters" unicode="&#xbe;" horiz-adv-x="1268" 
 />
    <glyph glyph-name="questiondown" unicode="&#xbf;" horiz-adv-x="1035" 
d="M213 257c0 5.33301 1.17285 9.50195 3.50586 12.502s5.16602 5.16699 8.49902 6.5c3.33301 2 7.66602 3.33301 12.999 4h262c6.66699 0 19 1.16699 37 3.5s36.5 8.66602 55.5 18.999s35.833 26.5 50.5 48.5s22 52.667 22 92v109h-107v-109
c0 -2.66699 -0.333008 -7 -1 -13s-2.83398 -12.167 -6.50098 -18.5s-9.33398 -12 -17.001 -17s-18.5 -7.5 -32.5 -7.5h-268c-24 -2 -45.333 -7.66699 -64 -17c-16 -8 -30.5 -20.167 -43.5 -36.5s-19.5 -39.5 -19.5 -69.5v-73c0 -38 7.66699 -67.5 23 -88.5
s33 -36.667 53 -47s39.167 -16.666 57.5 -18.999s30.5 -3.5 36.5 -3.5h500c6 0 14.167 0.5 24.5 1.5s21.666 3.16699 33.999 6.5s24.833 8.5 37.5 15.5s24.167 16.333 34.5 28s18.666 26.167 24.999 43.5s9.5 38.333 9.5 63v101h-107v-101
c0 -2.66699 -0.5 -6.66699 -1.5 -12s-3.5 -10.833 -7.5 -16.5s-10.333 -10.667 -19 -15s-20.334 -6.5 -35.001 -6.5h-495c-15.333 0 -27.166 2.16699 -35.499 6.5s-14.5 9.16602 -18.5 14.499s-6.5 10.666 -7.5 15.999s-1.5 9 -1.5 11v68zM665.006 713.002v-106h-107v106
h107z" />
    <glyph glyph-name="Agrave" unicode="&#xc0;" horiz-adv-x="1072" 
d="M455 993l201 -200l-75 -76l-202 201zM910 609c26 -26.667 46.666 -57.333 61.999 -92s23 -71.667 23 -111v-406h-110v301h-676v-301h-109v406c0 40 7.66699 77.333 23 112s36 65 62 91s56.333 46.5 91 61.5s71.667 22.5 111 22.5h320c39.333 0 76.333 -7.5 111 -22.5
s65.334 -35.5 92.001 -61.5zM384.999 584.001c-23.333 0 -45.498 -4.66699 -66.498 -14s-39.5 -21.833 -55.5 -37.5s-28.833 -34 -38.5 -55s-14.834 -43.167 -15.501 -66.5h676c-0.666992 23.333 -5.83398 45.5 -15.501 66.5s-22.5 39.333 -38.5 55s-34.667 28.167 -56 37.5
s-44 14 -68 14h-322z" />
    <glyph glyph-name="Aacute" unicode="&#xc1;" horiz-adv-x="1072" 
d="M683 937l-202 -201l-76 76l202 200zM910 609c26 -26.667 46.666 -57.333 61.999 -92s23 -71.667 23 -111v-406h-110v301h-676v-301h-109v406c0 40 7.66699 77.333 23 112s36 65 62 91s56.333 46.5 91 61.5s71.667 22.5 111 22.5h320c39.333 0 76.333 -7.5 111 -22.5
s65.334 -35.5 92.001 -61.5zM384.999 584.001c-23.333 0 -45.498 -4.66699 -66.498 -14s-39.5 -21.833 -55.5 -37.5s-28.833 -34 -38.5 -55s-14.834 -43.167 -15.501 -66.5h676c-0.666992 23.333 -5.83398 45.5 -15.501 66.5s-22.5 39.333 -38.5 55s-34.667 28.167 -56 37.5
s-44 14 -68 14h-322z" />
    <glyph glyph-name="Acircumflex" unicode="&#xc2;" horiz-adv-x="1072" 
d="M548 853l-284 -135l-33 69l317 150l317 -150l-33 -69zM910 609c26 -26.667 46.666 -57.333 61.999 -92s23 -71.667 23 -111v-406h-110v301h-676v-301h-109v406c0 40 7.66699 77.333 23 112s36 65 62 91s56.333 46.5 91 61.5s71.667 22.5 111 22.5h320
c39.333 0 76.333 -7.5 111 -22.5s65.334 -35.5 92.001 -61.5zM384.999 584.001c-23.333 0 -45.498 -4.66699 -66.498 -14s-39.5 -21.833 -55.5 -37.5s-28.833 -34 -38.5 -55s-14.834 -43.167 -15.501 -66.5h676c-0.666992 23.333 -5.83398 45.5 -15.501 66.5
s-22.5 39.333 -38.5 55s-34.667 28.167 -56 37.5s-44 14 -68 14h-322z" />
    <glyph glyph-name="Atilde" unicode="&#xc3;" horiz-adv-x="1072" 
d="M702 713c-14 0 -28.3311 1.83398 -42.998 5.50098s-29.334 9.5 -44.001 17.5h1l-98 50l-98 49c-6.66699 3.33301 -12.5 5.66602 -17.5 6.99902s-9.5 2 -13.5 2c-1.33301 0 -2.66602 -0.666992 -3.99902 -2s-2 -6 -2 -14v-101h-101v102c0 19.333 2.5 36.333 7.5 51
s12.167 27 21.5 37c20 18.667 44.667 28 74 28c28 0 56.333 -7.66699 85 -23l98 -49l98 -50c13.333 -6.66699 23.666 -10 30.999 -10c1.33301 0 2.66602 1 3.99902 3s2 6.66699 2 14v101h102v-102c0 -37.333 -10.333 -66.333 -31 -87h1c-18.667 -19.333 -43 -29 -73 -29z
M910.002 609.001c26 -26.667 46.666 -57.333 61.999 -92s23 -71.667 23 -111v-406h-110v301h-676v-301h-109v406c0 40 7.66699 77.333 23 112s36 65 62 91s56.333 46.5 91 61.5s71.667 22.5 111 22.5h320c39.333 0 76.333 -7.5 111 -22.5s65.334 -35.5 92.001 -61.5z
M385.001 584.002c-23.333 0 -45.498 -4.66699 -66.498 -14s-39.5 -21.833 -55.5 -37.5s-28.833 -34 -38.5 -55s-14.834 -43.167 -15.501 -66.5h676c-0.666992 23.333 -5.83398 45.5 -15.501 66.5s-22.5 39.333 -38.5 55s-34.667 28.167 -56 37.5s-44 14 -68 14h-322z" />
    <glyph glyph-name="Adieresis" unicode="&#xc4;" horiz-adv-x="1076" 
d="M910 609c26 -26.667 46.666 -57.333 61.999 -92s23 -71.667 23 -111v-406h-110v301h-676v-301h-109v406c0 40 7.66699 77.333 23 112s36 65 62 91s56.333 46.5 91 61.5s71.667 22.5 111 22.5h320c39.333 0 76.333 -7.5 111 -22.5s65.334 -35.5 92.001 -61.5z
M384.999 584.001c-23.333 0 -45.498 -4.66699 -66.498 -14s-39.5 -21.833 -55.5 -37.5s-28.833 -34 -38.5 -55s-14.834 -43.167 -15.501 -66.5h676c-0.666992 23.333 -5.83398 45.5 -15.501 66.5s-22.5 39.333 -38.5 55s-34.667 28.167 -56 37.5s-44 14 -68 14h-322z
M367.001 731.001v121h116v-121h-116zM635.001 731.001v121h117v-121h-117z" />
    <glyph glyph-name="Aring" unicode="&#xc5;" horiz-adv-x="1071" 
d="M910 609c26 -26.667 46.666 -57.333 61.999 -92s23 -71.667 23 -111v-406h-110v301h-676v-301h-109v406c0 40 7.66699 77.333 23 112s36 65 62 91s56.333 46.5 91 61.5s71.667 22.5 111 22.5h320c39.333 0 76.333 -7.5 111 -22.5s65.334 -35.5 92.001 -61.5z
M384.999 584.001c-23.333 0 -45.498 -4.66699 -66.498 -14s-39.5 -21.833 -55.5 -37.5s-28.833 -34 -38.5 -55s-14.834 -43.167 -15.501 -66.5h676c-0.666992 23.333 -5.83398 45.5 -15.501 66.5s-22.5 39.333 -38.5 55s-34.667 28.167 -56 37.5s-44 14 -68 14h-322z
M481.291 740.493c-32.9795 0 -61.2471 11.7969 -84.8027 35.3906c-11.1895 11.207 -19.876 24.0361 -26.0596 38.4873s-9.27539 29.9346 -9.27539 46.4502v11.502c0 16.5156 3.0918 32.1465 9.27539 46.8926s14.7227 27.5752 25.6182 38.4873
c10.8945 10.9121 23.7031 19.6123 38.4258 26.1006s30.3291 9.73242 46.8184 9.73242h121.021c16.4893 0 32.0957 -3.24414 46.8184 -9.73242s27.5312 -15.1885 38.4258 -26.1006c10.8955 -10.9121 19.582 -23.7412 26.0596 -38.4873s9.7168 -30.377 9.7168 -46.8926
v-11.502c0 -16.5156 -3.0918 -31.999 -9.27539 -46.4502s-14.8701 -27.1328 -26.0596 -38.0449c-11.1885 -10.9121 -24.1445 -19.6123 -38.8672 -26.1006s-30.3291 -9.73242 -46.8184 -9.73242h-121.021zM453.906 900.636
c-7.65527 -7.66797 -11.4834 -17.1055 -11.4834 -28.3125v-11.502c0 -11.207 3.68066 -20.4971 11.042 -27.8701s16.6367 -11.0596 27.8262 -11.0596h121.021c11.1895 0 20.7588 3.68652 28.709 11.0596s11.9258 16.6631 11.9258 27.8701v11.502
c0 11.207 -3.97559 20.6445 -11.9258 28.3125s-17.5195 11.502 -28.709 11.502h-121.021c-5.88965 0 -11.1895 -1.17969 -15.9004 -3.53906c-4.71191 -2.35938 -8.54004 -5.01367 -11.4844 -7.96289z" />
    <glyph glyph-name="AE" unicode="&#xc6;" horiz-adv-x="2133" 
d="M923 610c25.333 -26 45.501 -56.167 60.501 -90.5s22.5 -71.166 22.5 -110.499v-409h-76v318h-754v-318h-76v409c0 39.333 7.5 76.166 22.5 110.499s35.5 64.333 61.5 90s56.167 46 90.5 61s70.833 22.5 109.5 22.5h338c39.333 0 76.166 -7.5 110.499 -22.5
s64.5 -35.167 90.5 -60.5zM930.001 394v17c0 28 -5.5 54.5 -16.5 79.5s-26 46.833 -45 65.5s-41.167 33.5 -66.5 44.5s-52 16.5 -80 16.5h-340c-28 0 -54.5 -5.5 -79.5 -16.5s-46.833 -26 -65.5 -45s-33.5 -41 -44.5 -66s-16.5 -51.833 -16.5 -80.5v-15h754zM1308 556
c-19.333 -19.333 -34.334 -41.499 -45.001 -66.499s-16 -51.833 -16 -80.5v-25h793v-76h-793v-26c0 -28 5.5 -54.5 16.5 -79.5s26 -46.833 45 -65.5s41.167 -33.5 66.5 -44.5s52 -16.5 80 -16.5h585v-76h-585c-39.333 0 -76.166 7.5 -110.499 22.5s-64.333 35.5 -90 61.5
s-46 56.167 -61 90.5s-22.5 70.833 -22.5 109.5v125c0 39.333 7.5 76.166 22.5 110.499s35.5 64.333 61.5 90s56.167 46 90.5 61s70.833 22.5 109.5 22.5h585v-76h-585c-28.667 0 -55.5 -5.33301 -80.5 -16s-47.167 -25.667 -66.5 -45z" />
    <glyph glyph-name="Ccedilla" unicode="&#xc7;" horiz-adv-x="1143" 
d="M403 -256v102.999h112c11.333 0 20.5 4.16699 27.5 12.5s10.5 17.833 10.5 28.5v115h103v-115c0 -18.667 -3.83301 -36.667 -11.5 -54s-18 -32.666 -31 -45.999s-28.167 -24 -45.5 -32s-36 -12 -56 -12h-109zM185 83.999c-26.667 26.667 -47.499 57.3311 -62.499 91.998
s-22.5 72 -22.5 112v118c0 39.333 7.66699 76.5 23 111.5s36 65.5 62 91.5s56.5 46.5 91.5 61.5s72.5 22.5 112.5 22.5h571v-109h-571c-24.667 0 -47.834 -4.66699 -69.501 -14s-40.5 -22.166 -56.5 -38.499s-28.833 -35.333 -38.5 -57s-14.5 -44.5 -14.5 -68.5v-118
c0 -24 4.66699 -46.833 14 -68.5s22 -40.667 38 -57s34.667 -29.166 56 -38.499s44.333 -14 69 -14h573v-110h-571c-40 0 -77.5 7.5 -112.5 22.5s-65.5 35.5 -91.5 61.5z" />
    <glyph glyph-name="Egrave" unicode="&#xc8;" horiz-adv-x="1057" 
d="M473 993l201 -200l-75 -76l-202 201zM263 532c-16 -16.667 -28.667 -35.667 -38 -57s-14 -44.333 -14 -69v-5h750v-110h-750v-5c0 -24 4.66699 -46.667 14 -68s22.166 -40 38.499 -56s35.333 -28.667 57 -38s44.5 -14 68.5 -14h572v-110h-572
c-40 0 -77.5 7.66699 -112.5 23s-65.5 36 -91.5 62s-46.5 56.5 -61.5 91.5s-22.5 72.167 -22.5 111.5v118c0 40 7.66699 77.333 23 112s36 65 62 91s56.5 46.5 91.5 61.5s72.167 22.5 111.5 22.5h572v-109h-572c-25.333 0 -48.666 -4.66699 -69.999 -14s-40 -22 -56 -38z
" />
    <glyph glyph-name="Eacute" unicode="&#xc9;" horiz-adv-x="1057" 
d="M735 868l-202 -201l-76 76l202 200zM263 532c-16 -16.667 -28.667 -35.667 -38 -57s-14 -44.333 -14 -69v-5h750v-110h-750v-5c0 -24 4.66699 -46.667 14 -68s22.166 -40 38.499 -56s35.333 -28.667 57 -38s44.5 -14 68.5 -14h572v-110h-572
c-40 0 -77.5 7.66699 -112.5 23s-65.5 36 -91.5 62s-46.5 56.5 -61.5 91.5s-22.5 72.167 -22.5 111.5v118c0 40 7.66699 77.333 23 112s36 65 62 91s56.5 46.5 91.5 61.5s72.167 22.5 111.5 22.5h572v-109h-572c-25.333 0 -48.666 -4.66699 -69.999 -14s-40 -22 -56 -38z
" />
    <glyph glyph-name="Ecircumflex" unicode="&#xca;" horiz-adv-x="1057" 
d="M589 882l-284 -135l-33 69l317 150l317 -150l-33 -69zM263 532c-16 -16.667 -28.667 -35.667 -38 -57s-14 -44.333 -14 -69v-5h750v-110h-750v-5c0 -24 4.66699 -46.667 14 -68s22.166 -40 38.499 -56s35.333 -28.667 57 -38s44.5 -14 68.5 -14h572v-110h-572
c-40 0 -77.5 7.66699 -112.5 23s-65.5 36 -91.5 62s-46.5 56.5 -61.5 91.5s-22.5 72.167 -22.5 111.5v118c0 40 7.66699 77.333 23 112s36 65 62 91s56.5 46.5 91.5 61.5s72.167 22.5 111.5 22.5h572v-109h-572c-25.333 0 -48.666 -4.66699 -69.999 -14s-40 -22 -56 -38z
" />
    <glyph glyph-name="Edieresis" unicode="&#xcb;" horiz-adv-x="1057" 
d="M414 750v121h116v-121h-116zM682 750v121h117v-121h-117zM263 532c-16 -16.667 -28.667 -35.667 -38 -57s-14 -44.333 -14 -69v-5h750v-110h-750v-5c0 -24 4.66699 -46.667 14 -68s22.166 -40 38.499 -56s35.333 -28.667 57 -38s44.5 -14 68.5 -14h572v-110h-572
c-40 0 -77.5 7.66699 -112.5 23s-65.5 36 -91.5 62s-46.5 56.5 -61.5 91.5s-22.5 72.167 -22.5 111.5v118c0 40 7.66699 77.333 23 112s36 65 62 91s56.5 46.5 91.5 61.5s72.167 22.5 111.5 22.5h572v-109h-572c-25.333 0 -48.666 -4.66699 -69.999 -14s-40 -22 -56 -38z
" />
    <glyph glyph-name="Igrave" unicode="&#xcc;" horiz-adv-x="241" 
d="M88 0v693h110v-693h-110zM50 991l201 -200l-75 -76l-202 201z" />
    <glyph glyph-name="Iacute" unicode="&#xcd;" horiz-adv-x="241" 
d="M88 0v693h110v-693h-110zM248 866l-202 -201l-76 76l202 200z" />
    <glyph glyph-name="Icircumflex" unicode="&#xce;" horiz-adv-x="241" 
d="M88 0v693h110v-693h-110zM143 860l-284 -135l-33 69l317 150l317 -150l-33 -69z" />
    <glyph glyph-name="Idieresis" unicode="&#xcf;" horiz-adv-x="260" 
d="M88 0v693h110v-693h-110zM-41 743v121h116v-121h-116zM227 743v121h117v-121h-117z" />
    <glyph glyph-name="Eth" unicode="&#xd0;" horiz-adv-x="1233" 
d="M843 693c40 0 77.333 -7.66699 112 -23s65 -36 91 -62s46.5 -56.333 61.5 -91s22.5 -71.667 22.5 -111v-118c0 -40 -7.66699 -77.5 -23 -112.5s-36 -65.5 -62 -91.5s-56.333 -46.5 -91 -61.5s-71.667 -22.5 -111 -22.5h-605v292h-183v110h183v291h605zM1020 408
c0 24 -4.66895 46.666 -14.002 67.999s-22.166 40 -38.499 56s-35.166 28.667 -56.499 38s-44 14 -68 14h-495v-182h232v-110h-232v-182h496c24 0 46.667 4.66699 68 14s40 22 56 38s28.667 34.833 38 56.5s14 44.834 14 69.501v120z" />
    <glyph glyph-name="Ntilde" unicode="&#xd1;" horiz-adv-x="1163" 
d="M737 713c-14 0 -28.3311 1.83398 -42.998 5.50098s-29.334 9.5 -44.001 17.5h1l-98 50l-98 49c-6.66699 3.33301 -12.5 5.66602 -17.5 6.99902s-9.5 2 -13.5 2c-1.33301 0 -2.66602 -0.666992 -3.99902 -2s-2 -6 -2 -14v-101h-101v102c0 19.333 2.5 36.333 7.5 51
s12.167 27 21.5 37c20 18.667 44.667 28 74 28c28 0 56.333 -7.66699 85 -23l98 -49l98 -50c13.333 -6.66699 23.666 -10 30.999 -10c1.33301 0 2.66602 1 3.99902 3s2 6.66699 2 14v101h102v-102c0 -37.333 -10.333 -66.333 -31 -87h1c-18.667 -19.333 -43 -29 -73 -29z
M785.002 8.00098c-9.33301 4 -18.001 8.99902 -26.001 14.999s-16.333 14 -25 24l-110.5 129l-116 137l-116 136.5l-109.5 129.5c-8 8 -18 12 -30 12c-10.667 0 -20.167 -2.66699 -28.5 -8s-12.833 -13.666 -13.5 -24.999v-558h-109v566l1 3
c1.33301 20.667 6.5 39.334 15.5 56.001s20.667 30.667 35 42s30.333 20 48 26s35.5 9 53.5 9c21.333 0 41.833 -4.16699 61.5 -12.5s36.834 -22.166 51.501 -41.499l225 -265l226 -266c3.33301 -3.33301 7.83301 -6.33301 13.5 -9s11.167 -4 16.5 -4c9.33301 0 18 3 26 9
s13 14 15 24v558h110v-566c-2 -20.667 -7.66699 -39.334 -17 -56.001s-20.833 -31 -34.5 -43s-29.167 -21.167 -46.5 -27.5s-35.333 -9.5 -54 -9.5c-10 0 -20.5 1.16699 -31.5 3.5s-21.167 6.16602 -30.5 11.499z" />
    <glyph glyph-name="Ograve" unicode="&#xd2;" horiz-adv-x="1224" 
d="M511 993l201 -200l-75 -76l-202 201zM391 0c-40 0 -77.5 7.5 -112.5 22.5s-65.5 35.5 -91.5 61.5s-46.5 56.5 -61.5 91.5s-22.5 72.5 -22.5 112.5v118c0 39.333 7.5 76.5 22.5 111.5s35.5 65.5 61.5 91.5s56.5 46.5 91.5 61.5s72.5 22.5 112.5 22.5h486
c40 0 77.5 -7.5 112.5 -22.5s65.5 -35.5 91.5 -61.5s46.5 -56.5 61.5 -91.5s22.5 -72.167 22.5 -111.5v-118c0 -40 -7.5 -77.5 -22.5 -112.5s-35.5 -65.5 -61.5 -91.5s-56.5 -46.5 -91.5 -61.5s-72.5 -22.5 -112.5 -22.5h-486zM213 288
c0 -24.667 4.66699 -47.834 14 -69.501s22 -40.5 38 -56.5s34.833 -28.667 56.5 -38s44.834 -14 69.501 -14h486c24.667 0 47.834 4.66699 69.501 14s40.667 22 57 38s29.166 34.833 38.499 56.5s14 44.834 14 69.501v118c0 24 -4.66699 46.833 -14 68.5
s-22.166 40.667 -38.499 57s-35.333 29.166 -57 38.499s-44.834 14 -69.501 14h-486c-24.667 0 -47.834 -4.66699 -69.501 -14s-40.5 -22.166 -56.5 -38.499s-28.667 -35.333 -38 -57s-14 -44.5 -14 -68.5v-118z" />
    <glyph glyph-name="Oacute" unicode="&#xd3;" horiz-adv-x="1224" 
d="M819 868l-202 -201l-76 76l202 200zM391 0c-40 0 -77.5 7.5 -112.5 22.5s-65.5 35.5 -91.5 61.5s-46.5 56.5 -61.5 91.5s-22.5 72.5 -22.5 112.5v118c0 39.333 7.5 76.5 22.5 111.5s35.5 65.5 61.5 91.5s56.5 46.5 91.5 61.5s72.5 22.5 112.5 22.5h486
c40 0 77.5 -7.5 112.5 -22.5s65.5 -35.5 91.5 -61.5s46.5 -56.5 61.5 -91.5s22.5 -72.167 22.5 -111.5v-118c0 -40 -7.5 -77.5 -22.5 -112.5s-35.5 -65.5 -61.5 -91.5s-56.5 -46.5 -91.5 -61.5s-72.5 -22.5 -112.5 -22.5h-486zM213 288
c0 -24.667 4.66699 -47.834 14 -69.501s22 -40.5 38 -56.5s34.833 -28.667 56.5 -38s44.834 -14 69.501 -14h486c24.667 0 47.834 4.66699 69.501 14s40.667 22 57 38s29.166 34.833 38.499 56.5s14 44.834 14 69.501v118c0 24 -4.66699 46.833 -14 68.5
s-22.166 40.667 -38.499 57s-35.333 29.166 -57 38.499s-44.834 14 -69.501 14h-486c-24.667 0 -47.834 -4.66699 -69.501 -14s-40.5 -22.166 -56.5 -38.499s-28.667 -35.333 -38 -57s-14 -44.5 -14 -68.5v-118z" />
    <glyph glyph-name="Ocircumflex" unicode="&#xd4;" horiz-adv-x="1224" 
d="M624 882l-284 -135l-33 69l317 150l317 -150l-33 -69zM391 0c-40 0 -77.5 7.5 -112.5 22.5s-65.5 35.5 -91.5 61.5s-46.5 56.5 -61.5 91.5s-22.5 72.5 -22.5 112.5v118c0 39.333 7.5 76.5 22.5 111.5s35.5 65.5 61.5 91.5s56.5 46.5 91.5 61.5s72.5 22.5 112.5 22.5h486
c40 0 77.5 -7.5 112.5 -22.5s65.5 -35.5 91.5 -61.5s46.5 -56.5 61.5 -91.5s22.5 -72.167 22.5 -111.5v-118c0 -40 -7.5 -77.5 -22.5 -112.5s-35.5 -65.5 -61.5 -91.5s-56.5 -46.5 -91.5 -61.5s-72.5 -22.5 -112.5 -22.5h-486zM213 288
c0 -24.667 4.66699 -47.834 14 -69.501s22 -40.5 38 -56.5s34.833 -28.667 56.5 -38s44.834 -14 69.501 -14h486c24.667 0 47.834 4.66699 69.501 14s40.667 22 57 38s29.166 34.833 38.499 56.5s14 44.834 14 69.501v118c0 24 -4.66699 46.833 -14 68.5
s-22.166 40.667 -38.499 57s-35.333 29.166 -57 38.499s-44.834 14 -69.501 14h-486c-24.667 0 -47.834 -4.66699 -69.501 -14s-40.5 -22.166 -56.5 -38.499s-28.667 -35.333 -38 -57s-14 -44.5 -14 -68.5v-118z" />
    <glyph glyph-name="Otilde" unicode="&#xd5;" horiz-adv-x="1224" 
d="M778 713c-14 0 -28.3311 1.83398 -42.998 5.50098s-29.334 9.5 -44.001 17.5h1l-98 50l-98 49c-6.66699 3.33301 -12.5 5.66602 -17.5 6.99902s-9.5 2 -13.5 2c-1.33301 0 -2.66602 -0.666992 -3.99902 -2s-2 -6 -2 -14v-101h-101v102c0 19.333 2.5 36.333 7.5 51
s12.167 27 21.5 37c20 18.667 44.667 28 74 28c28 0 56.333 -7.66699 85 -23l98 -49l98 -50c13.333 -6.66699 23.666 -10 30.999 -10c1.33301 0 2.66602 1 3.99902 3s2 6.66699 2 14v101h102v-102c0 -37.333 -10.333 -66.333 -31 -87h1c-18.667 -19.333 -43 -29 -73 -29z
M391.002 0.000976562c-40 0 -77.5 7.5 -112.5 22.5s-65.5 35.5 -91.5 61.5s-46.5 56.5 -61.5 91.5s-22.5 72.5 -22.5 112.5v118c0 39.333 7.5 76.5 22.5 111.5s35.5 65.5 61.5 91.5s56.5 46.5 91.5 61.5s72.5 22.5 112.5 22.5h486c40 0 77.5 -7.5 112.5 -22.5
s65.5 -35.5 91.5 -61.5s46.5 -56.5 61.5 -91.5s22.5 -72.167 22.5 -111.5v-118c0 -40 -7.5 -77.5 -22.5 -112.5s-35.5 -65.5 -61.5 -91.5s-56.5 -46.5 -91.5 -61.5s-72.5 -22.5 -112.5 -22.5h-486zM213.002 288.001c0 -24.667 4.66699 -47.834 14 -69.501s22 -40.5 38 -56.5
s34.833 -28.667 56.5 -38s44.834 -14 69.501 -14h486c24.667 0 47.834 4.66699 69.501 14s40.667 22 57 38s29.166 34.833 38.499 56.5s14 44.834 14 69.501v118c0 24 -4.66699 46.833 -14 68.5s-22.166 40.667 -38.499 57s-35.333 29.166 -57 38.499s-44.834 14 -69.501 14
h-486c-24.667 0 -47.834 -4.66699 -69.501 -14s-40.5 -22.166 -56.5 -38.499s-28.667 -35.333 -38 -57s-14 -44.5 -14 -68.5v-118z" />
    <glyph glyph-name="Odieresis" unicode="&#xd6;" horiz-adv-x="1224" 
d="M444 750v121h116v-121h-116zM712 750v121h117v-121h-117zM391 0c-40 0 -77.5 7.5 -112.5 22.5s-65.5 35.5 -91.5 61.5s-46.5 56.5 -61.5 91.5s-22.5 72.5 -22.5 112.5v118c0 39.333 7.5 76.5 22.5 111.5s35.5 65.5 61.5 91.5s56.5 46.5 91.5 61.5s72.5 22.5 112.5 22.5
h486c40 0 77.5 -7.5 112.5 -22.5s65.5 -35.5 91.5 -61.5s46.5 -56.5 61.5 -91.5s22.5 -72.167 22.5 -111.5v-118c0 -40 -7.5 -77.5 -22.5 -112.5s-35.5 -65.5 -61.5 -91.5s-56.5 -46.5 -91.5 -61.5s-72.5 -22.5 -112.5 -22.5h-486zM213 288
c0 -24.667 4.66699 -47.834 14 -69.501s22 -40.5 38 -56.5s34.833 -28.667 56.5 -38s44.834 -14 69.501 -14h486c24.667 0 47.834 4.66699 69.501 14s40.667 22 57 38s29.166 34.833 38.499 56.5s14 44.834 14 69.501v118c0 24 -4.66699 46.833 -14 68.5
s-22.166 40.667 -38.499 57s-35.333 29.166 -57 38.499s-44.834 14 -69.501 14h-486c-24.667 0 -47.834 -4.66699 -69.501 -14s-40.5 -22.166 -56.5 -38.499s-28.667 -35.333 -38 -57s-14 -44.5 -14 -68.5v-118z" />
    <glyph glyph-name="Oslash" unicode="&#xd8;" horiz-adv-x="1264" 
d="M876 696c40 0 77.5 -7.5 112.5 -22.5s65.5 -35.5 91.5 -61.5s46.5 -56.5 61.5 -91.5s22.5 -72.167 22.5 -111.5v-120c0 -40 -7.5 -77.5 -22.5 -112.5s-35.5 -65.5 -61.5 -91.5s-56.5 -46.5 -91.5 -61.5s-72.5 -22.5 -112.5 -22.5h-486c-40 0 -77.5 7.5 -112.5 22.5
s-65.5 35.5 -91.5 61.5s-46.5 56.5 -61.5 91.5s-22.5 72.5 -22.5 112.5v120c0 39.333 7.5 76.5 22.5 111.5s35.5 65.5 61.5 91.5s56.5 46.5 91.5 61.5s72.5 22.5 112.5 22.5h486zM212 289c0 -17.333 2.33301 -34.168 7 -50.501s11.334 -31.166 20.001 -44.499l694 384
c-9.33301 3.33301 -18.333 5.66602 -27 6.99902s-18.667 2 -30 2h-486c-24.667 0 -47.834 -4.66699 -69.501 -14s-40.5 -22.166 -56.5 -38.499s-28.667 -35.333 -38 -57s-14 -44.5 -14 -68.5v-120zM1055 408.998c0 17.333 -3.16895 35.166 -9.50195 53.499
s-14.166 34.5 -23.499 48.5l-700 -387c20 -8.66699 42.667 -13 68 -13h486c24.667 0 47.834 4.66699 69.501 14s40.5 22 56.5 38s28.833 34.833 38.5 56.5s14.5 44.834 14.5 69.501v120z" />
    <glyph glyph-name="Ugrave" unicode="&#xd9;" horiz-adv-x="1029" 
d="M424 993l201 -200l-75 -76l-202 201zM185 84c-26.667 26.667 -47.499 57.333 -62.499 92s-22.5 72 -22.5 112v405h110v-405c0 -24 4.66699 -46.833 14 -68.5s22 -40.667 38 -57s34.667 -29.166 56 -38.499s44.333 -14 69 -14h309c24 0 46.833 4.66699 68.5 14
s40.667 22 57 38s29.166 34.667 38.499 56s14 44 14 68v407h110v-405c0 -40 -7.5 -77.333 -22.5 -112s-35.833 -65.334 -62.5 -92.001c-26 -26 -56.333 -46.5 -91 -61.5s-72 -22.5 -112 -22.5h-308c-40 0 -77.333 7.5 -112 22.5s-65 35.5 -91 61.5z" />
    <glyph glyph-name="Uacute" unicode="&#xda;" horiz-adv-x="1062" 
d="M661 844l-202 -201l-76 76l202 200zM185 84c-26.667 26.667 -47.499 57.333 -62.499 92s-22.5 72 -22.5 112v405h110v-405c0 -24 4.66699 -46.833 14 -68.5s22 -40.667 38 -57s34.667 -29.166 56 -38.499s44.333 -14 69 -14h309c24 0 46.833 4.66699 68.5 14
s40.667 22 57 38s29.166 34.667 38.499 56s14 44 14 68v407h110v-405c0 -40 -7.5 -77.333 -22.5 -112s-35.833 -65.334 -62.5 -92.001c-26 -26 -56.333 -46.5 -91 -61.5s-72 -22.5 -112 -22.5h-308c-40 0 -77.333 7.5 -112 22.5s-65 35.5 -91 61.5z" />
    <glyph glyph-name="Ucircumflex" unicode="&#xdb;" horiz-adv-x="1084" 
d="M532 882l-284 -135l-33 69l317 150l317 -150l-33 -69zM185 84c-26.667 26.667 -47.499 57.333 -62.499 92s-22.5 72 -22.5 112v405h110v-405c0 -24 4.66699 -46.833 14 -68.5s22 -40.667 38 -57s34.667 -29.166 56 -38.499s44.333 -14 69 -14h309
c24 0 46.833 4.66699 68.5 14s40.667 22 57 38s29.166 34.667 38.499 56s14 44 14 68v407h110v-405c0 -40 -7.5 -77.333 -22.5 -112s-35.833 -65.334 -62.5 -92.001c-26 -26 -56.333 -46.5 -91 -61.5s-72 -22.5 -112 -22.5h-308c-40 0 -77.333 7.5 -112 22.5
s-65 35.5 -91 61.5z" />
    <glyph glyph-name="Udieresis" unicode="&#xdc;" horiz-adv-x="1101" 
d="M335 552v121h116v-121h-116zM603 552v121h117v-121h-117zM185 84c-26.667 26.667 -47.499 57.333 -62.499 92s-22.5 72 -22.5 112v405h110v-405c0 -24 4.66699 -46.833 14 -68.5s22 -40.667 38 -57s34.667 -29.166 56 -38.499s44.333 -14 69 -14h309
c24 0 46.833 4.66699 68.5 14s40.667 22 57 38s29.166 34.667 38.499 56s14 44 14 68v407h110v-405c0 -40 -7.5 -77.333 -22.5 -112s-35.833 -65.334 -62.5 -92.001c-26 -26 -56.333 -46.5 -91 -61.5s-72 -22.5 -112 -22.5h-308c-40 0 -77.333 7.5 -112 22.5
s-65 35.5 -91 61.5z" />
    <glyph glyph-name="Yacute" unicode="&#xdd;" horiz-adv-x="1086" 
d="M659 843l-202 -201l-76 76l202 200zM460 0l0.000976562 207.999h-82c-40 0 -77.333 7.5 -112 22.5s-65 35.5 -91 61.5c-26.667 26.667 -47.5 57.334 -62.5 92.001s-22.5 72 -22.5 112v197h110v-197c0 -24 4.66699 -46.833 14 -68.5s22 -40.667 38 -57
s34.667 -29.166 56 -38.499s44.333 -14 69 -14h269c24 0 46.833 4.66699 68.5 14s40.667 22 57 38s29.166 34.667 38.499 56s14 44 14 68v199h110v-197c0 -40 -7.5 -77.333 -22.5 -112s-35.833 -65.334 -62.5 -92.001c-26 -26 -56.333 -46.5 -91 -61.5s-72 -22.5 -112 -22.5
h-76v-208h-110z" />
    <glyph glyph-name="Thorn" unicode="&#xde;" horiz-adv-x="1135" 
 />
    <glyph glyph-name="germandbls" unicode="&#xdf;" horiz-adv-x="2188" 
 />
    <glyph glyph-name="agrave" unicode="&#xe0;" horiz-adv-x="1160" 
d="M322 0c-22 0 -43.332 3.33105 -63.999 9.99805s-40 15.667 -58 27s-34 25 -48 41s-25.333 33.333 -34 52c-6 13.333 -10.833 27 -14.5 41s-5.5 28.333 -5.5 43c0 30 6 58 18 84s28.167 48.833 48.5 68.5s43.833 35 70.5 46s54.667 16.5 84 16.5h533v25
c0 16 -3.33301 31.167 -10 45.5s-15.334 26.833 -26.001 37.5s-23.167 19 -37.5 25s-29.5 9 -45.5 9h-484v108h484c31.333 0 60.666 -5.83301 87.999 -17.5s51.333 -27.667 72 -48s36.834 -44.166 48.501 -71.499s17.5 -56.666 17.5 -87.999v-455zM257.001 301.998
c-16 -10 -28.499 -22.5 -37.499 -37.5s-13.5 -31.833 -13.5 -50.5c0 -15.333 3.16699 -29.5 9.5 -42.5s14.5 -24.167 24.5 -33.5s21.833 -16.833 35.5 -22.5s28.167 -8.5 43.5 -8.5h533v214h-530c-24.667 0 -46.334 -6.33301 -65.001 -19zM469.002 992.998l201 -200l-75 -76
l-202 201z" />
    <glyph glyph-name="aacute" unicode="&#xe1;" horiz-adv-x="1160" 
d="M322 0c-22 0 -43.332 3.33105 -63.999 9.99805s-40 15.667 -58 27s-34 25 -48 41s-25.333 33.333 -34 52c-6 13.333 -10.833 27 -14.5 41s-5.5 28.333 -5.5 43c0 30 6 58 18 84s28.167 48.833 48.5 68.5s43.833 35 70.5 46s54.667 16.5 84 16.5h533v25
c0 16 -3.33301 31.167 -10 45.5s-15.334 26.833 -26.001 37.5s-23.167 19 -37.5 25s-29.5 9 -45.5 9h-484v108h484c31.333 0 60.666 -5.83301 87.999 -17.5s51.333 -27.667 72 -48s36.834 -44.166 48.501 -71.499s17.5 -56.666 17.5 -87.999v-455zM257.001 301.998
c-16 -10 -28.499 -22.5 -37.499 -37.5s-13.5 -31.833 -13.5 -50.5c0 -15.333 3.16699 -29.5 9.5 -42.5s14.5 -24.167 24.5 -33.5s21.833 -16.833 35.5 -22.5s28.167 -8.5 43.5 -8.5h533v214h-530c-24.667 0 -46.334 -6.33301 -65.001 -19zM737.002 907.998l-202 -201l-76 76
l202 200z" />
    <glyph glyph-name="acircumflex" unicode="&#xe2;" horiz-adv-x="1160" 
d="M322 0c-22 0 -43.332 3.33105 -63.999 9.99805s-40 15.667 -58 27s-34 25 -48 41s-25.333 33.333 -34 52c-6 13.333 -10.833 27 -14.5 41s-5.5 28.333 -5.5 43c0 30 6 58 18 84s28.167 48.833 48.5 68.5s43.833 35 70.5 46s54.667 16.5 84 16.5h533v25
c0 16 -3.33301 31.167 -10 45.5s-15.334 26.833 -26.001 37.5s-23.167 19 -37.5 25s-29.5 9 -45.5 9h-484v108h484c31.333 0 60.666 -5.83301 87.999 -17.5s51.333 -27.667 72 -48s36.834 -44.166 48.501 -71.499s17.5 -56.666 17.5 -87.999v-455zM257.001 301.998
c-16 -10 -28.499 -22.5 -37.499 -37.5s-13.5 -31.833 -13.5 -50.5c0 -15.333 3.16699 -29.5 9.5 -42.5s14.5 -24.167 24.5 -33.5s21.833 -16.833 35.5 -22.5s28.167 -8.5 43.5 -8.5h533v214h-530c-24.667 0 -46.334 -6.33301 -65.001 -19zM582.002 881.998l-284 -135l-33 69
l317 150l317 -150l-33 -69z" />
    <glyph glyph-name="atilde" unicode="&#xe3;" horiz-adv-x="1160" 
d="M322 0c-22 0 -43.332 3.33105 -63.999 9.99805s-40 15.667 -58 27s-34 25 -48 41s-25.333 33.333 -34 52c-6 13.333 -10.833 27 -14.5 41s-5.5 28.333 -5.5 43c0 30 6 58 18 84s28.167 48.833 48.5 68.5s43.833 35 70.5 46s54.667 16.5 84 16.5h533v25
c0 16 -3.33301 31.167 -10 45.5s-15.334 26.833 -26.001 37.5s-23.167 19 -37.5 25s-29.5 9 -45.5 9h-484v108h484c31.333 0 60.666 -5.83301 87.999 -17.5s51.333 -27.667 72 -48s36.834 -44.166 48.501 -71.499s17.5 -56.666 17.5 -87.999v-455zM257.001 301.998
c-16 -10 -28.499 -22.5 -37.499 -37.5s-13.5 -31.833 -13.5 -50.5c0 -15.333 3.16699 -29.5 9.5 -42.5s14.5 -24.167 24.5 -33.5s21.833 -16.833 35.5 -22.5s28.167 -8.5 43.5 -8.5h533v214h-530c-24.667 0 -46.334 -6.33301 -65.001 -19zM736.002 712.998
c-14 0 -28.3311 1.83398 -42.998 5.50098s-29.334 9.5 -44.001 17.5h1l-98 50l-98 49c-6.66699 3.33301 -12.5 5.66602 -17.5 6.99902s-9.5 2 -13.5 2c-1.33301 0 -2.66602 -0.666992 -3.99902 -2s-2 -6 -2 -14v-101h-101v102c0 19.333 2.5 36.333 7.5 51s12.167 27 21.5 37
c20 18.667 44.667 28 74 28c28 0 56.333 -7.66699 85 -23l98 -49l98 -50c13.333 -6.66699 23.666 -10 30.999 -10c1.33301 0 2.66602 1 3.99902 3s2 6.66699 2 14v101h102v-102c0 -37.333 -10.333 -66.333 -31 -87h1c-18.667 -19.333 -43 -29 -73 -29z" />
    <glyph glyph-name="adieresis" unicode="&#xe4;" horiz-adv-x="1160" 
d="M322 0c-22 0 -43.332 3.33105 -63.999 9.99805s-40 15.667 -58 27s-34 25 -48 41s-25.333 33.333 -34 52c-6 13.333 -10.833 27 -14.5 41s-5.5 28.333 -5.5 43c0 30 6 58 18 84s28.167 48.833 48.5 68.5s43.833 35 70.5 46s54.667 16.5 84 16.5h533v25
c0 16 -3.33301 31.167 -10 45.5s-15.334 26.833 -26.001 37.5s-23.167 19 -37.5 25s-29.5 9 -45.5 9h-484v108h484c31.333 0 60.666 -5.83301 87.999 -17.5s51.333 -27.667 72 -48s36.834 -44.166 48.501 -71.499s17.5 -56.666 17.5 -87.999v-455zM257.001 301.998
c-16 -10 -28.499 -22.5 -37.499 -37.5s-13.5 -31.833 -13.5 -50.5c0 -15.333 3.16699 -29.5 9.5 -42.5s14.5 -24.167 24.5 -33.5s21.833 -16.833 35.5 -22.5s28.167 -8.5 43.5 -8.5h533v214h-530c-24.667 0 -46.334 -6.33301 -65.001 -19zM360.002 736.998v121h116v-121
h-116zM628.002 736.998v121h117v-121h-117z" />
    <glyph glyph-name="aring" unicode="&#xe5;" horiz-adv-x="1160" 
d="M322 0c-22 0 -43.332 3.33105 -63.999 9.99805s-40 15.667 -58 27s-34 25 -48 41s-25.333 33.333 -34 52c-6 13.333 -10.833 27 -14.5 41s-5.5 28.333 -5.5 43c0 30 6 58 18 84s28.167 48.833 48.5 68.5s43.833 35 70.5 46s54.667 16.5 84 16.5h533v25
c0 16 -3.33301 31.167 -10 45.5s-15.334 26.833 -26.001 37.5s-23.167 19 -37.5 25s-29.5 9 -45.5 9h-484v108h484c31.333 0 60.666 -5.83301 87.999 -17.5s51.333 -27.667 72 -48s36.834 -44.166 48.501 -71.499s17.5 -56.666 17.5 -87.999v-455zM257.001 301.998
c-16 -10 -28.499 -22.5 -37.499 -37.5s-13.5 -31.833 -13.5 -50.5c0 -15.333 3.16699 -29.5 9.5 -42.5s14.5 -24.167 24.5 -33.5s21.833 -16.833 35.5 -22.5s28.167 -8.5 43.5 -8.5h533v214h-530c-24.667 0 -46.334 -6.33301 -65.001 -19zM472.002 743.998
c-37.333 0 -69.332 13.3311 -95.999 39.998c-12.667 12.667 -22.5 27.167 -29.5 43.5s-10.5 33.833 -10.5 52.5v13c0 18.667 3.5 36.334 10.5 53.001s16.667 31.167 29 43.5s26.833 22.166 43.5 29.499s34.334 11 53.001 11h137c18.667 0 36.334 -3.66699 53.001 -11
s31.167 -17.166 43.5 -29.499s22.166 -26.833 29.499 -43.5s11 -34.334 11 -53.001v-13c0 -18.667 -3.5 -36.167 -10.5 -52.5s-16.833 -30.666 -29.5 -42.999s-27.334 -22.166 -44.001 -29.499s-34.334 -11 -53.001 -11h-137zM441.003 924.996
c-8.66699 -8.66699 -13.001 -19.334 -13.001 -32.001v-13c0 -12.667 4.16699 -23.167 12.5 -31.5s18.833 -12.5 31.5 -12.5h137c12.667 0 23.5 4.16699 32.5 12.5s13.5 18.833 13.5 31.5v13c0 12.667 -4.5 23.334 -13.5 32.001s-19.833 13 -32.5 13h-137
c-6.66699 0 -12.667 -1.33301 -18 -4s-9.66602 -5.66699 -12.999 -9z" />
    <glyph glyph-name="ae" unicode="&#xe6;" horiz-adv-x="1860" 
d="M966 181c4 -26 17.499 -45.001 40.499 -57.001s48.833 -18 77.5 -18h605v-107h-610c-19.333 0 -38.666 2 -57.999 6s-37.666 10.667 -54.999 20v-25h-637c-22 0 -43.333 3.33301 -64 10s-40 15.667 -58 27s-34.167 25 -48.5 41s-25.833 33.333 -34.5 52
c-12.667 27.333 -19 55.333 -19 84c0 30 6 58 18 84s28 48.833 48 68.5s43.333 35 70 46s54.667 16.5 84 16.5h534v25c0 16 -3.33301 31.167 -10 45.5s-15.334 26.833 -26.001 37.5s-23.167 19 -37.5 25s-29.5 9 -45.5 9h-484v108h484c34.667 0 66.667 -7.33301 96 -22
s54.333 -33.667 75 -57c21.333 24 47 42.833 77 56.5s62 20.5 96 20.5h433c30 0 58.333 -5.66699 85 -17s50 -26.666 70 -45.999s36 -42 48 -68s18 -54 18 -84s-6 -58 -18 -84s-28.333 -48.833 -49 -68.5s-44.667 -35 -72 -46s-56 -16.5 -86 -16.5h-547v-66z
M965.999 354.999h551.001c14.667 0 29 2.83301 43 8.5s26.167 13.167 36.5 22.5s18.666 20.5 24.999 33.5s9.5 27.167 9.5 42.5s-3.16699 29.5 -9.5 42.5s-15 24.333 -26 34s-23.667 17.167 -38 22.5s-29.166 8 -44.499 8h-429c-12 0 -24.833 -2.66699 -38.5 -8
s-26.334 -12.5 -38.001 -21.5s-21.5 -20 -29.5 -33s-12 -26.833 -12 -41.5v-110zM859 320.999h-529.998c-24 0 -46 -6.33301 -66 -19c-15.333 -10 -27.666 -22.5 -36.999 -37.5s-14 -31.833 -14 -50.5c0 -15.333 3.16699 -29.5 9.5 -42.5s14.666 -24.167 24.999 -33.5
s22.166 -16.833 35.499 -22.5s27.666 -8.5 42.999 -8.5h534v214z" />
    <glyph glyph-name="ccedilla" unicode="&#xe7;" horiz-adv-x="1143" 
d="M403 -258v102.999h112c11.333 0 20.5 4.16699 27.5 12.5s10.5 17.833 10.5 28.5v115h103v-115c0 -18.667 -3.83301 -36.667 -11.5 -54s-18 -32.666 -31 -45.999s-28.167 -24 -45.5 -32s-36 -12 -56 -12h-109zM185 83.999c-26.667 26.667 -47.499 57.3311 -62.499 91.998
s-22.5 72 -22.5 112v118c0 39.333 7.66699 76.5 23 111.5s36 65.5 62 91.5s56.5 46.5 91.5 61.5s72.5 22.5 112.5 22.5h571v-109h-571c-24.667 0 -47.834 -4.66699 -69.501 -14s-40.5 -22.166 -56.5 -38.499s-28.833 -35.333 -38.5 -57s-14.5 -44.5 -14.5 -68.5v-118
c0 -24 4.66699 -46.833 14 -68.5s22 -40.667 38 -57s34.667 -29.166 56 -38.499s44.333 -14 69 -14h573v-110h-571c-40 0 -77.5 7.5 -112.5 22.5s-65.5 35.5 -91.5 61.5z" />
    <glyph glyph-name="egrave" unicode="&#xe8;" horiz-adv-x="1152" 
d="M428 1003l201 -200l-75 -76l-202 201zM100 483c0 28.667 6.16895 55.832 18.502 81.499s28.666 47.834 48.999 66.501s44.166 33.5 71.499 44.5s56 16.5 86 16.5h433c29.333 0 57.333 -5.66699 84 -17s50.167 -26.833 70.5 -46.5s36.5 -42.5 48.5 -68.5
s18 -53.667 18 -83c0 -30 -6 -58 -18 -84s-28.333 -48.833 -49 -68.5s-44.667 -35 -72 -46s-56 -16.5 -86 -16.5h-547v-81c6 -22.667 20.5 -40.667 43.5 -54s47.833 -20 74.5 -20h635v-107h-640c-26 0 -51.833 4 -77.5 12s-49 19.667 -70 35s-38.167 34 -51.5 56
s-20.333 47 -21 75v305zM325.002 583.998c-12 0 -24.833 -2.66699 -38.5 -8s-26.5 -12.5 -38.5 -21.5s-21.833 -20 -29.5 -33s-11.5 -26.833 -11.5 -41.5v-110h551c14.667 0 29 2.83301 43 8.5s26.167 13.167 36.5 22.5s18.666 20.5 24.999 33.5s9.5 27.167 9.5 42.5
s-3.16699 29.5 -9.5 42.5s-15 24.333 -26 34s-23.667 17.167 -38 22.5s-29.166 8 -44.499 8h-429z" />
    <glyph glyph-name="eacute" unicode="&#xe9;" horiz-adv-x="1064" 
d="M100 483c0 28.667 6.16895 55.832 18.502 81.499s28.666 47.834 48.999 66.501s44.166 33.5 71.499 44.5s56 16.5 86 16.5h433c29.333 0 57.333 -5.66699 84 -17s50.167 -26.833 70.5 -46.5s36.5 -42.5 48.5 -68.5s18 -53.667 18 -83c0 -30 -6 -58 -18 -84
s-28.333 -48.833 -49 -68.5s-44.667 -35 -72 -46s-56 -16.5 -86 -16.5h-547v-81c6 -22.667 20.5 -40.667 43.5 -54s47.833 -20 74.5 -20h635v-107h-640c-26 0 -51.833 4 -77.5 12s-49 19.667 -70 35s-38.167 34 -51.5 56s-20.333 47 -21 75v305zM325.002 583.998
c-12 0 -24.833 -2.66699 -38.5 -8s-26.5 -12.5 -38.5 -21.5s-21.833 -20 -29.5 -33s-11.5 -26.833 -11.5 -41.5v-110h551c14.667 0 29 2.83301 43 8.5s26.167 13.167 36.5 22.5s18.666 20.5 24.999 33.5s9.5 27.167 9.5 42.5s-3.16699 29.5 -9.5 42.5s-15 24.333 -26 34
s-23.667 17.167 -38 22.5s-29.166 8 -44.499 8h-429zM667.002 935.998l-202 -201l-76 76l202 200z" />
    <glyph glyph-name="ecircumflex" unicode="&#xea;" horiz-adv-x="1061" 
d="M101 483c0 28.667 6.16895 55.832 18.502 81.499s28.666 47.834 48.999 66.501s44.166 33.5 71.499 44.5s56 16.5 86 16.5h433c29.333 0 57.333 -5.66699 84 -17s50.167 -26.833 70.5 -46.5s36.5 -42.5 48.5 -68.5s18 -53.667 18 -83c0 -30 -6 -58 -18 -84
s-28.333 -48.833 -49 -68.5s-44.667 -35 -72 -46s-56 -16.5 -86 -16.5h-547v-81c6 -22.667 20.5 -40.667 43.5 -54s47.833 -20 74.5 -20h635v-107h-640c-26 0 -51.833 4 -77.5 12s-49 19.667 -70 35s-38.167 34 -51.5 56s-20.333 47 -21 75v305zM326.002 583.998
c-12 0 -24.833 -2.66699 -38.5 -8s-26.5 -12.5 -38.5 -21.5s-21.833 -20 -29.5 -33s-11.5 -26.833 -11.5 -41.5v-110h551c14.667 0 29 2.83301 43 8.5s26.167 13.167 36.5 22.5s18.666 20.5 24.999 33.5s9.5 27.167 9.5 42.5s-3.16699 29.5 -9.5 42.5s-15 24.333 -26 34
s-23.667 17.167 -38 22.5s-29.166 8 -44.499 8h-429zM553.002 881.998l-284 -135l-33 69l317 150l317 -150l-33 -69z" />
    <glyph glyph-name="edieresis" unicode="&#xeb;" horiz-adv-x="1061" 
d="M101 483c0 28.667 6.16895 55.832 18.502 81.499s28.666 47.834 48.999 66.501s44.166 33.5 71.499 44.5s56 16.5 86 16.5h433c29.333 0 57.333 -5.66699 84 -17s50.167 -26.833 70.5 -46.5s36.5 -42.5 48.5 -68.5s18 -53.667 18 -83c0 -30 -6 -58 -18 -84
s-28.333 -48.833 -49 -68.5s-44.667 -35 -72 -46s-56 -16.5 -86 -16.5h-547v-81c6 -22.667 20.5 -40.667 43.5 -54s47.833 -20 74.5 -20h635v-107h-640c-26 0 -51.833 4 -77.5 12s-49 19.667 -70 35s-38.167 34 -51.5 56s-20.333 47 -21 75v305zM326.002 583.998
c-12 0 -24.833 -2.66699 -38.5 -8s-26.5 -12.5 -38.5 -21.5s-21.833 -20 -29.5 -33s-11.5 -26.833 -11.5 -41.5v-110h551c14.667 0 29 2.83301 43 8.5s26.167 13.167 36.5 22.5s18.666 20.5 24.999 33.5s9.5 27.167 9.5 42.5s-3.16699 29.5 -9.5 42.5s-15 24.333 -26 34
s-23.667 17.167 -38 22.5s-29.166 8 -44.499 8h-429zM345.002 747.998v121h116v-121h-116zM613.002 747.998v121h117v-121h-117z" />
    <glyph glyph-name="igrave" unicode="&#xec;" horiz-adv-x="265" 
d="M88 0v693h110v-693h-110zM68 991l201 -200l-75 -76l-202 201z" />
    <glyph glyph-name="iacute" unicode="&#xed;" horiz-adv-x="265" 
d="M88 0v693h110v-693h-110zM268 916l-202 -201l-76 76l202 200z" />
    <glyph glyph-name="icircumflex" unicode="&#xee;" horiz-adv-x="265" 
d="M88 0v693h110v-693h-110zM137 880l-284 -135l-33 69l317 150l317 -150l-33 -69z" />
    <glyph glyph-name="idieresis" unicode="&#xef;" horiz-adv-x="265" 
d="M88 0v693h110v-693h-110zM-51 751v121h116v-121h-116zM217 751v121h117v-121h-117z" />
    <glyph glyph-name="eth" unicode="&#xf0;" horiz-adv-x="1233" 
d="M812 693c38.667 0 75.166 -7.49902 109.499 -22.499s64.333 -35.333 90 -61s45.834 -55.5 60.501 -89.5s22 -70.333 22 -109v-130c0 -38.667 -7.5 -75 -22.5 -109s-35.333 -63.833 -61 -89.5s-55.5 -45.834 -89.5 -60.501s-70.333 -22 -109 -22h-591v296h-179v108h179
v289h591zM985.999 413.001c0 24 -4.66699 46.332 -14 66.999s-21.833 38.834 -37.5 54.501s-34 28 -55 37s-43.5 13.5 -67.5 13.5h-484v-181h227v-108h-227v-189h486c23.333 0 45.5 4.66699 66.5 14s39.333 21.833 55 37.5s28 34 37 55s13.5 43.5 13.5 67.5v132z" />
    <glyph glyph-name="ntilde" unicode="&#xf1;" horiz-adv-x="1163" 
d="M641 692c38.667 0 74.999 -7.49902 108.999 -22.499s63.833 -35.167 89.5 -60.5s45.834 -55.333 60.501 -90s22 -71.334 22 -110.001v-409h-107v409c0 24 -4.5 46.5 -13.5 67.5s-21.333 39.5 -37 55.5s-34 28.667 -55 38s-43.167 14 -66.5 14h-439v-584h-107v692h544z
M629.999 743.001c-14 0 -28.3311 1.83398 -42.998 5.50098s-29.334 9.5 -44.001 17.5h1l-98 50l-98 49c-6.66699 3.33301 -12.5 5.66602 -17.5 6.99902s-9.5 2 -13.5 2c-1.33301 0 -2.66602 -0.666992 -3.99902 -2s-2 -6 -2 -14v-101h-101v102c0 19.333 2.5 36.333 7.5 51
s12.167 27 21.5 37c20 18.667 44.667 28 74 28c28 0 56.333 -7.66699 85 -23l98 -49l98 -50c13.333 -6.66699 23.666 -10 30.999 -10c1.33301 0 2.66602 1 3.99902 3s2 6.66699 2 14v101h102v-102c0 -37.333 -10.333 -66.333 -31 -87h1c-18.667 -19.333 -43 -29 -73 -29z
" />
    <glyph glyph-name="ograve" unicode="&#xf2;" horiz-adv-x="1224" 
d="M511 993l201 -200l-75 -76l-202 201zM391 0c-40 0 -77.5 7.5 -112.5 22.5s-65.5 35.5 -91.5 61.5s-46.5 56.5 -61.5 91.5s-22.5 72.5 -22.5 112.5v118c0 39.333 7.5 76.5 22.5 111.5s35.5 65.5 61.5 91.5s56.5 46.5 91.5 61.5s72.5 22.5 112.5 22.5h486
c40 0 77.5 -7.5 112.5 -22.5s65.5 -35.5 91.5 -61.5s46.5 -56.5 61.5 -91.5s22.5 -72.167 22.5 -111.5v-118c0 -40 -7.5 -77.5 -22.5 -112.5s-35.5 -65.5 -61.5 -91.5s-56.5 -46.5 -91.5 -61.5s-72.5 -22.5 -112.5 -22.5h-486zM213 288
c0 -24.667 4.66699 -47.834 14 -69.501s22 -40.5 38 -56.5s34.833 -28.667 56.5 -38s44.834 -14 69.501 -14h486c24.667 0 47.834 4.66699 69.501 14s40.667 22 57 38s29.166 34.833 38.499 56.5s14 44.834 14 69.501v118c0 24 -4.66699 46.833 -14 68.5
s-22.166 40.667 -38.499 57s-35.333 29.166 -57 38.499s-44.834 14 -69.501 14h-486c-24.667 0 -47.834 -4.66699 -69.501 -14s-40.5 -22.166 -56.5 -38.499s-28.667 -35.333 -38 -57s-14 -44.5 -14 -68.5v-118z" />
    <glyph glyph-name="oacute" unicode="&#xf3;" horiz-adv-x="1224" 
d="M779 928l-202 -201l-76 76l202 200zM391 0c-40 0 -77.5 7.5 -112.5 22.5s-65.5 35.5 -91.5 61.5s-46.5 56.5 -61.5 91.5s-22.5 72.5 -22.5 112.5v118c0 39.333 7.5 76.5 22.5 111.5s35.5 65.5 61.5 91.5s56.5 46.5 91.5 61.5s72.5 22.5 112.5 22.5h486
c40 0 77.5 -7.5 112.5 -22.5s65.5 -35.5 91.5 -61.5s46.5 -56.5 61.5 -91.5s22.5 -72.167 22.5 -111.5v-118c0 -40 -7.5 -77.5 -22.5 -112.5s-35.5 -65.5 -61.5 -91.5s-56.5 -46.5 -91.5 -61.5s-72.5 -22.5 -112.5 -22.5h-486zM213 288
c0 -24.667 4.66699 -47.834 14 -69.501s22 -40.5 38 -56.5s34.833 -28.667 56.5 -38s44.834 -14 69.501 -14h486c24.667 0 47.834 4.66699 69.501 14s40.667 22 57 38s29.166 34.833 38.499 56.5s14 44.834 14 69.501v118c0 24 -4.66699 46.833 -14 68.5
s-22.166 40.667 -38.499 57s-35.333 29.166 -57 38.499s-44.834 14 -69.501 14h-486c-24.667 0 -47.834 -4.66699 -69.501 -14s-40.5 -22.166 -56.5 -38.499s-28.667 -35.333 -38 -57s-14 -44.5 -14 -68.5v-118z" />
    <glyph glyph-name="ocircumflex" unicode="&#xf4;" horiz-adv-x="1224" 
d="M624 882l-284 -135l-33 69l317 150l317 -150l-33 -69zM391 0c-40 0 -77.5 7.5 -112.5 22.5s-65.5 35.5 -91.5 61.5s-46.5 56.5 -61.5 91.5s-22.5 72.5 -22.5 112.5v118c0 39.333 7.5 76.5 22.5 111.5s35.5 65.5 61.5 91.5s56.5 46.5 91.5 61.5s72.5 22.5 112.5 22.5h486
c40 0 77.5 -7.5 112.5 -22.5s65.5 -35.5 91.5 -61.5s46.5 -56.5 61.5 -91.5s22.5 -72.167 22.5 -111.5v-118c0 -40 -7.5 -77.5 -22.5 -112.5s-35.5 -65.5 -61.5 -91.5s-56.5 -46.5 -91.5 -61.5s-72.5 -22.5 -112.5 -22.5h-486zM213 288
c0 -24.667 4.66699 -47.834 14 -69.501s22 -40.5 38 -56.5s34.833 -28.667 56.5 -38s44.834 -14 69.501 -14h486c24.667 0 47.834 4.66699 69.501 14s40.667 22 57 38s29.166 34.833 38.499 56.5s14 44.834 14 69.501v118c0 24 -4.66699 46.833 -14 68.5
s-22.166 40.667 -38.499 57s-35.333 29.166 -57 38.499s-44.834 14 -69.501 14h-486c-24.667 0 -47.834 -4.66699 -69.501 -14s-40.5 -22.166 -56.5 -38.499s-28.667 -35.333 -38 -57s-14 -44.5 -14 -68.5v-118z" />
    <glyph glyph-name="otilde" unicode="&#xf5;" horiz-adv-x="1224" 
d="M778 723c-14 0 -28.3311 1.83398 -42.998 5.50098s-29.334 9.5 -44.001 17.5h1l-98 50l-98 49c-6.66699 3.33301 -12.5 5.66602 -17.5 6.99902s-9.5 2 -13.5 2c-1.33301 0 -2.66602 -0.666992 -3.99902 -2s-2 -6 -2 -14v-101h-101v102c0 19.333 2.5 36.333 7.5 51
s12.167 27 21.5 37c20 18.667 44.667 28 74 28c28 0 56.333 -7.66699 85 -23l98 -49l98 -50c13.333 -6.66699 23.666 -10 30.999 -10c1.33301 0 2.66602 1 3.99902 3s2 6.66699 2 14v101h102v-102c0 -37.333 -10.333 -66.333 -31 -87h1c-18.667 -19.333 -43 -29 -73 -29z
M391.002 0.000976562c-40 0 -77.5 7.5 -112.5 22.5s-65.5 35.5 -91.5 61.5s-46.5 56.5 -61.5 91.5s-22.5 72.5 -22.5 112.5v118c0 39.333 7.5 76.5 22.5 111.5s35.5 65.5 61.5 91.5s56.5 46.5 91.5 61.5s72.5 22.5 112.5 22.5h486c40 0 77.5 -7.5 112.5 -22.5
s65.5 -35.5 91.5 -61.5s46.5 -56.5 61.5 -91.5s22.5 -72.167 22.5 -111.5v-118c0 -40 -7.5 -77.5 -22.5 -112.5s-35.5 -65.5 -61.5 -91.5s-56.5 -46.5 -91.5 -61.5s-72.5 -22.5 -112.5 -22.5h-486zM213.002 288.001c0 -24.667 4.66699 -47.834 14 -69.501s22 -40.5 38 -56.5
s34.833 -28.667 56.5 -38s44.834 -14 69.501 -14h486c24.667 0 47.834 4.66699 69.501 14s40.667 22 57 38s29.166 34.833 38.499 56.5s14 44.834 14 69.501v118c0 24 -4.66699 46.833 -14 68.5s-22.166 40.667 -38.499 57s-35.333 29.166 -57 38.499s-44.834 14 -69.501 14
h-486c-24.667 0 -47.834 -4.66699 -69.501 -14s-40.5 -22.166 -56.5 -38.499s-28.667 -35.333 -38 -57s-14 -44.5 -14 -68.5v-118z" />
    <glyph glyph-name="odieresis" unicode="&#xf6;" horiz-adv-x="1287" 
d="M391 0c-40 0 -77.5 7.5 -112.5 22.5s-65.5 35.5 -91.5 61.5s-46.5 56.5 -61.5 91.5s-22.5 72.5 -22.5 112.5v118c0 39.333 7.5 76.5 22.5 111.5s35.5 65.5 61.5 91.5s56.5 46.5 91.5 61.5s72.5 22.5 112.5 22.5h486c40 0 77.5 -7.5 112.5 -22.5s65.5 -35.5 91.5 -61.5
s46.5 -56.5 61.5 -91.5s22.5 -72.167 22.5 -111.5v-118c0 -40 -7.5 -77.5 -22.5 -112.5s-35.5 -65.5 -61.5 -91.5s-56.5 -46.5 -91.5 -61.5s-72.5 -22.5 -112.5 -22.5h-486zM213 288c0 -24.667 4.66699 -47.834 14 -69.501s22 -40.5 38 -56.5s34.833 -28.667 56.5 -38
s44.834 -14 69.501 -14h486c24.667 0 47.834 4.66699 69.501 14s40.667 22 57 38s29.166 34.833 38.499 56.5s14 44.834 14 69.501v118c0 24 -4.66699 46.833 -14 68.5s-22.166 40.667 -38.499 57s-35.333 29.166 -57 38.499s-44.834 14 -69.501 14h-486
c-24.667 0 -47.834 -4.66699 -69.501 -14s-40.5 -22.166 -56.5 -38.499s-28.667 -35.333 -38 -57s-14 -44.5 -14 -68.5v-118zM449 768v121h116v-121h-116zM717 768v121h117v-121h-117z" />
    <glyph glyph-name="oslash" unicode="&#xf8;" horiz-adv-x="1264" 
d="M876 696c40 0 77.5 -7.5 112.5 -22.5s65.5 -35.5 91.5 -61.5s46.5 -56.5 61.5 -91.5s22.5 -72.167 22.5 -111.5v-120c0 -40 -7.5 -77.5 -22.5 -112.5s-35.5 -65.5 -61.5 -91.5s-56.5 -46.5 -91.5 -61.5s-72.5 -22.5 -112.5 -22.5h-486c-40 0 -77.5 7.5 -112.5 22.5
s-65.5 35.5 -91.5 61.5s-46.5 56.5 -61.5 91.5s-22.5 72.5 -22.5 112.5v120c0 39.333 7.5 76.5 22.5 111.5s35.5 65.5 61.5 91.5s56.5 46.5 91.5 61.5s72.5 22.5 112.5 22.5h486zM212 289c0 -17.333 2.33301 -34.168 7 -50.501s11.334 -31.166 20.001 -44.499l694 384
c-9.33301 3.33301 -18.333 5.66602 -27 6.99902s-18.667 2 -30 2h-486c-24.667 0 -47.834 -4.66699 -69.501 -14s-40.5 -22.166 -56.5 -38.499s-28.667 -35.333 -38 -57s-14 -44.5 -14 -68.5v-120zM1055 408.998c0 17.333 -3.16895 35.166 -9.50195 53.499
s-14.166 34.5 -23.499 48.5l-700 -387c20 -8.66699 42.667 -13 68 -13h486c24.667 0 47.834 4.66699 69.501 14s40.5 22 56.5 38s28.833 34.833 38.5 56.5s14.5 44.834 14.5 69.501v120z" />
    <glyph glyph-name="ugrave" unicode="&#xf9;" horiz-adv-x="1075" 
d="M420 974l201 -200l-75 -76l-202 201zM382 0c-38.667 0 -74.999 7.5 -108.999 22.5s-63.833 35.167 -89.5 60.5s-45.834 55.166 -60.501 89.499s-22 70.833 -22 109.5v410h107v-410c0 -23.333 4.5 -45.666 13.5 -66.999s21.333 -40 37 -56s34 -28.667 55 -38
s43.167 -14 66.5 -14h439v585h107v-692h-544z" />
    <glyph glyph-name="uacute" unicode="&#xfa;" horiz-adv-x="1062" 
d="M382 0c-38.667 0 -74.999 7.5 -108.999 22.5s-63.833 35.167 -89.5 60.5s-45.834 55.166 -60.501 89.499s-22 70.833 -22 109.5v410h107v-410c0 -23.333 4.5 -45.666 13.5 -66.999s21.333 -40 37 -56s34 -28.667 55 -38s43.167 -14 66.5 -14h439v585h107v-692h-544z
M688.001 849l-202 -201l-76 76l202 200z" />
    <glyph glyph-name="ucircumflex" unicode="&#xfb;" horiz-adv-x="1075" 
d="M382 0c-38.667 0 -74.999 7.5 -108.999 22.5s-63.833 35.167 -89.5 60.5s-45.834 55.166 -60.501 89.499s-22 70.833 -22 109.5v410h107v-410c0 -23.333 4.5 -45.666 13.5 -66.999s21.333 -40 37 -56s34 -28.667 55 -38s43.167 -14 66.5 -14h439v585h107v-692h-544z
M503.001 873l-284 -135l-33 69l317 150l317 -150l-33 -69z" />
    <glyph glyph-name="udieresis" unicode="&#xfc;" horiz-adv-x="1062" 
d="M382 0c-38.667 0 -74.999 7.5 -108.999 22.5s-63.833 35.167 -89.5 60.5s-45.834 55.166 -60.501 89.499s-22 70.833 -22 109.5v410h107v-410c0 -23.333 4.5 -45.666 13.5 -66.999s21.333 -40 37 -56s34 -28.667 55 -38s43.167 -14 66.5 -14h439v585h107v-692h-544z
M351.001 552v121h116v-121h-116zM619.001 552v121h117v-121h-117z" />
    <glyph glyph-name="yacute" unicode="&#xfd;" horiz-adv-x="1075" 
d="M924 692v-410.999c0 -38.667 -7.33301 -75 -22 -109s-34.667 -63.833 -60 -89.5s-55.166 -45.834 -89.499 -60.501s-70.833 -22 -109.5 -22h-494v107h494c23.333 0 45.5 4.5 66.5 13.5s39.333 21.167 55 36.5s28.167 33.5 37.5 54.5s14.333 43.167 15 66.5h-437
c-38.667 0 -75 7.5 -109 22.5s-63.833 35.167 -89.5 60.5s-45.834 55.166 -60.501 89.499s-22 70.833 -22 109.5v132h107v-132c0 -23.333 4.5 -45.666 13.5 -66.999s21.333 -40 37 -56s34 -28.667 55 -38s43.167 -14 66.5 -14h439v307h107zM788 868.001l-202 -201l-76 76
l202 200z" />
    <glyph glyph-name="ydieresis" unicode="&#xff;" horiz-adv-x="1056" 
d="M924 692v-410.999c0 -38.667 -7.33301 -75 -22 -109s-34.667 -63.833 -60 -89.5s-55.166 -45.834 -89.499 -60.501s-70.833 -22 -109.5 -22h-494v107h494c23.333 0 45.5 4.5 66.5 13.5s39.333 21.167 55 36.5s28.167 33.5 37.5 54.5s14.333 43.167 15 66.5h-437
c-38.667 0 -75 7.5 -109 22.5s-63.833 35.167 -89.5 60.5s-45.834 55.166 -60.501 89.499s-22 70.833 -22 109.5v132h107v-132c0 -23.333 4.5 -45.666 13.5 -66.999s21.333 -40 37 -56s34 -28.667 55 -38s43.167 -14 66.5 -14h439v307h107zM314 682.001v121h116v-121h-116z
M582 682.001v121h117v-121h-117z" />
    <glyph glyph-name="Amacron" unicode="&#x100;" horiz-adv-x="1072" 
d="M316 824h463v-76h-463v76zM910 609c26 -26.667 46.666 -57.333 61.999 -92s23 -71.667 23 -111v-406h-110v301h-676v-301h-109v406c0 40 7.66699 77.333 23 112s36 65 62 91s56.333 46.5 91 61.5s71.667 22.5 111 22.5h320c39.333 0 76.333 -7.5 111 -22.5
s65.334 -35.5 92.001 -61.5zM384.999 584.001c-23.333 0 -45.498 -4.66699 -66.498 -14s-39.5 -21.833 -55.5 -37.5s-28.833 -34 -38.5 -55s-14.834 -43.167 -15.501 -66.5h676c-0.666992 23.333 -5.83398 45.5 -15.501 66.5s-22.5 39.333 -38.5 55s-34.667 28.167 -56 37.5
s-44 14 -68 14h-322z" />
    <glyph glyph-name="amacron" unicode="&#x101;" horiz-adv-x="1082" 
d="M322 0c-22 0 -43.332 3.33105 -63.999 9.99805s-40 15.667 -58 27s-34 25 -48 41s-25.333 33.333 -34 52c-6 13.333 -10.833 27 -14.5 41s-5.5 28.333 -5.5 43c0 30 6 58 18 84s28.167 48.833 48.5 68.5s43.833 35 70.5 46s54.667 16.5 84 16.5h533v25
c0 16 -3.33301 31.167 -10 45.5s-15.334 26.833 -26.001 37.5s-23.167 19 -37.5 25s-29.5 9 -45.5 9h-484v108h484c31.333 0 60.666 -5.83301 87.999 -17.5s51.333 -27.667 72 -48s36.834 -44.166 48.501 -71.499s17.5 -56.666 17.5 -87.999v-455zM257.001 301.998
c-16 -10 -28.499 -22.5 -37.499 -37.5s-13.5 -31.833 -13.5 -50.5c0 -15.333 3.16699 -29.5 9.5 -42.5s14.5 -24.167 24.5 -33.5s21.833 -16.833 35.5 -22.5s28.167 -8.5 43.5 -8.5h533v214h-530c-24.667 0 -46.334 -6.33301 -65.001 -19zM329.002 833.998h463v-76h-463v76z
" />
    <glyph glyph-name="Abreve" unicode="&#x102;" horiz-adv-x="1072" 
d="M439 878c0 -12.667 4.16895 -23.3379 12.502 -32.0049s18.833 -13 31.5 -13h156c12 0 22.5 4.33301 31.5 13s13.5 19.334 13.5 32.001v30h92v-30c0 -18.667 -3.5 -36.167 -10.5 -52.5s-16.833 -30.666 -29.5 -42.999s-27.334 -22.166 -44.001 -29.499
s-34.334 -11 -53.001 -11h-156c-36.667 0 -68.667 13 -96 39c-12.667 12.667 -22.5 27.334 -29.5 44.001s-10.5 34.334 -10.5 53.001v30h92v-30zM910.002 608.996c26 -26.667 46.666 -57.333 61.999 -92s23 -71.667 23 -111v-406h-110v301h-676v-301h-109v406
c0 40 7.66699 77.333 23 112s36 65 62 91s56.333 46.5 91 61.5s71.667 22.5 111 22.5h320c39.333 0 76.333 -7.5 111 -22.5s65.334 -35.5 92.001 -61.5zM385.001 583.997c-23.333 0 -45.498 -4.66699 -66.498 -14s-39.5 -21.833 -55.5 -37.5s-28.833 -34 -38.5 -55
s-14.834 -43.167 -15.501 -66.5h676c-0.666992 23.333 -5.83398 45.5 -15.501 66.5s-22.5 39.333 -38.5 55s-34.667 28.167 -56 37.5s-44 14 -68 14h-322z" />
    <glyph glyph-name="abreve" unicode="&#x103;" horiz-adv-x="1082" 
d="M322 0c-22 0 -43.332 3.33105 -63.999 9.99805s-40 15.667 -58 27s-34 25 -48 41s-25.333 33.333 -34 52c-6 13.333 -10.833 27 -14.5 41s-5.5 28.333 -5.5 43c0 30 6 58 18 84s28.167 48.833 48.5 68.5s43.833 35 70.5 46s54.667 16.5 84 16.5h533v25
c0 16 -3.33301 31.167 -10 45.5s-15.334 26.833 -26.001 37.5s-23.167 19 -37.5 25s-29.5 9 -45.5 9h-484v108h484c31.333 0 60.666 -5.83301 87.999 -17.5s51.333 -27.667 72 -48s36.834 -44.166 48.501 -71.499s17.5 -56.666 17.5 -87.999v-455zM257.001 301.998
c-16 -10 -28.499 -22.5 -37.499 -37.5s-13.5 -31.833 -13.5 -50.5c0 -15.333 3.16699 -29.5 9.5 -42.5s14.5 -24.167 24.5 -33.5s21.833 -16.833 35.5 -22.5s28.167 -8.5 43.5 -8.5h533v214h-530c-24.667 0 -46.334 -6.33301 -65.001 -19zM433.002 877.998
c0 -12.667 4.16895 -23.3379 12.502 -32.0049s18.833 -13 31.5 -13h156c12 0 22.5 4.33301 31.5 13s13.5 19.334 13.5 32.001v30h92v-30c0 -18.667 -3.5 -36.167 -10.5 -52.5s-16.833 -30.666 -29.5 -42.999s-27.334 -22.166 -44.001 -29.499s-34.334 -11 -53.001 -11h-156
c-36.667 0 -68.667 13 -96 39c-12.667 12.667 -22.5 27.334 -29.5 44.001s-10.5 34.334 -10.5 53.001v30h92v-30z" />
    <glyph glyph-name="Aogonek" unicode="&#x104;" horiz-adv-x="1071" 
d="M910 609c26 -26.667 46.666 -57.333 61.999 -92s23 -71.667 23 -111v-406h-110v301h-676v-301h-109v406c0 40 7.66699 77.333 23 112s36 65 62 91s56.333 46.5 91 61.5s71.667 22.5 111 22.5h320c39.333 0 76.333 -7.5 111 -22.5s65.334 -35.5 92.001 -61.5z
M384.999 584.001c-23.333 0 -45.498 -4.66699 -66.498 -14s-39.5 -21.833 -55.5 -37.5s-28.833 -34 -38.5 -55s-14.834 -43.167 -15.501 -66.5h676c-0.666992 23.333 -5.83398 45.5 -15.501 66.5s-22.5 39.333 -38.5 55s-34.667 28.167 -56 37.5s-44 14 -68 14h-322z
M947.429 -182.591c-10.9912 0 -21.7178 1.95605 -32.1846 5.87109c-10.4678 3.91504 -19.8887 9.26562 -28.2627 16.0518s-15.0469 15.0068 -20.0186 24.6631s-7.45703 20.2266 -7.45703 31.71v1.56543c0 17.7471 4.18652 34.3203 12.5605 49.7188
c8.37402 15.3975 19.3643 28.3164 32.9707 38.7559l17.2715 15.6592h86.3535l-65.1582 -61.8535c-5.75684 -5.74121 -11.1211 -11.874 -16.0928 -18.3984s-7.45801 -13.1797 -7.45801 -19.9658c0 -3.13184 0.785156 -6.26367 2.35547 -9.39551
c3.13965 -5.74121 6.80273 -9.26465 10.9893 -10.5693c4.18652 -1.30566 9.68164 -2.48047 16.4854 -3.52441h150.727v-60.2881h-153.081z" />
    <glyph glyph-name="aogonek" unicode="&#x105;" horiz-adv-x="1083" 
d="M322 0c-22 0 -43.332 3.33105 -63.999 9.99805s-40 15.667 -58 27s-34 25 -48 41s-25.333 33.333 -34 52c-6 13.333 -10.833 27 -14.5 41s-5.5 28.333 -5.5 43c0 30 6 58 18 84s28.167 48.833 48.5 68.5s43.833 35 70.5 46s54.667 16.5 84 16.5h533v25
c0 16 -3.33301 31.167 -10 45.5s-15.334 26.833 -26.001 37.5s-23.167 19 -37.5 25s-29.5 9 -45.5 9h-484v108h484c31.333 0 60.666 -5.83301 87.999 -17.5s51.333 -27.667 72 -48s36.834 -44.166 48.501 -71.499s17.5 -56.666 17.5 -87.999v-455zM257.001 301.998
c-16 -10 -28.499 -22.5 -37.499 -37.5s-13.5 -31.833 -13.5 -50.5c0 -15.333 3.16699 -29.5 9.5 -42.5s14.5 -24.167 24.5 -33.5s21.833 -16.833 35.5 -22.5s28.167 -8.5 43.5 -8.5h533v214h-530c-24.667 0 -46.334 -6.33301 -65.001 -19zM913.761 -198.319
c-12.2666 0 -24.2422 2.19238 -35.9248 6.5752s-22.1973 10.373 -31.5439 17.9697c-9.34668 7.59766 -16.7949 16.8018 -22.3447 27.6133s-8.32422 22.6455 -8.32422 35.502v1.75293c0 19.8691 4.67285 38.4238 14.0195 55.6631s21.6143 31.7031 36.8027 43.3906
l19.2764 17.5322h96.3838l-72.7256 -69.251c-6.42578 -6.42773 -12.4131 -13.2939 -17.9629 -20.5996c-5.5498 -7.30469 -8.32422 -14.7559 -8.32422 -22.3525c0 -3.50684 0.875977 -7.01367 2.62891 -10.5205c3.50488 -6.42773 7.59375 -10.3721 12.2666 -11.834
c4.67285 -1.46094 10.8066 -2.77539 18.4014 -3.94434h168.234v-67.4971h-170.863z" />
    <glyph glyph-name="Cacute" unicode="&#x106;" horiz-adv-x="1075" 
d="M731 938l-202 -201l-76 76l202 200zM185 84c-26.667 26.667 -47.499 57.3311 -62.499 91.998s-22.5 72 -22.5 112v118c0 39.333 7.66699 76.5 23 111.5s36 65.5 62 91.5s56.5 46.5 91.5 61.5s72.5 22.5 112.5 22.5h571v-109h-571c-24.667 0 -47.834 -4.66699 -69.501 -14
s-40.5 -22.166 -56.5 -38.499s-28.833 -35.333 -38.5 -57s-14.5 -44.5 -14.5 -68.5v-118c0 -24 4.66699 -46.833 14 -68.5s22 -40.667 38 -57s34.667 -29.166 56 -38.499s44.333 -14 69 -14h573v-110h-571c-40 0 -77.5 7.5 -112.5 22.5s-65.5 35.5 -91.5 61.5z" />
    <glyph glyph-name="cacute" unicode="&#x107;" horiz-adv-x="1075" 
d="M721 948l-202 -201l-76 76l202 200zM185 84c-26.667 26.667 -47.499 57.3311 -62.499 91.998s-22.5 72 -22.5 112v118c0 39.333 7.66699 76.5 23 111.5s36 65.5 62 91.5s56.5 46.5 91.5 61.5s72.5 22.5 112.5 22.5h571v-109h-571c-24.667 0 -47.834 -4.66699 -69.501 -14
s-40.5 -22.166 -56.5 -38.499s-28.833 -35.333 -38.5 -57s-14.5 -44.5 -14.5 -68.5v-118c0 -24 4.66699 -46.833 14 -68.5s22 -40.667 38 -57s34.667 -29.166 56 -38.499s44.333 -14 69 -14h573v-110h-571c-40 0 -77.5 7.5 -112.5 22.5s-65.5 35.5 -91.5 61.5z" />
    <glyph glyph-name="Ccircumflex" unicode="&#x108;" horiz-adv-x="1075" 
d="M586 882l-284 -135l-33 69l317 150l317 -150l-33 -69zM185 84c-26.667 26.667 -47.499 57.3311 -62.499 91.998s-22.5 72 -22.5 112v118c0 39.333 7.66699 76.5 23 111.5s36 65.5 62 91.5s56.5 46.5 91.5 61.5s72.5 22.5 112.5 22.5h571v-109h-571
c-24.667 0 -47.834 -4.66699 -69.501 -14s-40.5 -22.166 -56.5 -38.499s-28.833 -35.333 -38.5 -57s-14.5 -44.5 -14.5 -68.5v-118c0 -24 4.66699 -46.833 14 -68.5s22 -40.667 38 -57s34.667 -29.166 56 -38.499s44.333 -14 69 -14h573v-110h-571
c-40 0 -77.5 7.5 -112.5 22.5s-65.5 35.5 -91.5 61.5z" />
    <glyph glyph-name="ccircumflex" unicode="&#x109;" horiz-adv-x="1056" 
d="M586 882l-284 -135l-33 69l317 150l317 -150l-33 -69zM185 84c-26.667 26.667 -47.499 57.3311 -62.499 91.998s-22.5 72 -22.5 112v118c0 39.333 7.66699 76.5 23 111.5s36 65.5 62 91.5s56.5 46.5 91.5 61.5s72.5 22.5 112.5 22.5h571v-109h-571
c-24.667 0 -47.834 -4.66699 -69.501 -14s-40.5 -22.166 -56.5 -38.499s-28.833 -35.333 -38.5 -57s-14.5 -44.5 -14.5 -68.5v-118c0 -24 4.66699 -46.833 14 -68.5s22 -40.667 38 -57s34.667 -29.166 56 -38.499s44.333 -14 69 -14h573v-110h-571
c-40 0 -77.5 7.5 -112.5 22.5s-65.5 35.5 -91.5 61.5z" />
    <glyph glyph-name="Ccaron" unicode="&#x10c;" horiz-adv-x="1143" 
d="M870 966l33 -69l-317 -150l-317 150l33 69l284 -135zM185 84c-26.667 26.667 -47.499 57.3311 -62.499 91.998s-22.5 72 -22.5 112v118c0 39.333 7.66699 76.5 23 111.5s36 65.5 62 91.5s56.5 46.5 91.5 61.5s72.5 22.5 112.5 22.5h571v-109h-571
c-24.667 0 -47.834 -4.66699 -69.501 -14s-40.5 -22.166 -56.5 -38.499s-28.833 -35.333 -38.5 -57s-14.5 -44.5 -14.5 -68.5v-118c0 -24 4.66699 -46.833 14 -68.5s22 -40.667 38 -57s34.667 -29.166 56 -38.499s44.333 -14 69 -14h573v-110h-571
c-40 0 -77.5 7.5 -112.5 22.5s-65.5 35.5 -91.5 61.5z" />
    <glyph glyph-name="ccaron" unicode="&#x10d;" horiz-adv-x="1143" 
d="M870 966l33 -69l-317 -150l-317 150l33 69l284 -135zM185 84c-26.667 26.667 -47.499 57.3311 -62.499 91.998s-22.5 72 -22.5 112v118c0 39.333 7.66699 76.5 23 111.5s36 65.5 62 91.5s56.5 46.5 91.5 61.5s72.5 22.5 112.5 22.5h571v-109h-571
c-24.667 0 -47.834 -4.66699 -69.501 -14s-40.5 -22.166 -56.5 -38.499s-28.833 -35.333 -38.5 -57s-14.5 -44.5 -14.5 -68.5v-118c0 -24 4.66699 -46.833 14 -68.5s22 -40.667 38 -57s34.667 -29.166 56 -38.499s44.333 -14 69 -14h573v-110h-571
c-40 0 -77.5 7.5 -112.5 22.5s-65.5 35.5 -91.5 61.5z" />
    <glyph glyph-name="Dcaron" unicode="&#x10e;" horiz-adv-x="1127" 
d="M785 966l33 -69l-317 -150l-317 150l33 69l284 -135zM101 693h604c40 0 77.5 -7.66699 112.5 -23s65.5 -36 91.5 -62s46.5 -56.333 61.5 -91s22.5 -71.667 22.5 -111v-118c0 -40 -7.66699 -77.5 -23 -112.5s-36 -65.5 -62 -91.5s-56.5 -46.5 -91.5 -61.5
s-72.167 -22.5 -111.5 -22.5h-604v693zM883 408c0 24 -4.66797 46.666 -14.001 67.999s-22.166 40 -38.499 56s-35.333 28.667 -57 38s-44.5 14 -68.5 14h-495v-474h497c24 0 46.667 4.66699 68 14s40 22 56 38s28.667 34.833 38 56.5s14 44.834 14 69.501v120z" />
    <glyph glyph-name="dcaron" unicode="&#x10f;" horiz-adv-x="1110" 
d="M798 966l33 -69l-317 -150l-317 150l33 69l284 -135zM101 693h604c40 0 77.5 -7.66699 112.5 -23s65.5 -36 91.5 -62s46.5 -56.333 61.5 -91s22.5 -71.667 22.5 -111v-118c0 -40 -7.66699 -77.5 -23 -112.5s-36 -65.5 -62 -91.5s-56.5 -46.5 -91.5 -61.5
s-72.167 -22.5 -111.5 -22.5h-604v693zM883 408c0 24 -4.66797 46.666 -14.001 67.999s-22.166 40 -38.499 56s-35.333 28.667 -57 38s-44.5 14 -68.5 14h-495v-474h497c24 0 46.667 4.66699 68 14s40 22 56 38s28.667 34.833 38 56.5s14 44.834 14 69.501v120z" />
    <glyph glyph-name="Dcroat" unicode="&#x110;" horiz-adv-x="1088" 
d="M101 693h604c40 0 77.5 -7.66699 112.5 -23s65.5 -36 91.5 -62s46.5 -56.333 61.5 -91s22.5 -71.667 22.5 -111v-118c0 -40 -7.66699 -77.5 -23 -112.5s-36 -65.5 -62 -91.5s-56.5 -46.5 -91.5 -61.5s-72.167 -22.5 -111.5 -22.5h-604v693zM883 408
c0 24 -4.66797 46.666 -14.001 67.999s-22.166 40 -38.499 56s-35.333 28.667 -57 38s-44.5 14 -68.5 14h-495v-474h497c24 0 46.667 4.66699 68 14s40 22 56 38s28.667 34.833 38 56.5s14 44.834 14 69.501v120z" />
    <glyph glyph-name="dcroat" unicode="&#x111;" horiz-adv-x="1087" 
d="M101 693h604c40 0 77.5 -7.66699 112.5 -23s65.5 -36 91.5 -62s46.5 -56.333 61.5 -91s22.5 -71.667 22.5 -111v-118c0 -40 -7.66699 -77.5 -23 -112.5s-36 -65.5 -62 -91.5s-56.5 -46.5 -91.5 -61.5s-72.167 -22.5 -111.5 -22.5h-604v693zM883 408
c0 24 -4.66797 46.666 -14.001 67.999s-22.166 40 -38.499 56s-35.333 28.667 -57 38s-44.5 14 -68.5 14h-495v-474h497c24 0 46.667 4.66699 68 14s40 22 56 38s28.667 34.833 38 56.5s14 44.834 14 69.501v120z" />
    <glyph glyph-name="Emacron" unicode="&#x112;" horiz-adv-x="1057" 
d="M359 824h463v-76h-463v76zM263 532c-16 -16.667 -28.667 -35.667 -38 -57s-14 -44.333 -14 -69v-5h750v-110h-750v-5c0 -24 4.66699 -46.667 14 -68s22.166 -40 38.499 -56s35.333 -28.667 57 -38s44.5 -14 68.5 -14h572v-110h-572c-40 0 -77.5 7.66699 -112.5 23
s-65.5 36 -91.5 62s-46.5 56.5 -61.5 91.5s-22.5 72.167 -22.5 111.5v118c0 40 7.66699 77.333 23 112s36 65 62 91s56.5 46.5 91.5 61.5s72.167 22.5 111.5 22.5h572v-109h-572c-25.333 0 -48.666 -4.66699 -69.999 -14s-40 -22 -56 -38z" />
    <glyph glyph-name="emacron" unicode="&#x113;" horiz-adv-x="1062" 
d="M80 483c0 28.667 6.16895 55.832 18.502 81.499s28.666 47.834 48.999 66.501s44.166 33.5 71.499 44.5s56 16.5 86 16.5h433c29.333 0 57.333 -5.66699 84 -17s50.167 -26.833 70.5 -46.5s36.5 -42.5 48.5 -68.5s18 -53.667 18 -83c0 -30 -6 -58 -18 -84
s-28.333 -48.833 -49 -68.5s-44.667 -35 -72 -46s-56 -16.5 -86 -16.5h-547v-81c6 -22.667 20.5 -40.667 43.5 -54s47.833 -20 74.5 -20h635v-107h-640c-26 0 -51.833 4 -77.5 12s-49 19.667 -70 35s-38.167 34 -51.5 56s-20.333 47 -21 75v305zM305.002 583.998
c-12 0 -24.833 -2.66699 -38.5 -8s-26.5 -12.5 -38.5 -21.5s-21.833 -20 -29.5 -33s-11.5 -26.833 -11.5 -41.5v-110h551c14.667 0 29 2.83301 43 8.5s26.167 13.167 36.5 22.5s18.666 20.5 24.999 33.5s9.5 27.167 9.5 42.5s-3.16699 29.5 -9.5 42.5s-15 24.333 -26 34
s-23.667 17.167 -38 22.5s-29.166 8 -44.499 8h-429zM302.002 823.998h463v-76h-463v76z" />
    <glyph glyph-name="Edotaccent" unicode="&#x116;" horiz-adv-x="1057" 
d="M532 860h132v-109h-132v109zM263 532c-16 -16.667 -28.667 -35.667 -38 -57s-14 -44.333 -14 -69v-5h750v-110h-750v-5c0 -24 4.66699 -46.667 14 -68s22.166 -40 38.499 -56s35.333 -28.667 57 -38s44.5 -14 68.5 -14h572v-110h-572c-40 0 -77.5 7.66699 -112.5 23
s-65.5 36 -91.5 62s-46.5 56.5 -61.5 91.5s-22.5 72.167 -22.5 111.5v118c0 40 7.66699 77.333 23 112s36 65 62 91s56.5 46.5 91.5 61.5s72.167 22.5 111.5 22.5h572v-109h-572c-25.333 0 -48.666 -4.66699 -69.999 -14s-40 -22 -56 -38z" />
    <glyph glyph-name="edotaccent" unicode="&#x117;" horiz-adv-x="1069" 
d="M80 483c0 28.667 6.16895 55.832 18.502 81.499s28.666 47.834 48.999 66.501s44.166 33.5 71.499 44.5s56 16.5 86 16.5h433c29.333 0 57.333 -5.66699 84 -17s50.167 -26.833 70.5 -46.5s36.5 -42.5 48.5 -68.5s18 -53.667 18 -83c0 -30 -6 -58 -18 -84
s-28.333 -48.833 -49 -68.5s-44.667 -35 -72 -46s-56 -16.5 -86 -16.5h-547v-81c6 -22.667 20.5 -40.667 43.5 -54s47.833 -20 74.5 -20h635v-107h-640c-26 0 -51.833 4 -77.5 12s-49 19.667 -70 35s-38.167 34 -51.5 56s-20.333 47 -21 75v305zM305.002 583.998
c-12 0 -24.833 -2.66699 -38.5 -8s-26.5 -12.5 -38.5 -21.5s-21.833 -20 -29.5 -33s-11.5 -26.833 -11.5 -41.5v-110h551c14.667 0 29 2.83301 43 8.5s26.167 13.167 36.5 22.5s18.666 20.5 24.999 33.5s9.5 27.167 9.5 42.5s-3.16699 29.5 -9.5 42.5s-15 24.333 -26 34
s-23.667 17.167 -38 22.5s-29.166 8 -44.499 8h-429zM465.002 859.998h132v-109h-132v109z" />
    <glyph glyph-name="Eogonek" unicode="&#x118;" horiz-adv-x="1075" 
d="M1041 -134l-0.00195312 -76.999h-195c-14 0 -27.667 2.5 -41 7.5s-25.333 12 -36 21s-19.167 19.667 -25.5 32s-9.5 26.166 -9.5 41.499c0 21.333 5 41.5 15 60.5s22.667 35.167 38 48.5h-411c-39.333 0 -76.166 7.5 -110.499 22.5s-64.333 35.5 -90 61.5
s-46 56.167 -61 90.5s-22.5 70.833 -22.5 109.5v125c0 39.333 7.5 76.166 22.5 110.499s35.5 64.333 61.5 90s56.167 46 90.5 61s70.833 22.5 109.5 22.5h585v-76h-585c-28.667 0 -55.5 -5.33301 -80.5 -16s-47.167 -25.667 -66.5 -45s-34.333 -41.5 -45 -66.5
s-16 -51.833 -16 -80.5v-25h793v-76h-793v-26c0 -28 5.5 -54.5 16.5 -79.5s26 -46.833 45 -65.5s41.167 -33.5 66.5 -44.5s52 -16.5 80 -16.5h585v-76h-62l-58 -55c-7.33301 -7.33301 -14.166 -15.166 -20.499 -23.499s-9.5 -16.833 -9.5 -25.5c0 -4 1 -8 3 -12
c4 -7.33301 8.66699 -11.833 14 -13.5s12.333 -3.16699 21 -4.5h192z" />
    <glyph glyph-name="eogonek" unicode="&#x119;" horiz-adv-x="1122" 
d="M100 483c0 28.667 6.16895 55.832 18.502 81.499s28.666 47.834 48.999 66.501s44.166 33.5 71.499 44.5s56 16.5 86 16.5h433c29.333 0 57.333 -5.66699 84 -17s50.167 -26.833 70.5 -46.5s36.5 -42.5 48.5 -68.5s18 -53.667 18 -83c0 -30 -6 -58 -18 -84
s-28.333 -48.833 -49 -68.5s-44.667 -35 -72 -46s-56 -16.5 -86 -16.5h-547v-81c6 -22.667 20.5 -40.667 43.5 -54s47.833 -20 74.5 -20h635v-107h-640c-26 0 -51.833 4 -77.5 12s-49 19.667 -70 35s-38.167 34 -51.5 56s-20.333 47 -21 75v305zM325.002 583.998
c-12 0 -24.833 -2.66699 -38.5 -8s-26.5 -12.5 -38.5 -21.5s-21.833 -20 -29.5 -33s-11.5 -26.833 -11.5 -41.5v-110h551c14.667 0 29 2.83301 43 8.5s26.167 13.167 36.5 22.5s18.666 20.5 24.999 33.5s9.5 27.167 9.5 42.5s-3.16699 29.5 -9.5 42.5s-15 24.333 -26 34
s-23.667 17.167 -38 22.5s-29.166 8 -44.499 8h-429zM523.002 -234.002c-14 0 -27.668 2.49805 -41.001 7.49805s-25.333 11.833 -36 20.5s-19.167 19.167 -25.5 31.5s-9.5 25.833 -9.5 40.5v2c0 22.667 5.33301 43.834 16 63.501s24.667 36.167 42 49.5l22 20h110l-83 -79
c-7.33301 -7.33301 -14.166 -15.166 -20.499 -23.499s-9.5 -16.833 -9.5 -25.5c0 -4 1 -8 3 -12c4 -7.33301 8.66699 -11.833 14 -13.5s12.333 -3.16699 21 -4.5h192v-77h-195z" />
    <glyph glyph-name="Ecaron" unicode="&#x11a;" horiz-adv-x="1057" 
d="M854 966l33 -69l-317 -150l-317 150l33 69l284 -135zM263 532c-16 -16.667 -28.667 -35.667 -38 -57s-14 -44.333 -14 -69v-5h750v-110h-750v-5c0 -24 4.66699 -46.667 14 -68s22.166 -40 38.499 -56s35.333 -28.667 57 -38s44.5 -14 68.5 -14h572v-110h-572
c-40 0 -77.5 7.66699 -112.5 23s-65.5 36 -91.5 62s-46.5 56.5 -61.5 91.5s-22.5 72.167 -22.5 111.5v118c0 40 7.66699 77.333 23 112s36 65 62 91s56.5 46.5 91.5 61.5s72.167 22.5 111.5 22.5h572v-109h-572c-25.333 0 -48.666 -4.66699 -69.999 -14s-40 -22 -56 -38z
" />
    <glyph glyph-name="ecaron" unicode="&#x11b;" horiz-adv-x="1094" 
d="M100 483c0 28.667 6.16895 55.832 18.502 81.499s28.666 47.834 48.999 66.501s44.166 33.5 71.499 44.5s56 16.5 86 16.5h433c29.333 0 57.333 -5.66699 84 -17s50.167 -26.833 70.5 -46.5s36.5 -42.5 48.5 -68.5s18 -53.667 18 -83c0 -30 -6 -58 -18 -84
s-28.333 -48.833 -49 -68.5s-44.667 -35 -72 -46s-56 -16.5 -86 -16.5h-547v-81c6 -22.667 20.5 -40.667 43.5 -54s47.833 -20 74.5 -20h635v-107h-640c-26 0 -51.833 4 -77.5 12s-49 19.667 -70 35s-38.167 34 -51.5 56s-20.333 47 -21 75v305zM325.002 583.998
c-12 0 -24.833 -2.66699 -38.5 -8s-26.5 -12.5 -38.5 -21.5s-21.833 -20 -29.5 -33s-11.5 -26.833 -11.5 -41.5v-110h551c14.667 0 29 2.83301 43 8.5s26.167 13.167 36.5 22.5s18.666 20.5 24.999 33.5s9.5 27.167 9.5 42.5s-3.16699 29.5 -9.5 42.5s-15 24.333 -26 34
s-23.667 17.167 -38 22.5s-29.166 8 -44.499 8h-429zM816.002 965.998l33 -69l-317 -150l-317 150l33 69l284 -135z" />
    <glyph glyph-name="Gcircumflex" unicode="&#x11c;" horiz-adv-x="1063" 
d="M565 882l-284 -135l-33 69l317 150l317 -150l-33 -69zM182 82c-26 26 -46.333 56.168 -61 90.501s-22 70.5 -22 108.5v129c0 38.667 7.5 75.167 22.5 109.5s35.167 64.166 60.5 89.499s55.166 45.5 89.499 60.5s70.833 22.5 109.5 22.5h560v-108h-560
c-24 0 -46.667 -4.5 -68 -13.5s-39.833 -21.333 -55.5 -37s-28.167 -34 -37.5 -55s-14 -43.5 -14 -67.5v-130c0 -23.333 4.5 -45.5 13.5 -66.5s21.333 -39.5 37 -55.5s34 -28.667 55 -38s43.5 -14 67.5 -14h454v181h-414v107h522v-395h-560
c-38.667 -0 -75.167 7.33301 -109.5 22s-64.166 34.667 -89.499 60z" />
    <glyph glyph-name="gcircumflex" unicode="&#x11d;" horiz-adv-x="1155" 
d="M584 882l-284 -135l-33 69l317 150l317 -150l-33 -69z" />
    <glyph glyph-name="Gbreve" unicode="&#x11e;" horiz-adv-x="1118" 
d="M411 878c0 -12.667 4.16895 -23.3379 12.502 -32.0049s18.833 -13 31.5 -13h156c12 0 22.5 4.33301 31.5 13s13.5 19.334 13.5 32.001v30h92v-30c0 -18.667 -3.5 -36.167 -10.5 -52.5s-16.833 -30.666 -29.5 -42.999s-27.334 -22.166 -44.001 -29.499
s-34.334 -11 -53.001 -11h-156c-36.667 0 -68.667 13 -96 39c-12.667 12.667 -22.5 27.334 -29.5 44.001s-10.5 34.334 -10.5 53.001v30h92v-30zM388.002 -0.00390625c-39.333 0 -76.333 7.49902 -111 22.499s-65 35.5 -91 61.5s-46.667 56.5 -62 91.5s-23 72.5 -23 112.5
v118c0 39.333 7.5 76.333 22.5 111s35.5 65 61.5 91s56.333 46.667 91 62s72 23 112 23h416v-109h-416c-24 0 -46.833 -4.66699 -68.5 -14s-40.5 -22 -56.5 -38s-28.833 -34.667 -38.5 -56s-14.5 -44 -14.5 -68v-120c0 -24 4.66699 -46.833 14 -68.5s22 -40.667 38 -57
s34.667 -29.166 56 -38.499s44 -14 68 -14h322c24 0 46.833 4.66699 68.5 14s40.5 22 56.5 38s28.833 34.667 38.5 56s14.5 44 14.5 68v8h-299v110h409v-116c0 -39.333 -7.5 -76.5 -22.5 -111.5s-35.5 -65.5 -61.5 -91.5s-56.5 -46.667 -91.5 -62s-72.5 -23 -112.5 -23h-320
z" />
    <glyph glyph-name="gbreve" unicode="&#x11f;" horiz-adv-x="1155" 
d="M475 858c0 -12.667 4.16895 -23.3379 12.502 -32.0049s18.833 -13 31.5 -13h156c12 0 22.5 4.33301 31.5 13s13.5 19.334 13.5 32.001v30h92v-30c0 -18.667 -3.5 -36.167 -10.5 -52.5s-16.833 -30.666 -29.5 -42.999s-27.334 -22.166 -44.001 -29.499
s-34.334 -11 -53.001 -11h-156c-36.667 0 -68.667 13 -96 39c-12.667 12.667 -22.5 27.334 -29.5 44.001s-10.5 34.334 -10.5 53.001v30h92v-30z" />
    <glyph glyph-name="Gcommaaccent" unicode="&#x122;" horiz-adv-x="1071" 
d="M388 0c-39.333 0 -76.333 7.49902 -111 22.499s-65 35.5 -91 61.5s-46.667 56.5 -62 91.5s-23 72.5 -23 112.5v118c0 39.333 7.5 76.333 22.5 111s35.5 65 61.5 91s56.333 46.667 91 62s72 23 112 23h416v-109h-416c-24 0 -46.833 -4.66699 -68.5 -14
s-40.5 -22 -56.5 -38s-28.833 -34.667 -38.5 -56s-14.5 -44 -14.5 -68v-120c0 -24 4.66699 -46.833 14 -68.5s22 -40.667 38 -57s34.667 -29.166 56 -38.499s44 -14 68 -14h322c24 0 46.833 4.66699 68.5 14s40.5 22 56.5 38s28.833 34.667 38.5 56s14.5 44 14.5 68v8h-299
v110h409v-116c0 -39.333 -7.5 -76.5 -22.5 -111.5s-35.5 -65.5 -61.5 -91.5s-56.5 -46.667 -91.5 -62s-72.5 -23 -112.5 -23h-320zM445 -211.001l87 186l69 -32l-87 -186z" />
    <glyph glyph-name="gcommaaccent" unicode="&#x123;" horiz-adv-x="1062" 
d="M182 82c-26 26 -46.333 56.168 -61 90.501s-22 70.5 -22 108.5v129c0 38.667 7.5 75.167 22.5 109.5s35.167 64.166 60.5 89.499s55.166 45.5 89.499 60.5s70.833 22.5 109.5 22.5h560v-108h-560c-24 0 -46.667 -4.5 -68 -13.5s-39.833 -21.333 -55.5 -37
s-28.167 -34 -37.5 -55s-14 -43.5 -14 -67.5v-130c0 -23.333 4.5 -45.5 13.5 -66.5s21.333 -39.5 37 -55.5s34 -28.667 55 -38s43.5 -14 67.5 -14h454v181h-414v107h522v-395h-560c-38.667 -0 -75.167 7.33301 -109.5 22s-64.166 34.667 -89.499 60zM496 -216.999l87 186
l69 -32l-87 -186z" />
    <glyph glyph-name="Hcircumflex" unicode="&#x124;" horiz-adv-x="1125" 
d="M525 882l-284 -135l-33 69l317 150l317 -150l-33 -69zM942 693v-693h-111v317h-621v-317h-110v693h110v-266h621v266h111z" />
    <glyph glyph-name="hcircumflex" unicode="&#x125;" horiz-adv-x="1163" 
d="M841 599c26 -25.333 46.334 -55.167 61.001 -89.5s22 -70.833 22 -109.5v-400h-107v400c0 25.333 -4.66699 48.666 -14 69.999s-21.833 39.833 -37.5 55.5s-34.167 27.834 -55.5 36.501s-44 13 -68 13h-262c-24.667 0 -47.667 -4.5 -69 -13.5
s-39.666 -21.5 -54.999 -37.5s-27.5 -34.667 -36.5 -56s-13.5 -44 -13.5 -68v-400h-107v832h107v-210c24 19.333 50.667 34.333 80 45s60.666 16 93.999 16h262c38.667 0 75.167 -7.5 109.5 -22.5s64.166 -35.5 89.499 -61.5zM563.001 881.999l-284 -135l-33 69l317 150
l317 -150l-33 -69z" />
    <glyph glyph-name="Imacron" unicode="&#x12a;" horiz-adv-x="451" 
d="M-87 824h463v-76h-463v76zM88 0v693h110v-693h-110z" />
    <glyph glyph-name="imacron" unicode="&#x12b;" horiz-adv-x="465" 
d="M-90 814h463v-76h-463v76zM88 0v693h110v-693h-110z" />
    <glyph glyph-name="Iogonek" unicode="&#x12e;" horiz-adv-x="241" 
d="M88 0v693h110v-693h-110zM123.498 -186.143c-11.1279 0 -21.9902 1.98926 -32.5869 5.96777c-10.5977 3.97852 -20.1357 9.41602 -28.6133 16.3115c-8.47754 6.89648 -15.2334 15.252 -20.2676 25.0654c-5.0332 9.81348 -7.5498 20.5557 -7.5498 32.2266v1.59082
c0 18.0361 4.23926 34.8789 12.7168 50.5283s19.6045 28.7783 33.3809 39.3877l17.4863 15.9141h87.4277l-65.9688 -62.8613c-5.82812 -5.83496 -11.2588 -12.0684 -16.293 -18.6992s-7.55078 -13.3945 -7.55078 -20.291c0 -3.18262 0.794922 -6.36523 2.38477 -9.54785
c3.17871 -5.83496 6.8877 -9.41602 11.127 -10.7422s9.80273 -2.51953 16.6904 -3.58105h152.602v-61.2695h-154.985z" />
    <glyph glyph-name="iogonek" unicode="&#x12f;" horiz-adv-x="241" 
d="M88 0v693h110v-693h-110zM121.762 -175.084c-10.3525 0 -20.459 1.85254 -30.3184 5.55469s-18.7324 8.76172 -26.6201 15.1787s-14.1729 14.1914 -18.8555 23.3232s-7.02441 19.127 -7.02441 29.9863v1.48145c0 16.7822 3.94336 32.4541 11.8311 47.0156
s18.2402 26.7783 31.0576 36.6504l16.2676 14.8086h81.3379l-61.373 -58.4932c-5.42285 -5.42969 -10.4756 -11.2295 -15.1592 -17.4004c-4.68262 -6.16992 -7.02441 -12.4629 -7.02441 -18.8799c0 -2.96191 0.739258 -5.92383 2.21875 -8.88574
c2.95801 -5.42969 6.4082 -8.76172 10.3516 -9.99512c3.94434 -1.23438 9.12012 -2.34473 15.5283 -3.33203h141.973v-57.0127h-144.19z" />
    <glyph glyph-name="Idotaccent" unicode="&#x130;" horiz-adv-x="271" 
d="M77 890h132v-109h-132v109zM88 0v693h110v-693h-110z" />
    <glyph glyph-name="dotlessi" unicode="&#x131;" horiz-adv-x="241" 
d="M88 0v693h110v-693h-110z" />
    <glyph glyph-name="Jcircumflex" unicode="&#x134;" 
d="M185 84c-26.667 26.667 -47.499 57.333 -62.499 92s-22.5 72 -22.5 112v74h110v-74c0 -24 4.66699 -46.833 14 -68.5s22 -40.667 38 -57s34.667 -29.166 56 -38.499s44.333 -14 69 -14h269c24 0 46.833 4.66699 68.5 14s40.667 22 57 38s29.166 34.667 38.499 56
s14 44 14 68v407h110v-405c0 -40 -7.5 -77.333 -22.5 -112s-35.833 -65.334 -62.5 -92.001c-26 -26 -56.333 -46.5 -91 -61.5s-72 -22.5 -112 -22.5h-268c-40 0 -77.333 7.5 -112 22.5s-65 35.5 -91 61.5zM913.001 879.999l-284 -135l-33 69l317 150l317 -150l-33 -69z" />
    <glyph glyph-name="jcircumflex" unicode="&#x135;" horiz-adv-x="1060" 
d="M214 692h711v-411c0 -38 -7.33301 -74.167 -22 -108.5s-35 -64.5 -61 -90.5c-25.333 -25.333 -55 -45.333 -89 -60s-70.333 -22 -109 -22h-262c-39.333 -0 -76 7.33301 -110 22s-63.667 34.667 -89 60c-26 26 -46.333 56.167 -61 90.5s-22 70.5 -22 108.5v74h107v-74
c0 -23.333 4.5 -45.5 13.5 -66.5s21.333 -39.5 37 -55.5s34 -28.667 55 -38s43.5 -14 67.5 -14h264c23.333 0 45.5 4.5 66.5 13.5s39.5 21.333 55.5 37s28.667 34 38 55s14 43.5 14 67.5v304h-604v108zM579 880l-284 -135l-33 69l317 150l317 -150l-33 -69z" />
    <glyph glyph-name="Kcommaaccent" unicode="&#x136;" horiz-adv-x="1040" 
d="M961 586c0 -48 -10.999 -92.335 -32.999 -133.002s-51 -74 -87 -100c36 -26.667 65 -60.5 87 -101.5s33 -85.167 33 -132.5v-119h-110v119c0 24.667 -4.83301 47.834 -14.5 69.501s-22.5 40.5 -38.5 56.5s-34.833 28.667 -56.5 38s-44.834 14 -69.501 14h-462v-297h-110
v701h110v-293h462c24.667 0 47.834 4.66699 69.501 14s40.667 22 57 38s29.166 34.833 38.499 56.5s14 44.834 14 69.501v115h110v-115v0zM431.001 -151.002l87 186l69 -32l-87 -186z" />
    <glyph glyph-name="kcommaaccent" unicode="&#x137;" horiz-adv-x="1087" 
d="M744 386c30 -8 57.6689 -20.667 83.002 -38s47.166 -38 65.499 -62s32.666 -50.667 42.999 -80s15.5 -60 15.5 -92v-114h-107v116c0 23.333 -4.66699 45.5 -14 66.5s-22 39.333 -38 55s-34.5 28 -55.5 37s-43.5 13.5 -67.5 13.5h-463v-288h-107v692h107v-296h404
l123.5 148l122.5 148h146zM412.002 -151l87 186l69 -32l-87 -186z" />
    <glyph glyph-name="Lacute" unicode="&#x139;" horiz-adv-x="1033" 
d="M210 693l0.00195312 -404.001c0 -25.333 4.66699 -48.666 14 -69.999s22 -40 38 -56s34.667 -28.833 56 -38.5s44.666 -14.5 69.999 -14.5h571v-110h-571c-40 0 -77.333 7.5 -112 22.5s-65.334 35.833 -92.001 62.5c-26 26 -46.5 56.5 -61.5 91.5s-22.5 72.5 -22.5 112.5
v404h110zM644.002 866.999l-202 -201l-76 76l202 200z" />
    <glyph glyph-name="lacute" unicode="&#x13a;" horiz-adv-x="969" 
d="M207 692v-409.999c0 -24 4.5 -46.667 13.5 -68s21.333 -39.833 37 -55.5s34.167 -28.167 55.5 -37.5s44 -14 68 -14h560v-107h-560c-38.667 0 -75 7.33301 -109 22s-64 35 -90 61c-25.333 25.333 -45.333 55.166 -60 89.499s-22 70.833 -22 109.5v410h107zM612 866.001
l-202 -201l-76 76l202 200z" />
    <glyph glyph-name="Lcommaaccent" unicode="&#x13b;" horiz-adv-x="1033" 
d="M210 693l0.00195312 -404.001c0 -25.333 4.66699 -48.666 14 -69.999s22 -40 38 -56s34.667 -28.833 56 -38.5s44.666 -14.5 69.999 -14.5h571v-110h-571c-40 0 -77.333 7.5 -112 22.5s-65.334 35.833 -92.001 62.5c-26 26 -46.5 56.5 -61.5 91.5s-22.5 72.5 -22.5 112.5
v404h110zM438.002 -151.001l87 186l69 -32l-87 -186z" />
    <glyph glyph-name="lcommaaccent" unicode="&#x13c;" horiz-adv-x="969" 
d="M207 692v-409.999c0 -24 4.5 -46.667 13.5 -68s21.333 -39.833 37 -55.5s34.167 -28.167 55.5 -37.5s44 -14 68 -14h560v-107h-560c-38.667 0 -75 7.33301 -109 22s-64 35 -90 61c-25.333 25.333 -45.333 55.166 -60 89.499s-22 70.833 -22 109.5v410h107zM406 -150.999
l87 186l69 -32l-87 -186z" />
    <glyph glyph-name="Lcaron" unicode="&#x13d;" horiz-adv-x="1010" 
d="M480 497l55 203h65l-55 -203h-65zM210 693l0.00195312 -404.001c0 -25.333 4.66699 -48.666 14 -69.999s22 -40 38 -56s34.667 -28.833 56 -38.5s44.666 -14.5 69.999 -14.5h571v-110h-571c-40 0 -77.333 7.5 -112 22.5s-65.334 35.833 -92.001 62.5
c-26 26 -46.5 56.5 -61.5 91.5s-22.5 72.5 -22.5 112.5v404h110z" />
    <glyph glyph-name="lcaron" unicode="&#x13e;" horiz-adv-x="993" 
d="M210 693l0.00195312 -404.001c0 -25.333 4.66699 -48.666 14 -69.999s22 -40 38 -56s34.667 -28.833 56 -38.5s44.666 -14.5 69.999 -14.5h571v-110h-571c-40 0 -77.333 7.5 -112 22.5s-65.334 35.833 -92.001 62.5c-26 26 -46.5 56.5 -61.5 91.5s-22.5 72.5 -22.5 112.5
v404h110zM422.002 953.999l33 -69l-317 -150l-317 150l33 69l284 -135z" />
    <glyph glyph-name="Lslash" unicode="&#x141;" horiz-adv-x="1033" 
d="M1053 76l-0.00195312 -76h-584c-39.333 0 -76.166 7.5 -110.499 22.5s-64.5 35.5 -90.5 61.5c-22.667 22.667 -41.167 48.667 -55.5 78s-23.166 61 -26.499 95l-186 -107l-38 66l223 127v350h76v-306l258 148l38 -66l-296 -169v-15c0 -29.333 5.33301 -56.5 16 -81.5
s25.667 -46.833 45 -65.5c19.333 -19.333 41.5 -34.5 66.5 -45.5s51.833 -16.5 80.5 -16.5h584z" />
    <glyph glyph-name="lslash" unicode="&#x142;" horiz-adv-x="1069" 
d="M1053 76l-0.00195312 -76h-584c-39.333 0 -76.166 7.5 -110.499 22.5s-64.5 35.5 -90.5 61.5c-22.667 22.667 -41.167 48.667 -55.5 78s-23.166 61 -26.499 95l-186 -107l-38 66l223 127v350h76v-306l258 148l38 -66l-296 -169v-15c0 -29.333 5.33301 -56.5 16 -81.5
s25.667 -46.833 45 -65.5c19.333 -19.333 41.5 -34.5 66.5 -45.5s51.833 -16.5 80.5 -16.5h584z" />
    <glyph glyph-name="Nacute" unicode="&#x143;" horiz-adv-x="1163" 
d="M788 868l-202 -201l-76 76l202 200zM785 8c-9.33301 4 -18.001 8.99902 -26.001 14.999s-16.333 14 -25 24l-110.5 129l-116 137l-116 136.5l-109.5 129.5c-8 8 -18 12 -30 12c-10.667 0 -20.167 -2.66699 -28.5 -8s-12.833 -13.666 -13.5 -24.999v-558h-109v566l1 3
c1.33301 20.667 6.5 39.334 15.5 56.001s20.667 30.667 35 42s30.333 20 48 26s35.5 9 53.5 9c21.333 0 41.833 -4.16699 61.5 -12.5s36.834 -22.166 51.501 -41.499l225 -265l226 -266c3.33301 -3.33301 7.83301 -6.33301 13.5 -9s11.167 -4 16.5 -4c9.33301 0 18 3 26 9
s13 14 15 24v558h110v-566c-2 -20.667 -7.66699 -39.334 -17 -56.001s-20.833 -31 -34.5 -43s-29.167 -21.167 -46.5 -27.5s-35.333 -9.5 -54 -9.5c-10 0 -20.5 1.16699 -31.5 3.5s-21.167 6.16602 -30.5 11.499z" />
    <glyph glyph-name="nacute" unicode="&#x144;" horiz-adv-x="1027" 
d="M641 692c38.667 0 74.999 -7.49902 108.999 -22.499s63.833 -35.167 89.5 -60.5s45.834 -55.333 60.501 -90s22 -71.334 22 -110.001v-409h-107v409c0 24 -4.5 46.5 -13.5 67.5s-21.333 39.5 -37 55.5s-34 28.667 -55 38s-43.167 14 -66.5 14h-439v-584h-107v692h544z
M642.999 938.001l-202 -201l-76 76l202 200z" />
    <glyph glyph-name="Ncommaaccent" unicode="&#x145;" horiz-adv-x="1163" 
d="M785 8c-9.33301 4 -18.001 8.99902 -26.001 14.999s-16.333 14 -25 24l-110.5 129l-116 137l-116 136.5l-109.5 129.5c-8 8 -18 12 -30 12c-10.667 0 -20.167 -2.66699 -28.5 -8s-12.833 -13.666 -13.5 -24.999v-558h-109v566l1 3c1.33301 20.667 6.5 39.334 15.5 56.001
s20.667 30.667 35 42s30.333 20 48 26s35.5 9 53.5 9c21.333 0 41.833 -4.16699 61.5 -12.5s36.834 -22.166 51.501 -41.499l225 -265l226 -266c3.33301 -3.33301 7.83301 -6.33301 13.5 -9s11.167 -4 16.5 -4c9.33301 0 18 3 26 9s13 14 15 24v558h110v-566
c-2 -20.667 -7.66699 -39.334 -17 -56.001s-20.833 -31 -34.5 -43s-29.167 -21.167 -46.5 -27.5s-35.333 -9.5 -54 -9.5c-10 0 -20.5 1.16699 -31.5 3.5s-21.167 6.16602 -30.5 11.499zM457.999 -151.001l87 186l69 -32l-87 -186z" />
    <glyph glyph-name="ncommaaccent" unicode="&#x146;" horiz-adv-x="1041" 
d="M641 692c38.667 0 74.999 -7.49902 108.999 -22.499s63.833 -35.167 89.5 -60.5s45.834 -55.333 60.501 -90s22 -71.334 22 -110.001v-409h-107v409c0 24 -4.5 46.5 -13.5 67.5s-21.333 39.5 -37 55.5s-34 28.667 -55 38s-43.167 14 -66.5 14h-439v-584h-107v692h544z
M424.999 -150.999l87 186l69 -32l-87 -186z" />
    <glyph glyph-name="Ncaron" unicode="&#x147;" horiz-adv-x="1163" 
d="M847 947l33 -69l-317 -150l-317 150l33 69l284 -135zM785 8c-9.33301 4 -18.001 8.99902 -26.001 14.999s-16.333 14 -25 24l-110.5 129l-116 137l-116 136.5l-109.5 129.5c-8 8 -18 12 -30 12c-10.667 0 -20.167 -2.66699 -28.5 -8s-12.833 -13.666 -13.5 -24.999v-558
h-109v566l1 3c1.33301 20.667 6.5 39.334 15.5 56.001s20.667 30.667 35 42s30.333 20 48 26s35.5 9 53.5 9c21.333 0 41.833 -4.16699 61.5 -12.5s36.834 -22.166 51.501 -41.499l225 -265l226 -266c3.33301 -3.33301 7.83301 -6.33301 13.5 -9s11.167 -4 16.5 -4
c9.33301 0 18 3 26 9s13 14 15 24v558h110v-566c-2 -20.667 -7.66699 -39.334 -17 -56.001s-20.833 -31 -34.5 -43s-29.167 -21.167 -46.5 -27.5s-35.333 -9.5 -54 -9.5c-10 0 -20.5 1.16699 -31.5 3.5s-21.167 6.16602 -30.5 11.499z" />
    <glyph glyph-name="ncaron" unicode="&#x148;" horiz-adv-x="1031" 
d="M641 692c38.667 0 74.999 -7.49902 108.999 -22.499s63.833 -35.167 89.5 -60.5s45.834 -55.333 60.501 -90s22 -71.334 22 -110.001v-409h-107v409c0 24 -4.5 46.5 -13.5 67.5s-21.333 39.5 -37 55.5s-34 28.667 -55 38s-43.167 14 -66.5 14h-439v-584h-107v692h544z
M773.999 966.001l33 -69l-317 -150l-317 150l33 69l284 -135z" />
    <glyph glyph-name="Omacron" unicode="&#x14c;" horiz-adv-x="1224" 
d="M422 824h463v-76h-463v76zM391 0c-40 0 -77.5 7.5 -112.5 22.5s-65.5 35.5 -91.5 61.5s-46.5 56.5 -61.5 91.5s-22.5 72.5 -22.5 112.5v118c0 39.333 7.5 76.5 22.5 111.5s35.5 65.5 61.5 91.5s56.5 46.5 91.5 61.5s72.5 22.5 112.5 22.5h486c40 0 77.5 -7.5 112.5 -22.5
s65.5 -35.5 91.5 -61.5s46.5 -56.5 61.5 -91.5s22.5 -72.167 22.5 -111.5v-118c0 -40 -7.5 -77.5 -22.5 -112.5s-35.5 -65.5 -61.5 -91.5s-56.5 -46.5 -91.5 -61.5s-72.5 -22.5 -112.5 -22.5h-486zM213 288c0 -24.667 4.66699 -47.834 14 -69.501s22 -40.5 38 -56.5
s34.833 -28.667 56.5 -38s44.834 -14 69.501 -14h486c24.667 0 47.834 4.66699 69.501 14s40.667 22 57 38s29.166 34.833 38.499 56.5s14 44.834 14 69.501v118c0 24 -4.66699 46.833 -14 68.5s-22.166 40.667 -38.499 57s-35.333 29.166 -57 38.499s-44.834 14 -69.501 14
h-486c-24.667 0 -47.834 -4.66699 -69.501 -14s-40.5 -22.166 -56.5 -38.499s-28.667 -35.333 -38 -57s-14 -44.5 -14 -68.5v-118z" />
    <glyph glyph-name="omacron" unicode="&#x14d;" horiz-adv-x="1224" 
d="M411 824h463v-76h-463v76zM391 0c-40 0 -77.5 7.5 -112.5 22.5s-65.5 35.5 -91.5 61.5s-46.5 56.5 -61.5 91.5s-22.5 72.5 -22.5 112.5v118c0 39.333 7.5 76.5 22.5 111.5s35.5 65.5 61.5 91.5s56.5 46.5 91.5 61.5s72.5 22.5 112.5 22.5h486c40 0 77.5 -7.5 112.5 -22.5
s65.5 -35.5 91.5 -61.5s46.5 -56.5 61.5 -91.5s22.5 -72.167 22.5 -111.5v-118c0 -40 -7.5 -77.5 -22.5 -112.5s-35.5 -65.5 -61.5 -91.5s-56.5 -46.5 -91.5 -61.5s-72.5 -22.5 -112.5 -22.5h-486zM213 288c0 -24.667 4.66699 -47.834 14 -69.501s22 -40.5 38 -56.5
s34.833 -28.667 56.5 -38s44.834 -14 69.501 -14h486c24.667 0 47.834 4.66699 69.501 14s40.667 22 57 38s29.166 34.833 38.499 56.5s14 44.834 14 69.501v118c0 24 -4.66699 46.833 -14 68.5s-22.166 40.667 -38.499 57s-35.333 29.166 -57 38.499s-44.834 14 -69.501 14
h-486c-24.667 0 -47.834 -4.66699 -69.501 -14s-40.5 -22.166 -56.5 -38.499s-28.667 -35.333 -38 -57s-14 -44.5 -14 -68.5v-118z" />
    <glyph glyph-name="Ohungarumlaut" unicode="&#x150;" horiz-adv-x="1224" 
d="M660 906l-190 -189l-54 54l190 189zM880 906l-190 -189l-54 54l190 189zM391 0c-40 0 -77.5 7.5 -112.5 22.5s-65.5 35.5 -91.5 61.5s-46.5 56.5 -61.5 91.5s-22.5 72.5 -22.5 112.5v118c0 39.333 7.5 76.5 22.5 111.5s35.5 65.5 61.5 91.5s56.5 46.5 91.5 61.5
s72.5 22.5 112.5 22.5h486c40 0 77.5 -7.5 112.5 -22.5s65.5 -35.5 91.5 -61.5s46.5 -56.5 61.5 -91.5s22.5 -72.167 22.5 -111.5v-118c0 -40 -7.5 -77.5 -22.5 -112.5s-35.5 -65.5 -61.5 -91.5s-56.5 -46.5 -91.5 -61.5s-72.5 -22.5 -112.5 -22.5h-486zM213 288
c0 -24.667 4.66699 -47.834 14 -69.501s22 -40.5 38 -56.5s34.833 -28.667 56.5 -38s44.834 -14 69.501 -14h486c24.667 0 47.834 4.66699 69.501 14s40.667 22 57 38s29.166 34.833 38.499 56.5s14 44.834 14 69.501v118c0 24 -4.66699 46.833 -14 68.5
s-22.166 40.667 -38.499 57s-35.333 29.166 -57 38.499s-44.834 14 -69.501 14h-486c-24.667 0 -47.834 -4.66699 -69.501 -14s-40.5 -22.166 -56.5 -38.499s-28.667 -35.333 -38 -57s-14 -44.5 -14 -68.5v-118z" />
    <glyph glyph-name="ohungarumlaut" unicode="&#x151;" horiz-adv-x="1224" 
d="M657 906l-190 -189l-54 54l190 189zM877 906l-190 -189l-54 54l190 189zM391 0c-40 0 -77.5 7.5 -112.5 22.5s-65.5 35.5 -91.5 61.5s-46.5 56.5 -61.5 91.5s-22.5 72.5 -22.5 112.5v118c0 39.333 7.5 76.5 22.5 111.5s35.5 65.5 61.5 91.5s56.5 46.5 91.5 61.5
s72.5 22.5 112.5 22.5h486c40 0 77.5 -7.5 112.5 -22.5s65.5 -35.5 91.5 -61.5s46.5 -56.5 61.5 -91.5s22.5 -72.167 22.5 -111.5v-118c0 -40 -7.5 -77.5 -22.5 -112.5s-35.5 -65.5 -61.5 -91.5s-56.5 -46.5 -91.5 -61.5s-72.5 -22.5 -112.5 -22.5h-486zM213 288
c0 -24.667 4.66699 -47.834 14 -69.501s22 -40.5 38 -56.5s34.833 -28.667 56.5 -38s44.834 -14 69.501 -14h486c24.667 0 47.834 4.66699 69.501 14s40.667 22 57 38s29.166 34.833 38.499 56.5s14 44.834 14 69.501v118c0 24 -4.66699 46.833 -14 68.5
s-22.166 40.667 -38.499 57s-35.333 29.166 -57 38.499s-44.834 14 -69.501 14h-486c-24.667 0 -47.834 -4.66699 -69.501 -14s-40.5 -22.166 -56.5 -38.499s-28.667 -35.333 -38 -57s-14 -44.5 -14 -68.5v-118z" />
    <glyph glyph-name="OE" unicode="&#x152;" horiz-adv-x="1907" 
d="M1070 399l684.002 -0.000976562v-110h-684v-7c0 -24 4.83301 -46.5 14.5 -67.5s22.667 -39.5 39 -55.5s35.166 -28.5 56.499 -37.5s44 -13.5 68 -13.5h506v-110h-506c-48 0 -92.333 10.667 -133 32s-74 50.333 -100 87c-26 -36.667 -59.333 -65.667 -100 -87
s-85 -32 -133 -32h-392c-40 0 -77.5 7.66699 -112.5 23s-65.5 36 -91.5 62s-46.5 56.5 -61.5 91.5s-22.5 72.167 -22.5 111.5v120c0 40 7.5 77.333 22.5 112s35.5 65 61.5 91s56.5 46.5 91.5 61.5s72.5 22.5 112.5 22.5h392c48 0 92.333 -11 133 -33s74 -51 100 -87
c13.333 16 28.833 31.333 46.5 46s36.667 27.334 57 38.001s41.5 19.167 63.5 25.5s44 9.5 66 9.5h506v-110h-506c-24.667 0 -47.834 -4.66699 -69.501 -14s-40.5 -22 -56.5 -38s-28.5 -34.5 -37.5 -55.5s-13.833 -43.167 -14.5 -66.5v-9zM960.002 405.999
c0 24 -4.66699 46.833 -14 68.5s-22 40.667 -38 57s-34.833 29.166 -56.5 38.499s-44.834 14 -69.501 14h-392c-24 0 -46.833 -4.66699 -68.5 -14s-40.667 -22.166 -57 -38.499s-29.166 -35.333 -38.499 -57s-14 -44.5 -14 -68.5v-120c0 -24.667 4.66699 -47.834 14 -69.501
s22.166 -40.5 38.499 -56.5s35.333 -28.667 57 -38s44.5 -14 68.5 -14h392c24.667 0 47.834 4.66699 69.501 14s40.5 22 56.5 38s28.667 34.833 38 56.5s14 44.834 14 69.501v120z" />
    <glyph glyph-name="oe" unicode="&#x153;" horiz-adv-x="2017" 
d="M1040 181c2 -12.667 6.49707 -23.6699 13.4971 -33.0029s15.833 -17 26.5 -23s22.667 -10.5 36 -13.5s27 -4.5 41 -4.5h606v-107h-610c-36 0 -71.333 7.66699 -106 23s-62.667 37.333 -84 66c-26 -27.333 -56.667 -49 -92 -65s-73.333 -24 -114 -24h-364
c-39.333 0 -76 7.33301 -110 22s-63.833 34.834 -89.5 60.501s-45.834 55.5 -60.501 89.5s-22 70.333 -22 109v130c0 38.667 7.33301 75.167 22 109.5s34.834 64.333 60.501 90s55.5 45.834 89.5 60.501s70.667 22 110 22h364c42.667 0 82.334 -8.83301 119.001 -26.5
s67.667 -41.5 93 -71.5c21.333 28.667 48.5 51.667 81.5 69s68.5 26 106.5 26h434c29.333 0 57.333 -5.66699 84 -17s50.167 -26.666 70.5 -45.999s36.5 -42 48.5 -68s18 -54 18 -84s-6.16699 -58 -18.5 -84s-28.666 -48.5 -48.999 -67.5s-44.166 -34 -71.499 -45
s-56 -16.5 -86 -16.5h-547v-81zM1040 369.997l551.002 0.000976562c14.667 0 29 2.66699 43 8s26.167 12.666 36.5 21.999s18.666 20.333 24.999 33s9.5 26.667 9.5 42s-3.16699 29.666 -9.5 42.999s-15 24.833 -26 34.5s-23.667 17.167 -38 22.5s-29.166 8 -44.499 8h-430
c-12 0 -24.833 -2.66699 -38.5 -8s-26.334 -12.666 -38.001 -21.999s-21.334 -20.5 -29.001 -33.5s-11.5 -26.833 -11.5 -41.5v-108zM931.999 410.998c0 24 -4.5 46.5 -13.5 67.5s-21.5 39.5 -37.5 55.5s-34.667 28.5 -56 37.5s-44 13.5 -68 13.5h-364
c-24 0 -46.667 -4.5 -68 -13.5s-39.833 -21.5 -55.5 -37.5s-28.167 -34.5 -37.5 -55.5s-14 -43.5 -14 -67.5v-130c0 -24 4.66699 -46.5 14 -67.5s21.833 -39.333 37.5 -55s34.167 -28.167 55.5 -37.5s44 -14 68 -14h364c24 0 46.667 4.66699 68 14s40 21.833 56 37.5
s28.5 34 37.5 55s13.5 43.5 13.5 67.5v130z" />
    <glyph glyph-name="Racute" unicode="&#x154;" horiz-adv-x="1146" 
d="M676 938l-202 -201l-76 76l202 200zM954 319c-12.667 -13.333 -27.333 -24.501 -44 -33.501s-34 -16.167 -52 -21.5l48.5 -65l51.5 -68.5l51 -68l47 -62.5h-138l-190 254h-527v-254h-109v693h702c46.667 0 88.667 -12 126 -36c31.333 -19.333 56.333 -45.166 75 -77.499
s28 -67.5 28 -105.5c0 -30.667 -6 -59.167 -18 -85.5s-29 -49.833 -51 -70.5v1zM201.001 363.999l596.001 0.00195312c15.333 0 30.166 2.83301 44.499 8.5s26.833 13.5 37.5 23.5s19.167 21.667 25.5 35s9.5 27.666 9.5 42.999s-3.33301 29.666 -10 42.999
s-15.5 25 -26.5 35s-23.667 17.833 -38 23.5s-29.5 8.5 -45.5 8.5h-593v-220z" />
    <glyph glyph-name="racute" unicode="&#x155;" horiz-adv-x="953" 
d="M99 0v409.001c0 38.667 7.33301 75.167 22 109.5s34.667 64.166 60 89.499s55 45.5 89 60.5s70.667 22.5 110 22.5h494v-108h-494c-24 0 -46.5 -4.5 -67.5 -13.5s-39.333 -21.5 -55 -37.5s-28.167 -34.5 -37.5 -55.5s-14 -43.5 -14 -67.5v-409h-107zM681 868.001
l-202 -201l-76 76l202 200z" />
    <glyph glyph-name="Rcommaaccent" unicode="&#x156;" horiz-adv-x="1124" 
d="M954 319c-12.667 -13.333 -27.333 -24.501 -44 -33.501s-34 -16.167 -52 -21.5l48.5 -65l51.5 -68.5l51 -68l47 -62.5h-138l-190 254h-527v-254h-109v693h702c46.667 0 88.667 -12 126 -36c31.333 -19.333 56.333 -45.166 75 -77.499s28 -67.5 28 -105.5
c0 -30.667 -6 -59.167 -18 -85.5s-29 -49.833 -51 -70.5v1zM201.001 363.999l596.001 0.00195312c15.333 0 30.166 2.83301 44.499 8.5s26.833 13.5 37.5 23.5s19.167 21.667 25.5 35s9.5 27.666 9.5 42.999s-3.33301 29.666 -10 42.999s-15.5 25 -26.5 35
s-23.667 17.833 -38 23.5s-29.5 8.5 -45.5 8.5h-593v-220z" />
    <glyph glyph-name="rcommaaccent" unicode="&#x157;" horiz-adv-x="890" 
d="M99 0v409.001c0 38.667 7.33301 75.167 22 109.5s34.667 64.166 60 89.499s55 45.5 89 60.5s70.667 22.5 110 22.5h494v-108h-494c-24 0 -46.5 -4.5 -67.5 -13.5s-39.333 -21.5 -55 -37.5s-28.167 -34.5 -37.5 -55.5s-14 -43.5 -14 -67.5v-409h-107zM48 -205.999l87 186
l69 -32l-87 -186z" />
    <glyph glyph-name="Rcaron" unicode="&#x158;" horiz-adv-x="1169" 
d="M814 966l33 -69l-317 -150l-317 150l33 69l284 -135zM954 319c-12.667 -13.333 -27.333 -24.501 -44 -33.501s-34 -16.167 -52 -21.5l48.5 -65l51.5 -68.5l51 -68l47 -62.5h-138l-190 254h-527v-254h-109v693h702c46.667 0 88.667 -12 126 -36
c31.333 -19.333 56.333 -45.166 75 -77.499s28 -67.5 28 -105.5c0 -30.667 -6 -59.167 -18 -85.5s-29 -49.833 -51 -70.5v1zM201.001 363.999l596.001 0.00195312c15.333 0 30.166 2.83301 44.499 8.5s26.833 13.5 37.5 23.5s19.167 21.667 25.5 35s9.5 27.666 9.5 42.999
s-3.33301 29.666 -10 42.999s-15.5 25 -26.5 35s-23.667 17.833 -38 23.5s-29.5 8.5 -45.5 8.5h-593v-220z" />
    <glyph glyph-name="rcaron" unicode="&#x159;" horiz-adv-x="953" 
d="M99 0v409.001c0 38.667 7.33301 75.167 22 109.5s34.667 64.166 60 89.499s55 45.5 89 60.5s70.667 22.5 110 22.5h494v-108h-494c-24 0 -46.5 -4.5 -67.5 -13.5s-39.333 -21.5 -55 -37.5s-28.167 -34.5 -37.5 -55.5s-14 -43.5 -14 -67.5v-409h-107zM811 966.001l33 -69
l-317 -150l-317 150l33 69l284 -135z" />
    <glyph glyph-name="Sacute" unicode="&#x15a;" horiz-adv-x="1094" 
d="M654 868l-202 -201l-76 76l202 200zM89 0v110.003h645c12.667 0 24.5 2.33301 35.5 7s20.5 11.167 28.5 19.5s14.333 18 19 29s7 22.833 7 35.5c0 25.333 -8.66699 46.833 -26 64.5s-38.666 26.5 -63.999 26.5h-480c-27.333 0 -53.166 5.16699 -77.499 15.5
s-45.666 24.666 -63.999 42.999s-32.833 39.666 -43.5 63.999s-16 50.5 -16 78.5s5.16699 54.167 15.5 78.5s24.666 45.666 42.999 63.999s39.666 32.833 63.999 43.5s50.5 16 78.5 16h644v-109h-644c-26 0 -47.167 -8.83301 -63.5 -26.5s-25.5 -38.834 -27.5 -63.501
c2 -26.667 11.5 -49 28.5 -67s37.833 -27 62.5 -27h480c27.333 0 53.166 -5.33301 77.499 -16s45.5 -25 63.5 -43s32.333 -39.167 43 -63.5s16 -50.166 16 -77.499c0 -28 -5.16699 -54.333 -15.5 -79s-24.5 -46 -42.5 -64s-39.167 -32.333 -63.5 -43s-50.5 -16 -78.5 -16
h-645z" />
    <glyph glyph-name="sacute" unicode="&#x15b;" horiz-adv-x="1018" 
d="M654 868l-202 -201l-76 76l202 200zM89 0v110.003h645c12.667 0 24.5 2.33301 35.5 7s20.5 11.167 28.5 19.5s14.333 18 19 29s7 22.833 7 35.5c0 25.333 -8.66699 46.833 -26 64.5s-38.666 26.5 -63.999 26.5h-480c-27.333 0 -53.166 5.16699 -77.499 15.5
s-45.666 24.666 -63.999 42.999s-32.833 39.666 -43.5 63.999s-16 50.5 -16 78.5s5.16699 54.167 15.5 78.5s24.666 45.666 42.999 63.999s39.666 32.833 63.999 43.5s50.5 16 78.5 16h644v-109h-644c-26 0 -47.167 -8.83301 -63.5 -26.5s-25.5 -38.834 -27.5 -63.501
c2 -26.667 11.5 -49 28.5 -67s37.833 -27 62.5 -27h480c27.333 0 53.166 -5.33301 77.499 -16s45.5 -25 63.5 -43s32.333 -39.167 43 -63.5s16 -50.166 16 -77.499c0 -28 -5.16699 -54.333 -15.5 -79s-24.5 -46 -42.5 -64s-39.167 -32.333 -63.5 -43s-50.5 -16 -78.5 -16
h-645z" />
    <glyph glyph-name="Scircumflex" unicode="&#x15c;" horiz-adv-x="1094" 
d="M509 882l-284 -135l-33 69l317 150l317 -150l-33 -69zM89 0v110.003h645c12.667 0 24.5 2.33301 35.5 7s20.5 11.167 28.5 19.5s14.333 18 19 29s7 22.833 7 35.5c0 25.333 -8.66699 46.833 -26 64.5s-38.666 26.5 -63.999 26.5h-480
c-27.333 0 -53.166 5.16699 -77.499 15.5s-45.666 24.666 -63.999 42.999s-32.833 39.666 -43.5 63.999s-16 50.5 -16 78.5s5.16699 54.167 15.5 78.5s24.666 45.666 42.999 63.999s39.666 32.833 63.999 43.5s50.5 16 78.5 16h644v-109h-644
c-26 0 -47.167 -8.83301 -63.5 -26.5s-25.5 -38.834 -27.5 -63.501c2 -26.667 11.5 -49 28.5 -67s37.833 -27 62.5 -27h480c27.333 0 53.166 -5.33301 77.499 -16s45.5 -25 63.5 -43s32.333 -39.167 43 -63.5s16 -50.166 16 -77.499c0 -28 -5.16699 -54.333 -15.5 -79
s-24.5 -46 -42.5 -64s-39.167 -32.333 -63.5 -43s-50.5 -16 -78.5 -16h-645z" />
    <glyph glyph-name="scircumflex" unicode="&#x15d;" horiz-adv-x="1074" 
d="M525 882l-284 -135l-33 69l317 150l317 -150l-33 -69zM89 0v110.003h645c12.667 0 24.5 2.33301 35.5 7s20.5 11.167 28.5 19.5s14.333 18 19 29s7 22.833 7 35.5c0 25.333 -8.66699 46.833 -26 64.5s-38.666 26.5 -63.999 26.5h-480
c-27.333 0 -53.166 5.16699 -77.499 15.5s-45.666 24.666 -63.999 42.999s-32.833 39.666 -43.5 63.999s-16 50.5 -16 78.5s5.16699 54.167 15.5 78.5s24.666 45.666 42.999 63.999s39.666 32.833 63.999 43.5s50.5 16 78.5 16h644v-109h-644
c-26 0 -47.167 -8.83301 -63.5 -26.5s-25.5 -38.834 -27.5 -63.501c2 -26.667 11.5 -49 28.5 -67s37.833 -27 62.5 -27h480c27.333 0 53.166 -5.33301 77.499 -16s45.5 -25 63.5 -43s32.333 -39.167 43 -63.5s16 -50.166 16 -77.499c0 -28 -5.16699 -54.333 -15.5 -79
s-24.5 -46 -42.5 -64s-39.167 -32.333 -63.5 -43s-50.5 -16 -78.5 -16h-645z" />
    <glyph glyph-name="Scedilla" unicode="&#x15e;" horiz-adv-x="1094" 
d="M323 -256v102.999h112c11.333 0 20.5 4.16699 27.5 12.5s10.5 17.833 10.5 28.5v115h103v-115c0 -18.667 -3.83301 -36.667 -11.5 -54s-18 -32.666 -31 -45.999s-28.167 -24 -45.5 -32s-36 -12 -56 -12h-109zM89 -0.000976562v110.003h645c12.667 0 24.5 2.33301 35.5 7
s20.5 11.167 28.5 19.5s14.333 18 19 29s7 22.833 7 35.5c0 25.333 -8.66699 46.833 -26 64.5s-38.666 26.5 -63.999 26.5h-480c-27.333 0 -53.166 5.16699 -77.499 15.5s-45.666 24.666 -63.999 42.999s-32.833 39.666 -43.5 63.999s-16 50.5 -16 78.5
s5.16699 54.167 15.5 78.5s24.666 45.666 42.999 63.999s39.666 32.833 63.999 43.5s50.5 16 78.5 16h644v-109h-644c-26 0 -47.167 -8.83301 -63.5 -26.5s-25.5 -38.834 -27.5 -63.501c2 -26.667 11.5 -49 28.5 -67s37.833 -27 62.5 -27h480
c27.333 0 53.166 -5.33301 77.499 -16s45.5 -25 63.5 -43s32.333 -39.167 43 -63.5s16 -50.166 16 -77.499c0 -28 -5.16699 -54.333 -15.5 -79s-24.5 -46 -42.5 -64s-39.167 -32.333 -63.5 -43s-50.5 -16 -78.5 -16h-645z" />
    <glyph glyph-name="Scedilla" unicode="&#xf6c1;" horiz-adv-x="1094" 
d="M323 -256v102.999h112c11.333 0 20.5 4.16699 27.5 12.5s10.5 17.833 10.5 28.5v115h103v-115c0 -18.667 -3.83301 -36.667 -11.5 -54s-18 -32.666 -31 -45.999s-28.167 -24 -45.5 -32s-36 -12 -56 -12h-109zM89 -0.000976562v110.003h645c12.667 0 24.5 2.33301 35.5 7
s20.5 11.167 28.5 19.5s14.333 18 19 29s7 22.833 7 35.5c0 25.333 -8.66699 46.833 -26 64.5s-38.666 26.5 -63.999 26.5h-480c-27.333 0 -53.166 5.16699 -77.499 15.5s-45.666 24.666 -63.999 42.999s-32.833 39.666 -43.5 63.999s-16 50.5 -16 78.5
s5.16699 54.167 15.5 78.5s24.666 45.666 42.999 63.999s39.666 32.833 63.999 43.5s50.5 16 78.5 16h644v-109h-644c-26 0 -47.167 -8.83301 -63.5 -26.5s-25.5 -38.834 -27.5 -63.501c2 -26.667 11.5 -49 28.5 -67s37.833 -27 62.5 -27h480
c27.333 0 53.166 -5.33301 77.499 -16s45.5 -25 63.5 -43s32.333 -39.167 43 -63.5s16 -50.166 16 -77.499c0 -28 -5.16699 -54.333 -15.5 -79s-24.5 -46 -42.5 -64s-39.167 -32.333 -63.5 -43s-50.5 -16 -78.5 -16h-645z" />
    <glyph glyph-name="scedilla" unicode="&#x15f;" horiz-adv-x="1094" 
d="M323 -258v102.999h112c11.333 0 20.5 4.16699 27.5 12.5s10.5 17.833 10.5 28.5v115h103v-115c0 -18.667 -3.83301 -36.667 -11.5 -54s-18 -32.666 -31 -45.999s-28.167 -24 -45.5 -32s-36 -12 -56 -12h-109z" />
    <glyph glyph-name="scedilla" unicode="&#xf6c2;" horiz-adv-x="1094" 
d="M323 -258v102.999h112c11.333 0 20.5 4.16699 27.5 12.5s10.5 17.833 10.5 28.5v115h103v-115c0 -18.667 -3.83301 -36.667 -11.5 -54s-18 -32.666 -31 -45.999s-28.167 -24 -45.5 -32s-36 -12 -56 -12h-109z" />
    <glyph glyph-name="Scaron" unicode="&#x160;" horiz-adv-x="1070" 
d="M789 966l33 -69l-317 -150l-317 150l33 69l284 -135zM89 0v110.003h645c12.667 0 24.5 2.33301 35.5 7s20.5 11.167 28.5 19.5s14.333 18 19 29s7 22.833 7 35.5c0 25.333 -8.66699 46.833 -26 64.5s-38.666 26.5 -63.999 26.5h-480
c-27.333 0 -53.166 5.16699 -77.499 15.5s-45.666 24.666 -63.999 42.999s-32.833 39.666 -43.5 63.999s-16 50.5 -16 78.5s5.16699 54.167 15.5 78.5s24.666 45.666 42.999 63.999s39.666 32.833 63.999 43.5s50.5 16 78.5 16h644v-109h-644
c-26 0 -47.167 -8.83301 -63.5 -26.5s-25.5 -38.834 -27.5 -63.501c2 -26.667 11.5 -49 28.5 -67s37.833 -27 62.5 -27h480c27.333 0 53.166 -5.33301 77.499 -16s45.5 -25 63.5 -43s32.333 -39.167 43 -63.5s16 -50.166 16 -77.499c0 -28 -5.16699 -54.333 -15.5 -79
s-24.5 -46 -42.5 -64s-39.167 -32.333 -63.5 -43s-50.5 -16 -78.5 -16h-645z" />
    <glyph glyph-name="scaron" unicode="&#x161;" horiz-adv-x="1070" 
d="M796 966l33 -69l-317 -150l-317 150l33 69l284 -135zM89 0v110.003h645c12.667 0 24.5 2.33301 35.5 7s20.5 11.167 28.5 19.5s14.333 18 19 29s7 22.833 7 35.5c0 25.333 -8.66699 46.833 -26 64.5s-38.666 26.5 -63.999 26.5h-480
c-27.333 0 -53.166 5.16699 -77.499 15.5s-45.666 24.666 -63.999 42.999s-32.833 39.666 -43.5 63.999s-16 50.5 -16 78.5s5.16699 54.167 15.5 78.5s24.666 45.666 42.999 63.999s39.666 32.833 63.999 43.5s50.5 16 78.5 16h644v-109h-644
c-26 0 -47.167 -8.83301 -63.5 -26.5s-25.5 -38.834 -27.5 -63.501c2 -26.667 11.5 -49 28.5 -67s37.833 -27 62.5 -27h480c27.333 0 53.166 -5.33301 77.499 -16s45.5 -25 63.5 -43s32.333 -39.167 43 -63.5s16 -50.166 16 -77.499c0 -28 -5.16699 -54.333 -15.5 -79
s-24.5 -46 -42.5 -64s-39.167 -32.333 -63.5 -43s-50.5 -16 -78.5 -16h-645z" />
    <glyph glyph-name="Tcaron" unicode="&#x164;" horiz-adv-x="1031" 
d="M947 584h-374v-584h-109v584h-374v109h857v-109zM799 965l33 -69l-317 -150l-317 150l33 69l284 -135z" />
    <glyph glyph-name="tcaron" unicode="&#x165;" horiz-adv-x="1290" 
d="M1043 477l61 223h85l-61 -223h-85zM820 477l-613 0.000976562v-195c0 -24 4.5 -46.667 13.5 -68s21.333 -39.833 37 -55.5s34 -28.167 55 -37.5s43.833 -14 68.5 -14h560v-107h-560c-38.667 0 -75 7.33301 -109 22s-64 35 -90 61
c-25.333 25.333 -45.333 55.166 -60 89.499s-22 70.833 -22 109.5v410h107v-107h613v-108z" />
    <glyph glyph-name="Umacron" unicode="&#x16a;" 
d="M296 824h463v-76h-463v76zM185 84c-26.667 26.667 -47.499 57.333 -62.499 92s-22.5 72 -22.5 112v405h110v-405c0 -24 4.66699 -46.833 14 -68.5s22 -40.667 38 -57s34.667 -29.166 56 -38.499s44.333 -14 69 -14h309c24 0 46.833 4.66699 68.5 14s40.667 22 57 38
s29.166 34.667 38.499 56s14 44 14 68v407h110v-405c0 -40 -7.5 -77.333 -22.5 -112s-35.833 -65.334 -62.5 -92.001c-26 -26 -56.333 -46.5 -91 -61.5s-72 -22.5 -112 -22.5h-308c-40 0 -77.333 7.5 -112 22.5s-65 35.5 -91 61.5z" />
    <glyph glyph-name="umacron" unicode="&#x16b;" horiz-adv-x="1036" 
d="M382 0c-38.667 0 -74.999 7.5 -108.999 22.5s-63.833 35.167 -89.5 60.5s-45.834 55.166 -60.501 89.499s-22 70.833 -22 109.5v410h107v-410c0 -23.333 4.5 -45.666 13.5 -66.999s21.333 -40 37 -56s34 -28.667 55 -38s43.167 -14 66.5 -14h439v585h107v-692h-544z
M302.001 814h463v-76h-463v76z" />
    <glyph glyph-name="Ubreve" unicode="&#x16c;" 
d="M399 858c0 -12.667 4.16895 -23.3379 12.502 -32.0049s18.833 -13 31.5 -13h156c12 0 22.5 4.33301 31.5 13s13.5 19.334 13.5 32.001v30h92v-30c0 -18.667 -3.5 -36.167 -10.5 -52.5s-16.833 -30.666 -29.5 -42.999s-27.334 -22.166 -44.001 -29.499
s-34.334 -11 -53.001 -11h-156c-36.667 0 -68.667 13 -96 39c-12.667 12.667 -22.5 27.334 -29.5 44.001s-10.5 34.334 -10.5 53.001v30h92v-30zM185.002 83.9961c-26.667 26.667 -47.499 57.333 -62.499 92s-22.5 72 -22.5 112v405h110v-405
c0 -24 4.66699 -46.833 14 -68.5s22 -40.667 38 -57s34.667 -29.166 56 -38.499s44.333 -14 69 -14h309c24 0 46.833 4.66699 68.5 14s40.667 22 57 38s29.166 34.667 38.499 56s14 44 14 68v407h110v-405c0 -40 -7.5 -77.333 -22.5 -112s-35.833 -65.334 -62.5 -92.001
c-26 -26 -56.333 -46.5 -91 -61.5s-72 -22.5 -112 -22.5h-308c-40 0 -77.333 7.5 -112 22.5s-65 35.5 -91 61.5z" />
    <glyph glyph-name="ubreve" unicode="&#x16d;" horiz-adv-x="1163" 
d="M382 0c-38.667 0 -74.999 7.5 -108.999 22.5s-63.833 35.167 -89.5 60.5s-45.834 55.166 -60.501 89.499s-22 70.833 -22 109.5v410h107v-410c0 -23.333 4.5 -45.666 13.5 -66.999s21.333 -40 37 -56s34 -28.667 55 -38s43.167 -14 66.5 -14h439v585h107v-692h-544z
M409.001 848c0 -12.667 4.16895 -23.3379 12.502 -32.0049s18.833 -13 31.5 -13h156c12 0 22.5 4.33301 31.5 13s13.5 19.334 13.5 32.001v30h92v-30c0 -18.667 -3.5 -36.167 -10.5 -52.5s-16.833 -30.666 -29.5 -42.999s-27.334 -22.166 -44.001 -29.499
s-34.334 -11 -53.001 -11h-156c-36.667 0 -68.667 13 -96 39c-12.667 12.667 -22.5 27.334 -29.5 44.001s-10.5 34.334 -10.5 53.001v30h92v-30z" />
    <glyph glyph-name="Uring" unicode="&#x16e;" horiz-adv-x="1190" 
d="M459 728c-37.333 0 -69.332 13.3311 -95.999 39.998c-12.667 12.667 -22.5 27.167 -29.5 43.5s-10.5 33.833 -10.5 52.5v13c0 18.667 3.5 36.334 10.5 53.001s16.667 31.167 29 43.5s26.833 22.166 43.5 29.499s34.334 11 53.001 11h137
c18.667 0 36.334 -3.66699 53.001 -11s31.167 -17.166 43.5 -29.499s22.166 -26.833 29.499 -43.5s11 -34.334 11 -53.001v-13c0 -18.667 -3.5 -36.167 -10.5 -52.5s-16.833 -30.666 -29.5 -42.999s-27.334 -22.166 -44.001 -29.499s-34.334 -11 -53.001 -11h-137z
M428.001 908.998c-8.66699 -8.66699 -13.001 -19.334 -13.001 -32.001v-13c0 -12.667 4.16699 -23.167 12.5 -31.5s18.833 -12.5 31.5 -12.5h137c12.667 0 23.5 4.16699 32.5 12.5s13.5 18.833 13.5 31.5v13c0 12.667 -4.5 23.334 -13.5 32.001s-19.833 13 -32.5 13h-137
c-6.66699 0 -12.667 -1.33301 -18 -4s-9.66602 -5.66699 -12.999 -9zM185 83.998c-26.667 26.667 -47.499 57.333 -62.499 92s-22.5 72 -22.5 112v405h110v-405c0 -24 4.66699 -46.833 14 -68.5s22 -40.667 38 -57s34.667 -29.166 56 -38.499s44.333 -14 69 -14h309
c24 0 46.833 4.66699 68.5 14s40.667 22 57 38s29.166 34.667 38.499 56s14 44 14 68v407h110v-405c0 -40 -7.5 -77.333 -22.5 -112s-35.833 -65.334 -62.5 -92.001c-26 -26 -56.333 -46.5 -91 -61.5s-72 -22.5 -112 -22.5h-308c-40 0 -77.333 7.5 -112 22.5
s-65 35.5 -91 61.5z" />
    <glyph glyph-name="uring" unicode="&#x16f;" horiz-adv-x="1163" 
d="M382 0c-38.667 0 -74.999 7.5 -108.999 22.5s-63.833 35.167 -89.5 60.5s-45.834 55.166 -60.501 89.499s-22 70.833 -22 109.5v410h107v-410c0 -23.333 4.5 -45.666 13.5 -66.999s21.333 -40 37 -56s34 -28.667 55 -38s43.167 -14 66.5 -14h439v585h107v-692h-544z
M465.001 731c-37.333 0 -69.332 13.3311 -95.999 39.998c-12.667 12.667 -22.5 27.167 -29.5 43.5s-10.5 33.833 -10.5 52.5v13c0 18.667 3.5 36.334 10.5 53.001s16.667 31.167 29 43.5s26.833 22.166 43.5 29.499s34.334 11 53.001 11h137
c18.667 0 36.334 -3.66699 53.001 -11s31.167 -17.166 43.5 -29.499s22.166 -26.833 29.499 -43.5s11 -34.334 11 -53.001v-13c0 -18.667 -3.5 -36.167 -10.5 -52.5s-16.833 -30.666 -29.5 -42.999s-27.334 -22.166 -44.001 -29.499s-34.334 -11 -53.001 -11h-137z
M434.002 911.998c-8.66699 -8.66699 -13.001 -19.334 -13.001 -32.001v-13c0 -12.667 4.16699 -23.167 12.5 -31.5s18.833 -12.5 31.5 -12.5h137c12.667 0 23.5 4.16699 32.5 12.5s13.5 18.833 13.5 31.5v13c0 12.667 -4.5 23.334 -13.5 32.001s-19.833 13 -32.5 13h-137
c-6.66699 0 -12.667 -1.33301 -18 -4s-9.66602 -5.66699 -12.999 -9z" />
    <glyph glyph-name="Uhungarumlaut" unicode="&#x170;" horiz-adv-x="1190" 
d="M550 906l-190 -189l-54 54l190 189zM770 906l-190 -189l-54 54l190 189zM185 84c-26.667 26.667 -47.499 57.333 -62.499 92s-22.5 72 -22.5 112v405h110v-405c0 -24 4.66699 -46.833 14 -68.5s22 -40.667 38 -57s34.667 -29.166 56 -38.499s44.333 -14 69 -14h309
c24 0 46.833 4.66699 68.5 14s40.667 22 57 38s29.166 34.667 38.499 56s14 44 14 68v407h110v-405c0 -40 -7.5 -77.333 -22.5 -112s-35.833 -65.334 -62.5 -92.001c-26 -26 -56.333 -46.5 -91 -61.5s-72 -22.5 -112 -22.5h-308c-40 0 -77.333 7.5 -112 22.5
s-65 35.5 -91 61.5z" />
    <glyph glyph-name="uhungarumlaut" unicode="&#x171;" horiz-adv-x="1107" 
d="M382 0c-38.667 0 -74.999 7.5 -108.999 22.5s-63.833 35.167 -89.5 60.5s-45.834 55.166 -60.501 89.499s-22 70.833 -22 109.5v410h107v-410c0 -23.333 4.5 -45.666 13.5 -66.999s21.333 -40 37 -56s34 -28.667 55 -38s43.167 -14 66.5 -14h439v585h107v-692h-544z
M579.001 887l-190 -189l-54 54l190 189zM799.001 887l-190 -189l-54 54l190 189z" />
    <glyph glyph-name="Uogonek" unicode="&#x172;" horiz-adv-x="1058" 
d="M503 -234c-14 0 -27.668 2.49805 -41.001 7.49805s-25.333 11.833 -36 20.5s-19.167 19.167 -25.5 31.5s-9.5 25.833 -9.5 40.5v2c0 22.667 5.33301 43.834 16 63.501s24.667 36.167 42 49.5l22 20h110l-83 -79c-7.33301 -7.33301 -14.166 -15.166 -20.499 -23.499
s-9.5 -16.833 -9.5 -25.5c0 -4 1 -8 3 -12c4 -7.33301 8.66699 -11.833 14 -13.5s12.333 -3.16699 21 -4.5h192v-77h-195zM184.999 83.998c-26.667 26.667 -47.499 57.333 -62.499 92s-22.5 72 -22.5 112v405h110v-405c0 -24 4.66699 -46.833 14 -68.5s22 -40.667 38 -57
s34.667 -29.166 56 -38.499s44.333 -14 69 -14h309c24 0 46.833 4.66699 68.5 14s40.667 22 57 38s29.166 34.667 38.499 56s14 44 14 68v407h110v-405c0 -40 -7.5 -77.333 -22.5 -112s-35.833 -65.334 -62.5 -92.001c-26 -26 -56.333 -46.5 -91 -61.5s-72 -22.5 -112 -22.5
h-308c-40 0 -77.333 7.5 -112 22.5s-65 35.5 -91 61.5z" />
    <glyph glyph-name="uogonek" unicode="&#x173;" horiz-adv-x="1163" 
d="M382 0c-38.667 0 -74.999 7.5 -108.999 22.5s-63.833 35.167 -89.5 60.5s-45.834 55.166 -60.501 89.499s-22 70.833 -22 109.5v410h107v-410c0 -23.333 4.5 -45.666 13.5 -66.999s21.333 -40 37 -56s34 -28.667 55 -38s43.167 -14 66.5 -14h439v585h107v-692h-544z
M539.001 -219c-14 0 -27.668 2.49805 -41.001 7.49805s-25.333 11.833 -36 20.5s-19.167 19.167 -25.5 31.5s-9.5 25.833 -9.5 40.5v2c0 22.667 5.33301 43.834 16 63.501s24.667 36.167 42 49.5l22 20h110l-83 -79c-7.33301 -7.33301 -14.166 -15.166 -20.499 -23.499
s-9.5 -16.833 -9.5 -25.5c0 -4 1 -8 3 -12c4 -7.33301 8.66699 -11.833 14 -13.5s12.333 -3.16699 21 -4.5h192v-77h-195z" />
    <glyph glyph-name="Ydieresis" unicode="&#x178;" horiz-adv-x="1086" 
d="M340 552v121h116v-121h-116zM608 552v121h117v-121h-117zM460 0l0.000976562 207.999h-82c-40 0 -77.333 7.5 -112 22.5s-65 35.5 -91 61.5c-26.667 26.667 -47.5 57.334 -62.5 92.001s-22.5 72 -22.5 112v197h110v-197c0 -24 4.66699 -46.833 14 -68.5
s22 -40.667 38 -57s34.667 -29.166 56 -38.499s44.333 -14 69 -14h269c24 0 46.833 4.66699 68.5 14s40.667 22 57 38s29.166 34.667 38.499 56s14 44 14 68v199h110v-197c0 -40 -7.5 -77.333 -22.5 -112s-35.833 -65.334 -62.5 -92.001c-26 -26 -56.333 -46.5 -91 -61.5
s-72 -22.5 -112 -22.5h-76v-208h-110z" />
    <glyph glyph-name="Zacute" unicode="&#x179;" horiz-adv-x="1090" 
d="M712 868l-202 -201l-76 76l202 200zM221 0c-23.333 0 -43.832 4.66504 -61.499 13.998s-32.334 21.333 -44.001 36s-20.5 31.167 -26.5 49.5s-9 36.5 -9 54.5c0 25.333 4.66699 46.333 14 63s19.666 30 30.999 40c12.667 12 27.667 21 45 27l158 54.5l165 58l165.5 58
l158.5 54.5c2 2 4.66699 3.33301 8 4l-1 -1c4.66699 2 10.334 5.33301 17.001 10s10 12.334 10 23.001c0 2 -0.333008 5 -1 9s-2 8.33301 -4 13s-5.16699 8.66699 -9.5 12s-10.5 5 -18.5 5h-732v109h738c30.667 0 55 -7 73 -21s31.667 -29.833 41 -47.5
s15.333 -34.334 18 -50.001s4 -25.5 4 -29.5c0 -24.667 -3.83301 -45.167 -11.5 -61.5s-16.167 -29.166 -25.5 -38.499c-10.667 -12 -22.667 -21 -36 -27l-339.5 -118.5l-339.5 -118.5l1 1c-8 -4 -13.5 -8.83301 -16.5 -14.5s-4.5 -11.5 -4.5 -17.5
c0 -9.33301 3.16699 -18.166 9.5 -26.499s14.833 -12.833 25.5 -13.5h731v-110h-733z" />
    <glyph glyph-name="zacute" unicode="&#x17a;" horiz-adv-x="1090" 
d="M100 0v100l716 485h-714v108h931v-95l-726 -491h713v-107h-920zM703 866l-202 -201l-76 76l202 200z" />
    <glyph glyph-name="Zdotaccent" unicode="&#x17b;" horiz-adv-x="1090" 
d="M457 878h132v-109h-132v109zM221 0c-23.333 0 -43.832 4.66504 -61.499 13.998s-32.334 21.333 -44.001 36s-20.5 31.167 -26.5 49.5s-9 36.5 -9 54.5c0 25.333 4.66699 46.333 14 63s19.666 30 30.999 40c12.667 12 27.667 21 45 27l158 54.5l165 58l165.5 58
l158.5 54.5c2 2 4.66699 3.33301 8 4l-1 -1c4.66699 2 10.334 5.33301 17.001 10s10 12.334 10 23.001c0 2 -0.333008 5 -1 9s-2 8.33301 -4 13s-5.16699 8.66699 -9.5 12s-10.5 5 -18.5 5h-732v109h738c30.667 0 55 -7 73 -21s31.667 -29.833 41 -47.5
s15.333 -34.334 18 -50.001s4 -25.5 4 -29.5c0 -24.667 -3.83301 -45.167 -11.5 -61.5s-16.167 -29.166 -25.5 -38.499c-10.667 -12 -22.667 -21 -36 -27l-339.5 -118.5l-339.5 -118.5l1 1c-8 -4 -13.5 -8.83301 -16.5 -14.5s-4.5 -11.5 -4.5 -17.5
c0 -9.33301 3.16699 -18.166 9.5 -26.499s14.833 -12.833 25.5 -13.5h731v-110h-733z" />
    <glyph glyph-name="zdotaccent" unicode="&#x17c;" horiz-adv-x="1090" 
d="M484 900h132v-109h-132v109zM100 0v100l716 485h-714v108h931v-95l-726 -491h713v-107h-920z" />
    <glyph glyph-name="Zcaron" unicode="&#x17d;" horiz-adv-x="1090" 
d="M806 966l33 -69l-317 -150l-317 150l33 69l284 -135zM221 0c-23.333 0 -43.832 4.66504 -61.499 13.998s-32.334 21.333 -44.001 36s-20.5 31.167 -26.5 49.5s-9 36.5 -9 54.5c0 25.333 4.66699 46.333 14 63s19.666 30 30.999 40c12.667 12 27.667 21 45 27l158 54.5
l165 58l165.5 58l158.5 54.5c2 2 4.66699 3.33301 8 4l-1 -1c4.66699 2 10.334 5.33301 17.001 10s10 12.334 10 23.001c0 2 -0.333008 5 -1 9s-2 8.33301 -4 13s-5.16699 8.66699 -9.5 12s-10.5 5 -18.5 5h-732v109h738c30.667 0 55 -7 73 -21s31.667 -29.833 41 -47.5
s15.333 -34.334 18 -50.001s4 -25.5 4 -29.5c0 -24.667 -3.83301 -45.167 -11.5 -61.5s-16.167 -29.166 -25.5 -38.499c-10.667 -12 -22.667 -21 -36 -27l-339.5 -118.5l-339.5 -118.5l1 1c-8 -4 -13.5 -8.83301 -16.5 -14.5s-4.5 -11.5 -4.5 -17.5
c0 -9.33301 3.16699 -18.166 9.5 -26.499s14.833 -12.833 25.5 -13.5h731v-110h-733z" />
    <glyph glyph-name="zcaron" unicode="&#x17e;" horiz-adv-x="1090" 
d="M100 0v100l716 485h-714v108h931v-95l-726 -491h713v-107h-920zM846 966l33 -69l-317 -150l-317 150l33 69l284 -135z" />
    <glyph glyph-name="Scommaaccent" unicode="&#x218;" horiz-adv-x="1072" 
d="M89 0v110.003h645c12.667 0 24.5 2.33301 35.5 7s20.5 11.167 28.5 19.5s14.333 18 19 29s7 22.833 7 35.5c0 25.333 -8.66699 46.833 -26 64.5s-38.666 26.5 -63.999 26.5h-480c-27.333 0 -53.166 5.16699 -77.499 15.5s-45.666 24.666 -63.999 42.999
s-32.833 39.666 -43.5 63.999s-16 50.5 -16 78.5s5.16699 54.167 15.5 78.5s24.666 45.666 42.999 63.999s39.666 32.833 63.999 43.5s50.5 16 78.5 16h644v-109h-644c-26 0 -47.167 -8.83301 -63.5 -26.5s-25.5 -38.834 -27.5 -63.501c2 -26.667 11.5 -49 28.5 -67
s37.833 -27 62.5 -27h480c27.333 0 53.166 -5.33301 77.499 -16s45.5 -25 63.5 -43s32.333 -39.167 43 -63.5s16 -50.166 16 -77.499c0 -28 -5.16699 -54.333 -15.5 -79s-24.5 -46 -42.5 -64s-39.167 -32.333 -63.5 -43s-50.5 -16 -78.5 -16h-645zM421 -222.997l87 186
l69 -32l-87 -186z" />
    <glyph glyph-name="scommaaccent" unicode="&#x219;" horiz-adv-x="1075" 
d="M89 0v110.003h645c12.667 0 24.5 2.33301 35.5 7s20.5 11.167 28.5 19.5s14.333 18 19 29s7 22.833 7 35.5c0 25.333 -8.66699 46.833 -26 64.5s-38.666 26.5 -63.999 26.5h-480c-27.333 0 -53.166 5.16699 -77.499 15.5s-45.666 24.666 -63.999 42.999
s-32.833 39.666 -43.5 63.999s-16 50.5 -16 78.5s5.16699 54.167 15.5 78.5s24.666 45.666 42.999 63.999s39.666 32.833 63.999 43.5s50.5 16 78.5 16h644v-109h-644c-26 0 -47.167 -8.83301 -63.5 -26.5s-25.5 -38.834 -27.5 -63.501c2 -26.667 11.5 -49 28.5 -67
s37.833 -27 62.5 -27h480c27.333 0 53.166 -5.33301 77.499 -16s45.5 -25 63.5 -43s32.333 -39.167 43 -63.5s16 -50.166 16 -77.499c0 -28 -5.16699 -54.333 -15.5 -79s-24.5 -46 -42.5 -64s-39.167 -32.333 -63.5 -43s-50.5 -16 -78.5 -16h-645zM415 -222.997l87 186
l69 -32l-87 -186z" />
    <glyph glyph-name="Tcommaaccent" unicode="&#x21a;" horiz-adv-x="1043" 
d="M947 584h-374v-584h-109v584h-374v109h857v-109zM441 -197l87 186l69 -32l-87 -186z" />
    <glyph glyph-name="tcommaaccent" unicode="&#x21b;" horiz-adv-x="1043" 
d="M1094 477l-613 0.000976562v-195c0 -24 4.5 -46.667 13.5 -68s21.333 -39.833 37 -55.5s34 -28.167 55 -37.5s43.833 -14 68.5 -14h560v-107h-560c-38.667 0 -75 7.33301 -109 22s-64 35 -90 61c-25.333 25.333 -45.333 55.166 -60 89.499s-22 70.833 -22 109.5v410h107
v-107h613v-108zM459 -216.999l87 186l69 -32l-87 -186z" />
    <glyph glyph-name="circumflex" unicode="&#x2c6;" horiz-adv-x="784" 
d="M404 880l-284 -135l-33 69l317 150l317 -150l-33 -69z" />
    <glyph glyph-name="caron" unicode="&#x2c7;" horiz-adv-x="784" 
d="M688 964l33 -69l-317 -150l-317 150l33 69l284 -135z" />
    <glyph glyph-name="breve" unicode="&#x2d8;" horiz-adv-x="686" 
d="M246 848c0 -12.667 4.16895 -23.3379 12.502 -32.0049s18.833 -13 31.5 -13h156c12 0 22.5 4.33301 31.5 13s13.5 19.334 13.5 32.001v30h92v-30c0 -18.667 -3.5 -36.167 -10.5 -52.5s-16.833 -30.666 -29.5 -42.999s-27.334 -22.166 -44.001 -29.499
s-34.334 -11 -53.001 -11h-156c-36.667 0 -68.667 13 -96 39c-12.667 12.667 -22.5 27.334 -29.5 44.001s-10.5 34.334 -10.5 53.001v30h92v-30z" />
    <glyph glyph-name="dotaccent" unicode="&#x2d9;" horiz-adv-x="332" 
d="M100 902h132v-109h-132v109z" />
    <glyph glyph-name="ring" unicode="&#x2da;" horiz-adv-x="545" 
d="M229 716c-37.333 0 -69.332 13.3311 -95.999 39.998c-12.667 12.667 -22.5 27.167 -29.5 43.5s-10.5 33.833 -10.5 52.5v13c0 18.667 3.5 36.334 10.5 53.001s16.667 31.167 29 43.5s26.833 22.166 43.5 29.499s34.334 11 53.001 11h137
c18.667 0 36.334 -3.66699 53.001 -11s31.167 -17.166 43.5 -29.499s22.166 -26.833 29.499 -43.5s11 -34.334 11 -53.001v-13c0 -18.667 -3.5 -36.167 -10.5 -52.5s-16.833 -30.666 -29.5 -42.999s-27.334 -22.166 -44.001 -29.499s-34.334 -11 -53.001 -11h-137z
M198.001 896.998c-8.66699 -8.66699 -13.001 -19.334 -13.001 -32.001v-13c0 -12.667 4.16699 -23.167 12.5 -31.5s18.833 -12.5 31.5 -12.5h137c12.667 0 23.5 4.16699 32.5 12.5s13.5 18.833 13.5 31.5v13c0 12.667 -4.5 23.334 -13.5 32.001s-19.833 13 -32.5 13h-137
c-6.66699 0 -12.667 -1.33301 -18 -4s-9.66602 -5.66699 -12.999 -9z" />
    <glyph glyph-name="ogonek" unicode="&#x2db;" horiz-adv-x="477" 
d="M212 -200c-14 0 -27.668 2.49805 -41.001 7.49805s-25.333 11.833 -36 20.5s-19.167 19.167 -25.5 31.5s-9.5 25.833 -9.5 40.5v2c0 22.667 5.33301 43.834 16 63.501s24.667 36.167 42 49.5l22 20h110l-83 -79c-7.33301 -7.33301 -14.166 -15.166 -20.499 -23.499
s-9.5 -16.833 -9.5 -25.5c0 -4 1 -8 3 -12c4 -7.33301 8.66699 -11.833 14 -13.5s12.333 -3.16699 21 -4.5h192v-77h-195z" />
    <glyph glyph-name="tilde" unicode="&#x2dc;" horiz-adv-x="663" 
d="M534 693c-14 0 -28.3311 1.83398 -42.998 5.50098s-29.334 9.5 -44.001 17.5h1l-98 50l-98 49c-6.66699 3.33301 -12.5 5.66602 -17.5 6.99902s-9.5 2 -13.5 2c-1.33301 0 -2.66602 -0.666992 -3.99902 -2s-2 -6 -2 -14v-101h-101v102c0 19.333 2.5 36.333 7.5 51
s12.167 27 21.5 37c20 18.667 44.667 28 74 28c28 0 56.333 -7.66699 85 -23l98 -49l98 -50c13.333 -6.66699 23.666 -10 30.999 -10c1.33301 0 2.66602 1 3.99902 3s2 6.66699 2 14v101h102v-102c0 -37.333 -10.333 -66.333 -31 -87h1c-18.667 -19.333 -43 -29 -73 -29z
" />
    <glyph glyph-name="hungarumlaut" unicode="&#x2dd;" horiz-adv-x="772" 
d="M451 904l-190 -189l-54 54l190 189zM671 904l-190 -189l-54 54l190 189z" />
    <glyph glyph-name="afii10023" unicode="&#x401;" horiz-adv-x="1062" 
d="M413 725v121h116v-121h-116zM681 725v121h117v-121h-117z" />
    <glyph glyph-name="afii10054" unicode="&#x405;" horiz-adv-x="1018" 
d="M89 0v110.003h645c12.667 0 24.5 2.33301 35.5 7s20.5 11.167 28.5 19.5s14.333 18 19 29s7 22.833 7 35.5c0 25.333 -8.66699 46.833 -26 64.5s-38.666 26.5 -63.999 26.5h-480c-27.333 0 -53.166 5.16699 -77.499 15.5s-45.666 24.666 -63.999 42.999
s-32.833 39.666 -43.5 63.999s-16 50.5 -16 78.5s5.16699 54.167 15.5 78.5s24.666 45.666 42.999 63.999s39.666 32.833 63.999 43.5s50.5 16 78.5 16h644v-109h-644c-26 0 -47.167 -8.83301 -63.5 -26.5s-25.5 -38.834 -27.5 -63.501c2 -26.667 11.5 -49 28.5 -67
s37.833 -27 62.5 -27h480c27.333 0 53.166 -5.33301 77.499 -16s45.5 -25 63.5 -43s32.333 -39.167 43 -63.5s16 -50.166 16 -77.499c0 -28 -5.16699 -54.333 -15.5 -79s-24.5 -46 -42.5 -64s-39.167 -32.333 -63.5 -43s-50.5 -16 -78.5 -16h-645z" />
    <glyph glyph-name="afii10056" unicode="&#x407;" horiz-adv-x="833" 
 />
    <glyph glyph-name="afii10061" unicode="&#x40c;" horiz-adv-x="1040" 
d="M648 860l-202 -201l-76 76l202 200z" />
    <glyph glyph-name="afii10017" unicode="&#x410;" horiz-adv-x="1071" 
d="M910 609c26 -26.667 46.666 -57.333 61.999 -92s23 -71.667 23 -111v-406h-110v301h-676v-301h-109v406c0 40 7.66699 77.333 23 112s36 65 62 91s56.333 46.5 91 61.5s71.667 22.5 111 22.5h320c39.333 0 76.333 -7.5 111 -22.5s65.334 -35.5 92.001 -61.5z
M384.999 584.001c-23.333 0 -45.498 -4.66699 -66.498 -14s-39.5 -21.833 -55.5 -37.5s-28.833 -34 -38.5 -55s-14.834 -43.167 -15.501 -66.5h676c-0.666992 23.333 -5.83398 45.5 -15.501 66.5s-22.5 39.333 -38.5 55s-34.667 28.167 -56 37.5s-44 14 -68 14h-322z" />
    <glyph glyph-name="afii10019" unicode="&#x412;" horiz-adv-x="1062" 
d="M927 357c21.333 -19.333 38 -41.834 50 -67.501s18 -53.167 18 -82.5c0 -28.667 -5.83301 -55.667 -17.5 -81s-27.5 -47.333 -47.5 -66s-43.167 -33.334 -69.5 -44.001s-53.833 -16 -82.5 -16h-680v693h677c20.667 0 41.167 -2.5 61.5 -7.5s39.333 -12.333 57 -22
s33.667 -21.667 48 -36s25.833 -30.833 34.5 -49.5c12.667 -25.333 19 -51.666 19 -78.999c0 -26.667 -5.83301 -52.667 -17.5 -78s-28.5 -46.666 -50.5 -63.999zM207 413.999l571.998 0.00390625c12.667 0 25.334 2 38.001 6s24.167 9.66699 34.5 17
s18.666 16.166 24.999 26.499s9.5 22.166 9.5 35.499s-3.33301 25.166 -10 35.499s-15.167 19.166 -25.5 26.499s-22.166 13 -35.499 17s-26.666 6 -39.999 6h-568v-170zM877.998 170.003c5.33301 10.667 8 22.667 8 36c0 12.667 -2.83301 25 -8.5 37s-13.5 22.5 -23.5 31.5
s-21.333 16.167 -34 21.5s-26 8 -40 8h-573v-194h573c20.667 0 40.167 5.5 58.5 16.5s31.5 25.5 39.5 43.5z" />
    <glyph glyph-name="afii10020" unicode="&#x413;" horiz-adv-x="859" 
d="M100 0l0.000976562 408.998c0 38.667 7.5 75.334 22.5 110.001s35.333 64.834 61 90.501s55.667 46 90 61s71.166 22.5 110.499 22.5h514v-76h-514c-28.667 0 -55.5 -5.5 -80.5 -16.5s-47 -26 -66 -45s-34 -41 -45 -66s-16.5 -51.833 -16.5 -80.5v-409h-76z" />
    <glyph glyph-name="afii10022" unicode="&#x415;" horiz-adv-x="1062" 
d="M263 532c-16 -16.667 -28.667 -35.667 -38 -57s-14 -44.333 -14 -69v-5h750v-110h-750v-5c0 -24 4.66699 -46.667 14 -68s22.166 -40 38.499 -56s35.333 -28.667 57 -38s44.5 -14 68.5 -14h572v-110h-572c-40 0 -77.5 7.66699 -112.5 23s-65.5 36 -91.5 62
s-46.5 56.5 -61.5 91.5s-22.5 72.167 -22.5 111.5v118c0 40 7.66699 77.333 23 112s36 65 62 91s56.5 46.5 91.5 61.5s72.167 22.5 111.5 22.5h572v-109h-572c-25.333 0 -48.666 -4.66699 -69.999 -14s-40 -22 -56 -38z" />
    <glyph glyph-name="afii10025" unicode="&#x417;" horiz-adv-x="1142" 
d="M1039 346c14.667 -9.33301 23.8301 -20.001 27.4971 -32.001s5.5 -25 5.5 -39v-148c-1.33301 -12.667 -4.66602 -25.5 -9.99902 -38.5s-13.666 -26.167 -24.999 -39.5c-16.667 -18 -35.5 -30.667 -56.5 -38s-45.167 -11 -72.5 -11h-641c-6.66699 0 -14.667 0.5 -24 1.5
s-19 2.66699 -29 5s-20 5.33301 -30 9s-19 8.5 -27 14.5c-38 28 -57 68 -57 120v38h76v-38c0.666992 -14 2.33398 -25.167 5.00098 -33.5s8.66699 -16.166 18 -23.499c8 -6.66699 17 -11 27 -13s19.667 -3.33301 29 -4h653c13.333 0 24.5 1 33.5 3s16.5 4.66699 22.5 8
c8 4.66699 15.333 10.334 22 17.001s10 15.667 10 27v143c0 13.333 -5 22.333 -15 27s-20.333 7 -31 7h-715v77h716c8.66699 0 18.334 2.83301 29.001 8.5s16 14.167 16 25.5v140c-4 18 -14 32.167 -30 42.5s-33 15.5 -51 15.5h-659c-8.66699 0 -18.167 -1.33301 -28.5 -4
s-19.166 -6.66699 -26.499 -12c-10 -7.33301 -16.667 -15.833 -20 -25.5s-5 -20.5 -5 -32.5v-38h-76v42c0 23.333 4.5 45 13.5 65s22.167 36.667 39.5 50c15.333 11.333 33.333 19.333 54 24s40.667 7 60 7h642c20.667 -0.666992 40.5 -4.33398 59.5 -11.001
s35.833 -15.667 50.5 -27s26.667 -24.5 36 -39.5s15 -31.167 17 -48.5v-157c-0.666992 -9.33301 -1.83398 -16.833 -3.50098 -22.5s-3.83398 -10.667 -6.50098 -15s-6 -8.5 -10 -12.5s-8.33301 -8.66699 -13 -14z" />
    <glyph glyph-name="afii10026" unicode="&#x418;" horiz-adv-x="1110" 
d="M299 6c-18 -8.66699 -37.334 -12.998 -58.001 -12.998c-17.333 0 -33.833 3 -49.5 9s-30 14.5 -43 25.5s-23.833 24.167 -32.5 39.5s-14 32.333 -16 51v577h77v-570c1.33301 -17.333 8.33301 -30.833 21 -40.5s26.667 -14.5 42 -14.5c8.66699 0 17.167 1.66699 25.5 5
s15.5 8.66602 21.5 15.999l477 562c13.333 17.333 29.166 29.833 47.499 37.5s37.166 11.5 56.499 11.5c16.667 0 33.167 -2.66699 49.5 -8s31 -13.333 44 -24s23.833 -23.5 32.5 -38.5s13.667 -31.833 15 -50.5l1 -3v-578h-76v571
c-0.666992 17.333 -7.66699 30.666 -21 39.999s-27.666 14 -42.999 14c-9.33301 0 -18 -1.5 -26 -4.5s-15 -8.16699 -21 -15.5l-477 -562c-9.33301 -11.333 -17.166 -19.333 -23.499 -24s-14.166 -9 -23.499 -13z" />
    <glyph glyph-name="afii10027" unicode="&#x419;" horiz-adv-x="1110" 
d="M299 6c-18 -8.66699 -37.334 -12.998 -58.001 -12.998c-17.333 0 -33.833 3 -49.5 9s-30 14.5 -43 25.5s-23.833 24.167 -32.5 39.5s-14 32.333 -16 51v577h77v-570c1.33301 -17.333 8.33301 -30.833 21 -40.5s26.667 -14.5 42 -14.5c8.66699 0 17.167 1.66699 25.5 5
s15.5 8.66602 21.5 15.999l477 562c13.333 17.333 29.166 29.833 47.499 37.5s37.166 11.5 56.499 11.5c16.667 0 33.167 -2.66699 49.5 -8s31 -13.333 44 -24s23.833 -23.5 32.5 -38.5s13.667 -31.833 15 -50.5l1 -3v-578h-76v571
c-0.666992 17.333 -7.66699 30.666 -21 39.999s-27.666 14 -42.999 14c-9.33301 0 -18 -1.5 -26 -4.5s-15 -8.16699 -21 -15.5l-477 -562c-9.33301 -11.333 -17.166 -19.333 -23.499 -24s-14.166 -9 -23.499 -13zM377.999 849.002
c0 -12.667 4.16895 -23.3379 12.502 -32.0049s18.833 -13 31.5 -13h156c12 0 22.5 4.33301 31.5 13s13.5 19.334 13.5 32.001v30h92v-30c0 -18.667 -3.5 -36.167 -10.5 -52.5s-16.833 -30.666 -29.5 -42.999s-27.334 -22.166 -44.001 -29.499s-34.334 -11 -53.001 -11h-156
c-36.667 0 -68.667 13 -96 39c-12.667 12.667 -22.5 27.334 -29.5 44.001s-10.5 34.334 -10.5 53.001v30h92v-30z" />
    <glyph glyph-name="afii10028" unicode="&#x41a;" horiz-adv-x="1078" 
d="M961 586c0 -48 -10.999 -92.335 -32.999 -133.002s-51 -74 -87 -100c36 -26.667 65 -60.5 87 -101.5s33 -85.167 33 -132.5v-119h-110v119c0 24.667 -4.83301 47.834 -14.5 69.501s-22.5 40.5 -38.5 56.5s-34.833 28.667 -56.5 38s-44.834 14 -69.501 14h-462v-297h-110
v701h110v-293h462c24.667 0 47.834 4.66699 69.501 14s40.667 22 57 38s29.166 34.833 38.499 56.5s14 44.834 14 69.501v115h110v-115v0z" />
    <glyph glyph-name="afii10030" unicode="&#x41c;" horiz-adv-x="1122" 
d="M580 -2h-28l-255 586c-7.33301 11.333 -15.5 19.5 -24.5 24.5s-20.5 7.5 -34.5 7.5c-14.667 -0.666992 -28.5 -5.83398 -41.5 -15.501s-19.833 -22.167 -20.5 -37.5v-563h-76v567c0 2.66699 0.333008 5.33398 1 8.00098s1.16699 5.33398 1.5 8.00098
s1.16602 5.66699 2.49902 9c8.66699 27.333 24 50.333 46 69s48.333 29 79 31h24c13.333 0 26.166 -2.66699 38.499 -8s23.833 -12.166 34.5 -20.499s19.834 -17.833 27.501 -28.5s13.5 -21.334 17.5 -32.001l206 -475l207 475c8.66699 23.333 23.334 43.833 44.001 61.5
s44.667 26.834 72 27.501h25c16.667 0 32.667 -3.66699 48 -11s29.166 -17 41.499 -29s22.166 -25.333 29.499 -40s11.333 -29.667 12 -45v-567h-76v563c-4 15.333 -10.167 27.666 -18.5 36.999s-21.166 15.333 -38.499 18l-8 1c-8 0 -15.5 -1.5 -22.5 -4.5
s-13 -6.83301 -18 -11.5s-9.16699 -9.33398 -12.5 -14.001s-5.66602 -9 -6.99902 -13l-252 -578h-24z" />
    <glyph glyph-name="afii10031" unicode="&#x41d;" horiz-adv-x="1015" 
d="M942 693v-693h-111v317h-621v-317h-110v693h110v-266h621v266h111z" />
    <glyph glyph-name="afii10032" unicode="&#x41e;" horiz-adv-x="1248" 
d="M391 0c-40 0 -77.5 7.5 -112.5 22.5s-65.5 35.5 -91.5 61.5s-46.5 56.5 -61.5 91.5s-22.5 72.5 -22.5 112.5v118c0 39.333 7.5 76.5 22.5 111.5s35.5 65.5 61.5 91.5s56.5 46.5 91.5 61.5s72.5 22.5 112.5 22.5h486c40 0 77.5 -7.5 112.5 -22.5s65.5 -35.5 91.5 -61.5
s46.5 -56.5 61.5 -91.5s22.5 -72.167 22.5 -111.5v-118c0 -40 -7.5 -77.5 -22.5 -112.5s-35.5 -65.5 -61.5 -91.5s-56.5 -46.5 -91.5 -61.5s-72.5 -22.5 -112.5 -22.5h-486zM213 288c0 -24.667 4.66699 -47.834 14 -69.501s22 -40.5 38 -56.5s34.833 -28.667 56.5 -38
s44.834 -14 69.501 -14h486c24.667 0 47.834 4.66699 69.501 14s40.667 22 57 38s29.166 34.833 38.499 56.5s14 44.834 14 69.501v118c0 24 -4.66699 46.833 -14 68.5s-22.166 40.667 -38.499 57s-35.333 29.166 -57 38.499s-44.834 14 -69.501 14h-486
c-24.667 0 -47.834 -4.66699 -69.501 -14s-40.5 -22.166 -56.5 -38.499s-28.667 -35.333 -38 -57s-14 -44.5 -14 -68.5v-118z" />
    <glyph glyph-name="afii10033" unicode="&#x41f;" horiz-adv-x="833" 
 />
    <glyph glyph-name="afii10034" unicode="&#x420;" horiz-adv-x="1111" 
d="M212 0h-109.001v692h693c29.333 0 57.333 -5.66699 84 -17s50 -26.833 70 -46.5s36 -42.5 48 -68.5s18 -53.667 18 -83c0 -30 -6.16699 -58 -18.5 -84s-28.833 -48.833 -49.5 -68.5s-44.667 -35 -72 -46s-55.666 -16.5 -84.999 -16.5h-579v-262zM792.999 369
c15.333 0 29.834 2.83105 43.501 8.49805s25.667 13.334 36 23.001s18.833 21 25.5 34s10.334 27.167 11.001 42.5c-0.666992 14.667 -4.33398 28.5 -11.001 41.5s-15.334 24.333 -26.001 34s-23 17.334 -37 23.001s-28.667 8.5 -44 8.5h-579v-215h581z" />
    <glyph glyph-name="afii10035" unicode="&#x421;" horiz-adv-x="1034" 
d="M154 84c-26.667 26.667 -47.499 57.3311 -62.499 91.998s-22.5 72 -22.5 112v118c0 39.333 7.66699 76.5 23 111.5s36 65.5 62 91.5s56.5 46.5 91.5 61.5s72.5 22.5 112.5 22.5h571v-109h-571c-24.667 0 -47.834 -4.66699 -69.501 -14s-40.5 -22.166 -56.5 -38.499
s-28.833 -35.333 -38.5 -57s-14.5 -44.5 -14.5 -68.5v-118c0 -24 4.66699 -46.833 14 -68.5s22 -40.667 38 -57s34.667 -29.166 56 -38.499s44.333 -14 69 -14h573v-110h-571c-40 0 -77.5 7.5 -112.5 22.5s-65.5 35.5 -91.5 61.5z" />
    <glyph glyph-name="afii10036" unicode="&#x422;" horiz-adv-x="1031" 
d="M947 584h-374v-584h-109v584h-374v109h857v-109z" />
    <glyph glyph-name="afii10039" unicode="&#x425;" 
d="M849 320c26.667 -26.667 47.4971 -57.333 62.4971 -92s22.5 -72 22.5 -112v-116h-110v116c0 24 -4.66699 46.833 -14 68.5s-22 40.667 -38 57s-34.667 29.166 -56 38.499s-44.333 14 -69 14h-270c-24 0 -46.667 -4.66699 -68 -14s-40.166 -22 -56.499 -38
s-29.166 -34.667 -38.499 -56s-14 -44 -14 -68v-118h-110v116c0 40 7.5 77.333 22.5 112s35.833 65.334 62.5 92.001c5.33301 5.33301 10.833 10.5 16.5 15.5s11.167 9.5 16.5 13.5c-13.333 10 -24.666 19.667 -33.999 29h1c-26.667 26.667 -47.5 57.334 -62.5 92.001
s-22.5 72 -22.5 112v111h110v-111c0 -24 4.66699 -46.833 14 -68.5s22 -40.667 38 -57s34.667 -29.166 56 -38.499s44.333 -14 69 -14h277c23.333 0 45.333 4.83301 66 14.5s38.667 22.5 54 38.5s27.5 34.667 36.5 56s13.5 43.666 13.5 66.999v113h110v-111
c0 -40 -7.5 -77.333 -22.5 -112s-35.833 -65.334 -62.5 -92.001l-17 -15.5c-5.33301 -5 -11 -9.83301 -17 -14.5c7.33301 -4.66699 13.5 -9.16699 18.5 -13.5l15.5 -13.5v-1z" />
    <glyph glyph-name="afii10045" unicode="&#x42b;" horiz-adv-x="1239" 
d="M177 424h646.001c29.333 0 57.5 -5.5 84.5 -16.5s50.667 -26 71 -45s36.666 -41.5 48.999 -67.5s18.5 -53.667 18.5 -83c0 -28.667 -6 -55.834 -18 -81.501s-28 -48.167 -48 -67.5s-43.167 -34.666 -69.5 -45.999s-53.833 -17 -82.5 -17h-728v693h77v-269zM177.001 348
l-0.000976562 -271.999h646c19.333 0 37.833 3.5 55.5 10.5s33.167 16.667 46.5 29s24 26.666 32 42.999s12.333 34.166 13 53.499c-0.666992 18.667 -5 36.334 -13 53.001s-18.5 31.167 -31.5 43.5s-28.167 22 -45.5 29s-35.666 10.5 -54.999 10.5h-648zM1078 0.000976562
v693h110v-693h-110z" />
    <glyph glyph-name="afii10046" unicode="&#x42c;" horiz-adv-x="1111" 
d="M177 424h646.001c29.333 0 57.5 -5.5 84.5 -16.5s50.667 -26 71 -45s36.666 -41.5 48.999 -67.5s18.5 -53.667 18.5 -83c0 -28.667 -6 -55.834 -18 -81.501s-28 -48.167 -48 -67.5s-43.167 -34.666 -69.5 -45.999s-53.833 -17 -82.5 -17h-728v693h77v-269zM177.001 348
l-0.000976562 -271.999h646c19.333 0 37.833 3.5 55.5 10.5s33.167 16.667 46.5 29s24 26.666 32 42.999s12.333 34.166 13 53.499c-0.666992 18.667 -5 36.334 -13 53.001s-18.5 31.167 -31.5 43.5s-28.167 22 -45.5 29s-35.666 10.5 -54.999 10.5h-648z" />
    <glyph glyph-name="afii10049" unicode="&#x42f;" horiz-adv-x="1124" 
d="M167 331c-21.333 19.333 -37.833 41.833 -49.5 67.5s-17.5 53.167 -17.5 82.5c0 36.667 9.16699 70.5 27.5 101.5s42.5 56.167 72.5 75.5c17.333 11.333 36.5 20 57.5 26s42.833 9 65.5 9h722v-693h-76v269h-587l-201 -269h-95l203 272c-48 7.33301 -88.667 27 -122 59z
M969 617l-645.999 -0.00195312c-19.333 0 -37.833 -3.5 -55.5 -10.5s-33.334 -16.5 -47.001 -28.5s-24.5 -26.333 -32.5 -43s-12 -34.667 -12 -54s4 -37.166 12 -53.499s18.5 -30.666 31.5 -42.999s28.167 -22 45.5 -29s35.333 -10.5 54 -10.5h650v272z" />
    <glyph glyph-name="afii10065" unicode="&#x430;" horiz-adv-x="1083" 
d="M322 0c-22 0 -43.332 3.33105 -63.999 9.99805s-40 15.667 -58 27s-34 25 -48 41s-25.333 33.333 -34 52c-6 13.333 -10.833 27 -14.5 41s-5.5 28.333 -5.5 43c0 30 6 58 18 84s28.167 48.833 48.5 68.5s43.833 35 70.5 46s54.667 16.5 84 16.5h533v25
c0 16 -3.33301 31.167 -10 45.5s-15.334 26.833 -26.001 37.5s-23.167 19 -37.5 25s-29.5 9 -45.5 9h-484v108h484c31.333 0 60.666 -5.83301 87.999 -17.5s51.333 -27.667 72 -48s36.834 -44.166 48.501 -71.499s17.5 -56.666 17.5 -87.999v-455zM257.001 301.998
c-16 -10 -28.499 -22.5 -37.499 -37.5s-13.5 -31.833 -13.5 -50.5c0 -15.333 3.16699 -29.5 9.5 -42.5s14.5 -24.167 24.5 -33.5s21.833 -16.833 35.5 -22.5s28.167 -8.5 43.5 -8.5h533v214h-530c-24.667 0 -46.334 -6.33301 -65.001 -19z" />
    <glyph glyph-name="afii10070" unicode="&#x435;" horiz-adv-x="1088" 
d="M100 483c0 28.667 6.16895 55.832 18.502 81.499s28.666 47.834 48.999 66.501s44.166 33.5 71.499 44.5s56 16.5 86 16.5h433c29.333 0 57.333 -5.66699 84 -17s50.167 -26.833 70.5 -46.5s36.5 -42.5 48.5 -68.5s18 -53.667 18 -83c0 -30 -6 -58 -18 -84
s-28.333 -48.833 -49 -68.5s-44.667 -35 -72 -46s-56 -16.5 -86 -16.5h-547v-81c6 -22.667 20.5 -40.667 43.5 -54s47.833 -20 74.5 -20h635v-107h-640c-26 0 -51.833 4 -77.5 12s-49 19.667 -70 35s-38.167 34 -51.5 56s-20.333 47 -21 75v305zM325.002 583.998
c-12 0 -24.833 -2.66699 -38.5 -8s-26.5 -12.5 -38.5 -21.5s-21.833 -20 -29.5 -33s-11.5 -26.833 -11.5 -41.5v-110h551c14.667 0 29 2.83301 43 8.5s26.167 13.167 36.5 22.5s18.666 20.5 24.999 33.5s9.5 27.167 9.5 42.5s-3.16699 29.5 -9.5 42.5s-15 24.333 -26 34
s-23.667 17.167 -38 22.5s-29.166 8 -44.499 8h-429z" />
    <glyph glyph-name="afii10076" unicode="&#x43a;" horiz-adv-x="833" 
 />
    <glyph glyph-name="afii10079" unicode="&#x43d;" horiz-adv-x="1015" 
d="M942 693v-693h-111v317h-621v-317h-110v693h110v-266h621v266h111z" />
    <glyph glyph-name="afii10080" unicode="&#x43e;" horiz-adv-x="1248" 
d="M391 0c-40 0 -77.5 7.5 -112.5 22.5s-65.5 35.5 -91.5 61.5s-46.5 56.5 -61.5 91.5s-22.5 72.5 -22.5 112.5v118c0 39.333 7.5 76.5 22.5 111.5s35.5 65.5 61.5 91.5s56.5 46.5 91.5 61.5s72.5 22.5 112.5 22.5h486c40 0 77.5 -7.5 112.5 -22.5s65.5 -35.5 91.5 -61.5
s46.5 -56.5 61.5 -91.5s22.5 -72.167 22.5 -111.5v-118c0 -40 -7.5 -77.5 -22.5 -112.5s-35.5 -65.5 -61.5 -91.5s-56.5 -46.5 -91.5 -61.5s-72.5 -22.5 -112.5 -22.5h-486zM213 288c0 -24.667 4.66699 -47.834 14 -69.501s22 -40.5 38 -56.5s34.833 -28.667 56.5 -38
s44.834 -14 69.501 -14h486c24.667 0 47.834 4.66699 69.501 14s40.667 22 57 38s29.166 34.833 38.499 56.5s14 44.834 14 69.501v118c0 24 -4.66699 46.833 -14 68.5s-22.166 40.667 -38.499 57s-35.333 29.166 -57 38.499s-44.834 14 -69.501 14h-486
c-24.667 0 -47.834 -4.66699 -69.501 -14s-40.5 -22.166 -56.5 -38.499s-28.667 -35.333 -38 -57s-14 -44.5 -14 -68.5v-118z" />
    <glyph glyph-name="afii10081" unicode="&#x43f;" 
d="M641 692c38.667 0 74.999 -7.49902 108.999 -22.499s63.833 -35.167 89.5 -60.5s45.834 -55.333 60.501 -90s22 -71.334 22 -110.001v-409h-107v409c0 24 -4.5 46.5 -13.5 67.5s-21.333 39.5 -37 55.5s-34 28.667 -55 38s-43.167 14 -66.5 14h-439v-584h-107v692h544z
" />
    <glyph glyph-name="afii10082" unicode="&#x440;" horiz-adv-x="1111" 
d="M212 0h-109.001v692h693c29.333 0 57.333 -5.66699 84 -17s50 -26.833 70 -46.5s36 -42.5 48 -68.5s18 -53.667 18 -83c0 -30 -6.16699 -58 -18.5 -84s-28.833 -48.833 -49.5 -68.5s-44.667 -35 -72 -46s-55.666 -16.5 -84.999 -16.5h-579v-262zM792.999 369
c15.333 0 29.834 2.83105 43.501 8.49805s25.667 13.334 36 23.001s18.833 21 25.5 34s10.334 27.167 11.001 42.5c-0.666992 14.667 -4.33398 28.5 -11.001 41.5s-15.334 24.333 -26.001 34s-23 17.334 -37 23.001s-28.667 8.5 -44 8.5h-579v-215h581z" />
    <glyph glyph-name="afii10083" unicode="&#x441;" horiz-adv-x="1034" 
d="M185 84c-26.667 26.667 -47.499 57.3311 -62.499 91.998s-22.5 72 -22.5 112v118c0 39.333 7.66699 76.5 23 111.5s36 65.5 62 91.5s56.5 46.5 91.5 61.5s72.5 22.5 112.5 22.5h571v-109h-571c-24.667 0 -47.834 -4.66699 -69.501 -14s-40.5 -22.166 -56.5 -38.499
s-28.833 -35.333 -38.5 -57s-14.5 -44.5 -14.5 -68.5v-118c0 -24 4.66699 -46.833 14 -68.5s22 -40.667 38 -57s34.667 -29.166 56 -38.499s44.333 -14 69 -14h573v-110h-571c-40 0 -77.5 7.5 -112.5 22.5s-65.5 35.5 -91.5 61.5z" />
    <glyph glyph-name="afii10084" unicode="&#x442;" horiz-adv-x="1508" 
d="M1106 692c38.667 0 75 -7.49902 109 -22.499s63.667 -35.167 89 -60.5s45.5 -55.333 60.5 -90s22.5 -71.334 22.5 -110.001v-409h-107v409c0 24 -4.5 46.5 -13.5 67.5s-21.333 39.5 -37 55.5s-34 28.667 -55 38s-43.167 14 -66.5 14h-337v-584h-108v584h-449v-584h-107
v692h999v0z" />
    <glyph glyph-name="afii10085" unicode="&#x443;" 
d="M924 692v-410.999c0 -38.667 -7.33301 -75 -22 -109s-34.667 -63.833 -60 -89.5s-55.166 -45.834 -89.499 -60.501s-70.833 -22 -109.5 -22h-494v107h494c23.333 0 45.5 4.5 66.5 13.5s39.333 21.167 55 36.5s28.167 33.5 37.5 54.5s14.333 43.167 15 66.5h-437
c-38.667 0 -75 7.5 -109 22.5s-63.833 35.167 -89.5 60.5s-45.834 55.166 -60.501 89.499s-22 70.833 -22 109.5v132h107v-132c0 -23.333 4.5 -45.666 13.5 -66.999s21.333 -40 37 -56s34 -28.667 55 -38s43.167 -14 66.5 -14h439v307h107z" />
    <glyph glyph-name="afii10087" unicode="&#x445;" 
d="M859 320c26.667 -26.667 47.4971 -57.333 62.4971 -92s22.5 -72 22.5 -112v-116h-110v116c0 24 -4.66699 46.833 -14 68.5s-22 40.667 -38 57s-34.667 29.166 -56 38.499s-44.333 14 -69 14h-270c-24 0 -46.667 -4.66699 -68 -14s-40.166 -22 -56.499 -38
s-29.166 -34.667 -38.499 -56s-14 -44 -14 -68v-118h-110v116c0 40 7.5 77.333 22.5 112s35.833 65.334 62.5 92.001c5.33301 5.33301 10.833 10.5 16.5 15.5s11.167 9.5 16.5 13.5c-13.333 10 -24.666 19.667 -33.999 29h1c-26.667 26.667 -47.5 57.334 -62.5 92.001
s-22.5 72 -22.5 112v111h110v-111c0 -24 4.66699 -46.833 14 -68.5s22 -40.667 38 -57s34.667 -29.166 56 -38.499s44.333 -14 69 -14h277c23.333 0 45.333 4.83301 66 14.5s38.667 22.5 54 38.5s27.5 34.667 36.5 56s13.5 43.666 13.5 66.999v113h110v-111
c0 -40 -7.5 -77.333 -22.5 -112s-35.833 -65.334 -62.5 -92.001l-17 -15.5c-5.33301 -5 -11 -9.83301 -17 -14.5c7.33301 -4.66699 13.5 -9.16699 18.5 -13.5l15.5 -13.5v-1z" />
    <glyph glyph-name="afii10094" unicode="&#x44c;" horiz-adv-x="1126" 
d="M177 424h646.001c29.333 0 57.5 -5.5 84.5 -16.5s50.667 -26 71 -45s36.666 -41.5 48.999 -67.5s18.5 -53.667 18.5 -83c0 -28.667 -6 -55.834 -18 -81.501s-28 -48.167 -48 -67.5s-43.167 -34.666 -69.5 -45.999s-53.833 -17 -82.5 -17h-728v693h77v-269zM177.001 348
l-0.000976562 -271.999h646c19.333 0 37.833 3.5 55.5 10.5s33.167 16.667 46.5 29s24 26.666 32 42.999s12.333 34.166 13 53.499c-0.666992 18.667 -5 36.334 -13 53.001s-18.5 31.167 -31.5 43.5s-28.167 22 -45.5 29s-35.666 10.5 -54.999 10.5h-648z" />
    <glyph glyph-name="afii10097" unicode="&#x44f;" horiz-adv-x="1120" 
d="M167 331c-21.333 19.333 -37.833 41.833 -49.5 67.5s-17.5 53.167 -17.5 82.5c0 36.667 9.16699 70.5 27.5 101.5s42.5 56.167 72.5 75.5c17.333 11.333 36.5 20 57.5 26s42.833 9 65.5 9h722v-693h-76v269h-587l-201 -269h-95l203 272c-48 7.33301 -88.667 27 -122 59z
M969 617l-645.999 -0.00195312c-19.333 0 -37.833 -3.5 -55.5 -10.5s-33.334 -16.5 -47.001 -28.5s-24.5 -26.333 -32.5 -43s-12 -34.667 -12 -54s4 -37.166 12 -53.499s18.5 -30.666 31.5 -42.999s28.167 -22 45.5 -29s35.333 -10.5 54 -10.5h650v272z" />
    <glyph glyph-name="afii10071" unicode="&#x451;" horiz-adv-x="1064" 
d="M341 731v121h116v-121h-116zM609 731v121h117v-121h-117z" />
    <glyph glyph-name="afii10102" unicode="&#x455;" horiz-adv-x="1018" 
d="M113 0v107h630c24.667 0 45.667 8.66699 63 26s26 38.333 26 63c0 25.333 -8.5 46.666 -25.5 63.999s-38.167 26 -63.5 26h-469c-26.667 0 -51.834 5.16699 -75.501 15.5s-44.5 24.333 -62.5 42s-32.167 38.334 -42.5 62.001s-15.5 49.167 -15.5 76.5
c0 28 5.16699 54 15.5 78s24.333 45 42 63s38.334 32.167 62.001 42.5s49.167 15.5 76.5 15.5h631v-108h-631c-25.333 0 -46 -8.66699 -62 -26s-25 -38 -27 -62c2 -26 11.333 -47.667 28 -65s37 -26 61 -26h469c27.333 0 53 -5.16699 77 -15.5s44.833 -24.333 62.5 -42
s31.667 -38.5 42 -62.5s15.5 -49.667 15.5 -77s-5.16699 -53 -15.5 -77s-24.333 -44.833 -42 -62.5s-38.5 -31.667 -62.5 -42s-49.667 -15.5 -77 -15.5h-630z" />
    <glyph glyph-name="afii10104" unicode="&#x457;" horiz-adv-x="465" 
d="M43 731v121h116v-121h-116zM311 731v121h117v-121h-117z" />
    <glyph glyph-name="afii10105" unicode="&#x458;" horiz-adv-x="1060" 
d="M208 679h711v-398c0 -38 -7.33301 -74.167 -22 -108.5s-35 -64.5 -61 -90.5c-25.333 -25.333 -55 -45.333 -89 -60s-70.333 -22 -109 -22h-262c-39.333 -0 -76 7.33301 -110 22s-63.667 34.667 -89 60c-26 26 -46.333 56.167 -61 90.5s-22 70.5 -22 108.5v74h107v-74
c0 -23.333 4.5 -45.5 13.5 -66.5s21.333 -39.5 37 -55.5s34 -28.667 55 -38s43.5 -14 67.5 -14h264c23.333 0 45.5 4.5 66.5 13.5s39.5 21.333 55.5 37s28.667 34 38 55s14 43.5 14 67.5v291h-604v108z" />
    <glyph glyph-name="endash" unicode="&#x2013;" horiz-adv-x="960" 
d="M102 394h770v-92h-770v92z" />
    <glyph glyph-name="emdash" unicode="&#x2014;" horiz-adv-x="1229" 
d="M108 394h1026v-92h-1026v92z" />
    <glyph glyph-name="quoteleft" unicode="&#x2018;" horiz-adv-x="322" 
d="M152 442l-66 243h116l67 -243h-117z" />
    <glyph glyph-name="quoteright" unicode="&#x2019;" horiz-adv-x="327" 
d="M96 442l66 243h117l-67 -243h-116z" />
    <glyph glyph-name="quotesinglbase" unicode="&#x201a;" horiz-adv-x="280" 
d="M65 -106l61 225h98l-61 -225h-98z" />
    <glyph glyph-name="quotedblleft" unicode="&#x201c;" horiz-adv-x="499" 
d="M322 512l-66 243h116l67 -243h-117zM156 512l-67 243h117l66 -243h-116z" />
    <glyph glyph-name="quotedblright" unicode="&#x201d;" horiz-adv-x="491" 
d="M89 504l67 243h116l-66 -243h-117zM256 504l66 243h117l-67 -243h-116z" />
    <glyph glyph-name="quotedblbase" unicode="&#x201e;" horiz-adv-x="510" 
d="M99 -106l62 225h98l-61 -225h-99zM272 -106l62 225h98l-61 -225h-99z" />
    <glyph glyph-name="dagger" unicode="&#x2020;" horiz-adv-x="515" 
 />
    <glyph glyph-name="daggerdbl" unicode="&#x2021;" horiz-adv-x="515" 
 />
    <glyph glyph-name="bullet" unicode="&#x2022;" horiz-adv-x="470" 
d="M102 343c0 22 4.16699 42.833 12.5 62.5s19.833 36.834 34.5 51.501s31.834 26.334 51.501 35.001s40.834 13 63.501 13s43.834 -4.33301 63.501 -13s36.834 -20.334 51.501 -35.001s26.167 -31.834 34.5 -51.501s12.5 -40.5 12.5 -62.5
c0 -22.667 -4.16699 -43.834 -12.5 -63.501s-19.833 -36.834 -34.5 -51.501s-31.834 -26.167 -51.501 -34.5s-40.834 -12.5 -63.501 -12.5s-43.834 4.16699 -63.501 12.5s-36.834 19.833 -51.501 34.5s-26.167 31.834 -34.5 51.501s-12.5 40.834 -12.5 63.501zM264 425
c-22.667 0 -42 -8 -58 -24s-24 -35.333 -24 -58c0 -23.333 8 -43 24 -59s35.333 -24 58 -24c23.333 0 43 8 59 24s24 35.667 24 59c0 22.667 -8 42 -24 58s-35.667 24 -59 24z" />
    <glyph glyph-name="ellipsis" unicode="&#x2026;" horiz-adv-x="776" 
d="M99 0v119h122v-119h-122zM333 0v119h122v-119h-122zM566 0v119h122v-119h-122z" />
    <glyph glyph-name="perthousand" unicode="&#x2030;" horiz-adv-x="1661" 
d="M283 -11l457 719h85l-457 -719h-85zM903 0l-173 -0.000976562c-20.667 0 -40 3.83301 -58 11.5s-33.667 18.167 -47 31.5s-24 29.166 -32 47.499s-12 37.833 -12 58.5v15c0 20.667 3.83301 40 11.5 58s18.334 33.833 32.001 47.5s29.5 24.5 47.5 32.5s37.333 12 58 12
h173c20.667 0 40 -4 58 -12s33.667 -18.667 47 -32s24 -29.166 32 -47.499s12 -37.833 12 -58.5v-15c0 -20 -3.83301 -39.167 -11.5 -57.5s-18.334 -34.166 -32.001 -47.499s-29.5 -24 -47.5 -32s-37.333 -12 -58 -12zM673 220.999
c-7.33301 -7.33301 -13 -15.834 -17 -25.501s-6 -20.167 -6 -31.5v-15c0 -22 7.83301 -40.833 23.5 -56.5s34.5 -23.5 56.5 -23.5h173c22 0 40.833 7.83301 56.5 23.5s23.5 34.5 23.5 56.5v15c0 22.667 -7.83301 41.834 -23.5 57.501s-34.5 23.5 -56.5 23.5h-173
c-22 0 -41 -8 -57 -24zM393 383.998l-173 -0.000976562c-20.667 0 -40 3.83301 -58 11.5s-33.667 18.167 -47 31.5s-24 29.166 -32 47.499s-12 37.833 -12 58.5v15c0 20.667 3.83301 40 11.5 58s18.334 33.833 32.001 47.5s29.5 24.5 47.5 32.5s37.333 12 58 12h173
c20.667 0 40 -4 58 -12s33.667 -18.667 47 -32s24 -29.166 32 -47.499s12 -37.833 12 -58.5v-15c0 -20 -3.83301 -39.167 -11.5 -57.5s-18.334 -34.166 -32.001 -47.499s-29.5 -24 -47.5 -32s-37.333 -12 -58 -12zM163 604.997c-7.33301 -7.33301 -13 -15.834 -17 -25.501
s-6 -20.167 -6 -31.5v-15c0 -22 7.83301 -40.833 23.5 -56.5s34.5 -23.5 56.5 -23.5h173c22 0 40.833 7.83301 56.5 23.5s23.5 34.5 23.5 56.5v15c0 22.667 -7.83301 41.834 -23.5 57.501s-34.5 23.5 -56.5 23.5h-173c-22 0 -41 -8 -57 -24zM1423 -0.00390625
l-173 -0.000976562c-20.667 0 -40 3.83301 -58 11.5s-33.667 18.167 -47 31.5s-24 29.166 -32 47.499s-12 37.833 -12 58.5v15c0 20.667 3.83301 40 11.5 58s18.334 33.833 32.001 47.5s29.5 24.5 47.5 32.5s37.333 12 58 12h173c20.667 0 40 -4 58 -12
s33.667 -18.667 47 -32s24 -29.166 32 -47.499s12 -37.833 12 -58.5v-15c0 -20 -3.83301 -39.167 -11.5 -57.5s-18.334 -34.166 -32.001 -47.499s-29.5 -24 -47.5 -32s-37.333 -12 -58 -12zM1193 220.995c-7.33301 -7.33301 -13 -15.834 -17 -25.501s-6 -20.167 -6 -31.5
v-15c0 -22 7.83301 -40.833 23.5 -56.5s34.5 -23.5 56.5 -23.5h173c22 0 40.833 7.83301 56.5 23.5s23.5 34.5 23.5 56.5v15c0 22.667 -7.83301 41.834 -23.5 57.501s-34.5 23.5 -56.5 23.5h-173c-22 0 -41 -8 -57 -24z" />
    <glyph glyph-name="guilsinglleft" unicode="&#x2039;" horiz-adv-x="0" 
 />
    <glyph glyph-name="guilsinglright" unicode="&#x203a;" horiz-adv-x="0" 
 />
    <glyph glyph-name="fraction" unicode="&#x2044;" horiz-adv-x="782" 
d="M677 700h75l-647 -700h-75z" />
    <glyph glyph-name="fraction" unicode="&#x2215;" horiz-adv-x="782" 
d="M677 700h75l-647 -700h-75z" />
    <glyph glyph-name="Euro" unicode="&#x20ac;" horiz-adv-x="1123" 
d="M432 583c-36 0 -68.6689 -10.166 -98.002 -30.499s-50.666 -46.5 -63.999 -78.5h698v-107h-711v-43h711v-107h-699c13.333 -32 34.5 -58.333 63.5 -79s61.5 -31 97.5 -31h561v-107h-559c-38.667 0 -75.167 7.33301 -109.5 22s-64.166 34.667 -89.499 60
c-17.333 18 -32.5 38.833 -45.5 62.5s-22.833 47.834 -29.5 72.501h-84v107h75v43h-75v107h83c6.66699 31.333 18.5 60.166 35.5 86.499s37.667 49.166 62 68.499s51.5 34.5 81.5 45.5s62 16.5 96 16.5h559v-108h-559v0z" />
    <glyph glyph-name="trademark" unicode="&#x2122;" horiz-adv-x="2153" 
 />
    <glyph glyph-name="commaaccent" unicode="&#xf004;" horiz-adv-x="270" 
d="M48 -151l87 186l69 -32l-87 -186z" />
    <glyph glyph-name="commaaccent" unicode="&#xf6c3;" horiz-adv-x="270" 
d="M48 -151l87 186l69 -32l-87 -186z" />
    <glyph glyph-name="dotlessj" unicode="&#xf6be;" horiz-adv-x="1032" 
d="M174 84c-26.667 26.667 -47.499 57.333 -62.499 92s-22.5 72 -22.5 112v74h110v-74c0 -24 4.66699 -46.833 14 -68.5s22 -40.667 38 -57s34.667 -29.166 56 -38.499s44.333 -14 69 -14h269c24 0 46.833 4.66699 68.5 14s40.667 22 57 38s29.166 34.667 38.499 56
s14 44 14 68v407h110v-405c0 -40 -7.5 -77.333 -22.5 -112s-35.833 -65.334 -62.5 -92.001c-26 -26 -56.333 -46.5 -91 -61.5s-72 -22.5 -112 -22.5h-268c-40 0 -77.333 7.5 -112 22.5s-65 35.5 -91 61.5z" />
    <glyph glyph-name="dotlessj" unicode="&#xfb0f;" horiz-adv-x="1032" 
d="M174 84c-26.667 26.667 -47.499 57.333 -62.499 92s-22.5 72 -22.5 112v74h110v-74c0 -24 4.66699 -46.833 14 -68.5s22 -40.667 38 -57s34.667 -29.166 56 -38.499s44.333 -14 69 -14h269c24 0 46.833 4.66699 68.5 14s40.667 22 57 38s29.166 34.667 38.499 56
s14 44 14 68v407h110v-405c0 -40 -7.5 -77.333 -22.5 -112s-35.833 -65.334 -62.5 -92.001c-26 -26 -56.333 -46.5 -91 -61.5s-72 -22.5 -112 -22.5h-268c-40 0 -77.333 7.5 -112 22.5s-65 35.5 -91 61.5z" />
    <glyph glyph-name="fi" unicode="&#xfb01;" horiz-adv-x="1179" 
d="M263 531c-16 -16 -28.6689 -34.832 -38.002 -56.499s-14 -44.834 -14 -69.501v-7h707v-109h-707v-289h-110v405c0 40 7.5 77.333 22.5 112s35.5 65 61.5 91c26.667 26.667 57.334 47.5 92.001 62.5s72 22.5 112 22.5h571v-109h-571
c-25.333 0 -48.666 -4.83301 -69.999 -14.5s-40 -22.5 -56 -38.5zM1004 0.000976562v693h110v-693h-110z" />
    <glyph glyph-name="fl" unicode="&#xfb02;" horiz-adv-x="2002" 
d="M237 555c-19.333 -18.667 -34.332 -40.499 -44.999 -65.499s-16 -52.167 -16 -81.5v-27h747v-76h-747v-305h-76v408c0 40 7.5 77.167 22.5 111.5s35.167 64.166 60.5 89.499c26 26 56.167 46.5 90.5 61.5s71.166 22.5 110.499 22.5h584v-76h-584
c-28.667 0 -55.5 -5.5 -80.5 -16.5s-47.167 -26.167 -66.5 -45.5zM1209 693.001l-0.000976562 -407.999c0 -29.333 5.33301 -56.5 16 -81.5s25.667 -46.833 45 -65.5c19.333 -19.333 41.5 -34.5 66.5 -45.5s51.833 -16.5 80.5 -16.5h584v-76h-584
c-39.333 0 -76.166 7.5 -110.499 22.5s-64.5 35.5 -90.5 61.5c-25.333 25.333 -45.5 55.166 -60.5 89.499s-22.5 71.5 -22.5 111.5v408h76z" />
    <glyph glyph-name=".null" horiz-adv-x="0" 
 />
    <glyph glyph-name="nonmarkingreturn" horiz-adv-x="375" 
 />
    <glyph glyph-name="X.001" horiz-adv-x="833" 
 />
    <glyph glyph-name="registered.alt" horiz-adv-x="0" 
 />
    <glyph glyph-name="trademark.alt" horiz-adv-x="2153" 
 />
    </font>
</defs>
</svg>
